{"asset":{"version":"2.0","generator":"gltfpack 1.0"},"extensionsUsed":["KHR_mesh_quantization","EXT_meshopt_compression","KHR_texture_transform","KHR_texture_basisu"],"extensionsRequired":["KHR_mesh_quantization","EXT_meshopt_compression","KHR_texture_basisu"],"buffers":[{"uri":"Bush_Common_Flowers.bin","byteLength":28644},{"byteLength":45184,"extensions":{"EXT_meshopt_compression":{"fallback":true}}}],"bufferViews":[{"buffer":1,"byteOffset":0,"byteLength":18488,"byteStride":8,"target":34962,"extensions":{"EXT_meshopt_compression":{"buffer":0,"byteOffset":0,"byteLength":13171,"byteStride":8,"mode":"ATTRIBUTES","count":2311}}},{"buffer":1,"byteOffset":18488,"byteLength":9244,"byteStride":4,"target":34962,"extensions":{"EXT_meshopt_compression":{"buffer":0,"byteOffset":13172,"byteLength":7122,"byteStride":4,"mode":"ATTRIBUTES","count":2311}}},{"buffer":1,"byteOffset":27732,"byteLength":9244,"byteStride":4,"target":34962,"extensions":{"EXT_meshopt_compression":{"buffer":0,"byteOffset":20296,"byteLength":6958,"byteStride":4,"mode":"ATTRIBUTES","count":2311}}},{"buffer":1,"byteOffset":36976,"byteLength":8208,"target":34963,"extensions":{"EXT_meshopt_compression":{"buffer":0,"byteOffset":27256,"byteLength":1387,"byteStride":2,"mode":"TRIANGLES","count":4104}}}],"accessors":[{"bufferView":0,"byteOffset":0,"componentType":5123,"count":1800,"type":"VEC3","min":[0,0,0],"max":[15964,13187,16383]},{"bufferView":1,"byteOffset":0,"componentType":5120,"count":1800,"type":"VEC3","normalized":true},{"bufferView":2,"byteOffset":0,"componentType":5123,"count":1800,"type":"VEC2","normalized":true},{"bufferView":3,"byteOffset":0,"componentType":5123,"count":2700,"type":"SCALAR"},{"bufferView":0,"byteOffset":14400,"componentType":5123,"count":511,"type":"VEC3","min":[1485,4113,410],"max":[15801,13032,16358]},{"bufferView":1,"byteOffset":7200,"componentType":5120,"count":511,"type":"VEC3","normalized":true},{"bufferView":2,"byteOffset":7200,"componentType":5123,"count":511,"type":"VEC2","normalized":true},{"bufferView":3,"byteOffset":5400,"componentType":5123,"count":1404,"type":"SCALAR"}],"samplers":[{"magFilter":9729,"minFilter":9987}],"images":[{"name":"Leaves_NormalTree_C","uri":"Leaves_NormalTree_C.ktx2"},{"name":"Flowers","uri":"Flowers.ktx2"}],"textures":[{"sampler":0,"extensions":{"KHR_texture_basisu":{"source":0}}},{"sampler":0,"extensions":{"KHR_texture_basisu":{"source":1}}}],"materials":[{"name":"Leaves_NormalTree","pbrMetallicRoughness":{"baseColorTexture":{"index":0,"extensions":{"KHR_texture_transform":{"offset":[0.000490000006,0.000490009785],"scale":[15.9879789,15.9879789]}}},"metallicFactor":0},"alphaMode":"MASK","alphaCutoff":0.200000003,"doubleSided":true},{"name":"Flowers","pbrMetallicRoughness":{"baseColorTexture":{"index":1,"extensions":{"KHR_texture_transform":{"offset":[0.543049991,0.0306199789],"scale":[6.89709854,6.96719456]}}},"metallicFactor":0},"alphaMode":"MASK","alphaCutoff":0.200000003,"doubleSided":true}],"meshes":[{"primitives":[{"attributes":{"POSITION":0,"NORMAL":1,"TEXCOORD_0":2},"indices":3,"material":0},{"attributes":{"POSITION":4,"NORMAL":5,"TEXCOORD_0":6},"indices":7,"material":1}]}],"nodes":[{"mesh":0,"translation":[-0.92347616,-0.234694704,-0.974389195],"scale":[0.000119949997,0.000119949997,0.000119949997]}],"scenes":[{"name":"Scene","nodes":[0]}],"scene":0}