{"asset":{"version":"2.0","generator":"gltfpack 1.0"},"extensionsUsed":["KHR_mesh_quantization","EXT_meshopt_compression","KHR_texture_transform","KHR_texture_basisu"],"extensionsRequired":["KHR_mesh_quantization","EXT_meshopt_compression","KHR_texture_basisu"],"buffers":[{"uri":"Bush_Common.bin","byteLength":22340},{"byteLength":34200,"extensions":{"EXT_meshopt_compression":{"fallback":true}}}],"bufferViews":[{"buffer":1,"byteOffset":0,"byteLength":14400,"byteStride":8,"target":34962,"extensions":{"EXT_meshopt_compression":{"buffer":0,"byteOffset":0,"byteLength":10755,"byteStride":8,"mode":"ATTRIBUTES","count":1800}}},{"buffer":1,"byteOffset":14400,"byteLength":7200,"byteStride":4,"target":34962,"extensions":{"EXT_meshopt_compression":{"buffer":0,"byteOffset":10756,"byteLength":5557,"byteStride":4,"mode":"ATTRIBUTES","count":1800}}},{"buffer":1,"byteOffset":21600,"byteLength":7200,"byteStride":4,"target":34962,"extensions":{"EXT_meshopt_compression":{"buffer":0,"byteOffset":16316,"byteLength":5101,"byteStride":4,"mode":"ATTRIBUTES","count":1800}}},{"buffer":1,"byteOffset":28800,"byteLength":5400,"target":34963,"extensions":{"EXT_meshopt_compression":{"buffer":0,"byteOffset":21420,"byteLength":917,"byteStride":2,"mode":"TRIANGLES","count":2700}}}],"accessors":[{"bufferView":0,"byteOffset":0,"componentType":5123,"count":1800,"type":"VEC3","min":[0,0,0],"max":[15964,13187,16383]},{"bufferView":1,"byteOffset":0,"componentType":5120,"count":1800,"type":"VEC3","normalized":true},{"bufferView":2,"byteOffset":0,"componentType":5123,"count":1800,"type":"VEC2","normalized":true},{"bufferView":3,"byteOffset":0,"componentType":5123,"count":2700,"type":"SCALAR"}],"samplers":[{"magFilter":9729,"minFilter":9987}],"images":[{"name":"Leaves_TwistedTree_C","uri":"Leaves_TwistedTree_C.ktx2"}],"textures":[{"sampler":0,"extensions":{"KHR_texture_basisu":{"source":0}}}],"materials":[{"name":"Leaves_TwistedTree","pbrMetallicRoughness":{"baseColorTexture":{"index":0,"extensions":{"KHR_texture_transform":{"offset":[0.000490000006,0.000490009785],"scale":[15.9879789,15.9879789]}}},"metallicFactor":0},"alphaMode":"MASK","alphaCutoff":0.200000003,"doubleSided":true}],"meshes":[{"primitives":[{"attributes":{"POSITION":0,"NORMAL":1,"TEXCOORD_0":2},"indices":3,"material":0}]}],"nodes":[{"mesh":0,"translation":[-0.92347616,-0.234694704,-0.974389195],"scale":[0.000119949997,0.000119949997,0.000119949997]}],"scenes":[{"name":"Scene","nodes":[0]}],"scene":0}