{"asset":{"version":"2.0","generator":"gltfpack 1.0"},"extensionsUsed":["KHR_mesh_quantization","EXT_meshopt_compression","KHR_texture_transform","KHR_texture_basisu"],"extensionsRequired":["KHR_mesh_quantization","EXT_meshopt_compression","KHR_texture_basisu"],"buffers":[{"uri":"Clover_1.bin","byteLength":3712},{"byteLength":7616,"extensions":{"EXT_meshopt_compression":{"fallback":true}}}],"bufferViews":[{"buffer":1,"byteOffset":0,"byteLength":1068,"byteStride":4,"target":34962,"extensions":{"EXT_meshopt_compression":{"buffer":0,"byteOffset":0,"byteLength":227,"byteStride":4,"mode":"ATTRIBUTES","count":267}}},{"buffer":1,"byteOffset":1068,"byteLength":2136,"byteStride":8,"target":34962,"extensions":{"EXT_meshopt_compression":{"buffer":0,"byteOffset":228,"byteLength":1364,"byteStride":8,"mode":"ATTRIBUTES","count":267}}},{"buffer":1,"byteOffset":3204,"byteLength":1068,"byteStride":4,"target":34962,"extensions":{"EXT_meshopt_compression":{"buffer":0,"byteOffset":1592,"byteLength":860,"byteStride":4,"mode":"ATTRIBUTES","count":267}}},{"buffer":1,"byteOffset":4272,"byteLength":1068,"byteStride":4,"target":34962,"extensions":{"EXT_meshopt_compression":{"buffer":0,"byteOffset":2452,"byteLength":837,"byteStride":4,"mode":"ATTRIBUTES","count":267}}},{"buffer":1,"byteOffset":5340,"byteLength":2274,"target":34963,"extensions":{"EXT_meshopt_compression":{"buffer":0,"byteOffset":3292,"byteLength":417,"byteStride":2,"mode":"TRIANGLES","count":1137}}}],"accessors":[{"bufferView":0,"byteOffset":0,"componentType":5121,"count":267,"type":"VEC4","normalized":true},{"bufferView":1,"byteOffset":0,"componentType":5123,"count":267,"type":"VEC3","min":[0,0,0],"max":[11396,16383,10932]},{"bufferView":2,"byteOffset":0,"componentType":5120,"count":267,"type":"VEC3","normalized":true},{"bufferView":3,"byteOffset":0,"componentType":5123,"count":267,"type":"VEC2","normalized":true},{"bufferView":4,"byteOffset":0,"componentType":5123,"count":1137,"type":"SCALAR"}],"samplers":[{"magFilter":9729,"minFilter":9987}],"images":[{"name":"Leaves","uri":"Leaves.ktx2"}],"textures":[{"sampler":0,"extensions":{"KHR_texture_basisu":{"source":0}}}],"materials":[{"name":"Leaves","pbrMetallicRoughness":{"baseColorTexture":{"index":0,"extensions":{"KHR_texture_transform":{"offset":[0.611938715,0.57990396],"scale":[2.29458404,1.9202565]}}},"metallicFactor":0},"alphaMode":"MASK","alphaCutoff":0.200000003,"doubleSided":true}],"meshes":[{"primitives":[{"attributes":{"COLOR_0":0,"POSITION":1,"NORMAL":2,"TEXCOORD_0":3},"indices":4,"material":0}]}],"nodes":[{"mesh":0,"translation":[-0.502298236,-0.0127921915,-0.399561971],"scale":[6.98731892e-05,6.98731892e-05,6.98731892e-05]}],"scenes":[{"name":"Scene","nodes":[0]}],"scene":0}