{"asset":{"version":"2.0","generator":"gltfpack 1.0"},"extensionsUsed":["KHR_mesh_quantization","EXT_meshopt_compression","KHR_texture_transform","KHR_texture_basisu"],"extensionsRequired":["KHR_mesh_quantization","EXT_meshopt_compression","KHR_texture_basisu"],"buffers":[{"uri":"CommonTree_5.bin","byteLength":43216},{"byteLength":84872,"extensions":{"EXT_meshopt_compression":{"fallback":true}}}],"bufferViews":[{"buffer":1,"byteOffset":0,"byteLength":4836,"byteStride":4,"target":34962,"extensions":{"EXT_meshopt_compression":{"buffer":0,"byteOffset":0,"byteLength":806,"byteStride":4,"mode":"ATTRIBUTES","count":1209}}},{"buffer":1,"byteOffset":4836,"byteLength":30472,"byteStride":8,"target":34962,"extensions":{"EXT_meshopt_compression":{"buffer":0,"byteOffset":808,"byteLength":18548,"byteStride":8,"mode":"ATTRIBUTES","count":3809}}},{"buffer":1,"byteOffset":35308,"byteLength":15236,"byteStride":4,"target":34962,"extensions":{"EXT_meshopt_compression":{"buffer":0,"byteOffset":19356,"byteLength":11707,"byteStride":4,"mode":"ATTRIBUTES","count":3809}}},{"buffer":1,"byteOffset":50544,"byteLength":15236,"byteStride":4,"target":34962,"extensions":{"EXT_meshopt_compression":{"buffer":0,"byteOffset":31064,"byteLength":8727,"byteStride":4,"mode":"ATTRIBUTES","count":3809}}},{"buffer":1,"byteOffset":65780,"byteLength":19092,"target":34963,"extensions":{"EXT_meshopt_compression":{"buffer":0,"byteOffset":39792,"byteLength":3421,"byteStride":2,"mode":"TRIANGLES","count":9546}}}],"accessors":[{"bufferView":0,"byteOffset":0,"componentType":5121,"count":1209,"type":"VEC4","normalized":true},{"bufferView":1,"byteOffset":0,"componentType":5123,"count":1209,"type":"VEC3","min":[2377,0,2904],"max":[6591,13320,6939]},{"bufferView":2,"byteOffset":0,"componentType":5120,"count":1209,"type":"VEC3","normalized":true},{"bufferView":3,"byteOffset":0,"componentType":5123,"count":1209,"type":"VEC2","normalized":true},{"bufferView":4,"byteOffset":0,"componentType":5123,"count":5646,"type":"SCALAR"},{"bufferView":1,"byteOffset":9672,"componentType":5123,"count":2600,"type":"VEC3","min":[0,6078,0],"max":[8584,16383,9867]},{"bufferView":2,"byteOffset":4836,"componentType":5120,"count":2600,"type":"VEC3","normalized":true},{"bufferView":3,"byteOffset":4836,"componentType":5123,"count":2600,"type":"VEC2","normalized":true},{"bufferView":4,"byteOffset":11292,"componentType":5123,"count":3900,"type":"SCALAR"}],"samplers":[{"magFilter":9729,"minFilter":9987}],"images":[{"name":"Bark_NormalTree_Normal","uri":"Bark_NormalTree_Normal.ktx2"},{"name":"Bark_NormalTree","uri":"Bark_NormalTree.ktx2"},{"name":"Leaves_NormalTree_C","uri":"Leaves_NormalTree_C.ktx2"}],"textures":[{"sampler":0,"extensions":{"KHR_texture_basisu":{"source":0}}},{"sampler":0,"extensions":{"KHR_texture_basisu":{"source":1}}},{"sampler":0,"extensions":{"KHR_texture_basisu":{"source":2}}}],"materials":[{"name":"Bark_NormalTree","pbrMetallicRoughness":{"baseColorTexture":{"index":1,"extensions":{"KHR_texture_transform":{"offset":[0.000239999994,-7.67193031],"scale":[15.9959803,138.778793]}}},"metallicFactor":0},"normalTexture":{"index":0,"extensions":{"KHR_texture_transform":{"offset":[0.000239999994,-7.67193031],"scale":[15.9959803,138.778793]}}},"alphaMode":"MASK","alphaCutoff":0.200000003,"doubleSided":true},{"name":"Leaves_NormalTree","pbrMetallicRoughness":{"baseColorTexture":{"index":2,"extensions":{"KHR_texture_transform":{"offset":[0.000490000006,0.000490009785],"scale":[31.97612,31.9761181]}}},"metallicFactor":0},"alphaMode":"MASK","alphaCutoff":0.200000003,"doubleSided":true}],"meshes":[{"primitives":[{"attributes":{"COLOR_0":0,"POSITION":1,"NORMAL":2,"TEXCOORD_0":3},"indices":4,"material":0},{"attributes":{"POSITION":5,"NORMAL":6,"TEXCOORD_0":7},"indices":8,"material":1}]}],"nodes":[{"mesh":0,"translation":[-1.91235459,-0.242772013,-2.16244793],"scale":[0.000427653053,0.000427653053,0.000427653053]}],"scenes":[{"name":"Scene","nodes":[0]}],"scene":0}