{"asset":{"version":"2.0","generator":"gltfpack 1.0"},"extensionsUsed":["KHR_mesh_quantization","EXT_meshopt_compression","KHR_texture_transform","KHR_texture_basisu"],"extensionsRequired":["KHR_mesh_quantization","EXT_meshopt_compression","KHR_texture_basisu"],"buffers":[{"uri":"CommonTree_4.bin","byteLength":42364},{"byteLength":92428,"extensions":{"EXT_meshopt_compression":{"fallback":true}}}],"bufferViews":[{"buffer":1,"byteOffset":0,"byteLength":8576,"byteStride":4,"target":34962,"extensions":{"EXT_meshopt_compression":{"buffer":0,"byteOffset":0,"byteLength":874,"byteStride":4,"mode":"ATTRIBUTES","count":2144}}},{"buffer":1,"byteOffset":8576,"byteLength":29728,"byteStride":8,"target":34962,"extensions":{"EXT_meshopt_compression":{"buffer":0,"byteOffset":876,"byteLength":15851,"byteStride":8,"mode":"ATTRIBUTES","count":3716}}},{"buffer":1,"byteOffset":38304,"byteLength":14864,"byteStride":4,"target":34962,"extensions":{"EXT_meshopt_compression":{"buffer":0,"byteOffset":16728,"byteLength":11392,"byteStride":4,"mode":"ATTRIBUTES","count":3716}}},{"buffer":1,"byteOffset":53168,"byteLength":14864,"byteStride":4,"target":34962,"extensions":{"EXT_meshopt_compression":{"buffer":0,"byteOffset":28120,"byteLength":9855,"byteStride":4,"mode":"ATTRIBUTES","count":3716}}},{"buffer":1,"byteOffset":68032,"byteLength":24396,"target":34963,"extensions":{"EXT_meshopt_compression":{"buffer":0,"byteOffset":37976,"byteLength":4388,"byteStride":2,"mode":"TRIANGLES","count":12198}}}],"accessors":[{"bufferView":0,"byteOffset":0,"componentType":5121,"count":2144,"type":"VEC4","normalized":true},{"bufferView":1,"byteOffset":0,"componentType":5123,"count":2144,"type":"VEC3","min":[1093,0,1505],"max":[5266,14234,5440]},{"bufferView":2,"byteOffset":0,"componentType":5120,"count":2144,"type":"VEC3","normalized":true},{"bufferView":3,"byteOffset":0,"componentType":5123,"count":2144,"type":"VEC2","normalized":true},{"bufferView":4,"byteOffset":0,"componentType":5123,"count":9840,"type":"SCALAR"},{"bufferView":1,"byteOffset":17152,"componentType":5123,"count":1572,"type":"VEC3","min":[0,10504,0],"max":[6640,16383,6519]},{"bufferView":2,"byteOffset":8576,"componentType":5120,"count":1572,"type":"VEC3","normalized":true},{"bufferView":3,"byteOffset":8576,"componentType":5123,"count":1572,"type":"VEC2","normalized":true},{"bufferView":4,"byteOffset":19680,"componentType":5123,"count":2358,"type":"SCALAR"}],"samplers":[{"magFilter":9729,"minFilter":9987}],"images":[{"name":"Bark_NormalTree_Normal","uri":"Bark_NormalTree_Normal.ktx2"},{"name":"Bark_NormalTree","uri":"Bark_NormalTree.ktx2"},{"name":"Leaves_NormalTree_C","uri":"Leaves_NormalTree_C.ktx2"}],"textures":[{"sampler":0,"extensions":{"KHR_texture_basisu":{"source":0}}},{"sampler":0,"extensions":{"KHR_texture_basisu":{"source":1}}},{"sampler":0,"extensions":{"KHR_texture_basisu":{"source":2}}}],"materials":[{"name":"Bark_NormalTree","pbrMetallicRoughness":{"baseColorTexture":{"index":1,"extensions":{"KHR_texture_transform":{"offset":[0.000239999994,-13.2195396],"scale":[15.9959803,227.560867]}}},"metallicFactor":0},"normalTexture":{"index":0,"extensions":{"KHR_texture_transform":{"offset":[0.000239999994,-13.2195396],"scale":[15.9959803,227.560867]}}},"alphaMode":"MASK","alphaCutoff":0.200000003,"doubleSided":true},{"name":"Leaves_NormalTree","pbrMetallicRoughness":{"baseColorTexture":{"index":2,"extensions":{"KHR_texture_transform":{"offset":[0.000490000006,0.000490009785],"scale":[15.9879789,15.9879789]}}},"metallicFactor":0},"alphaMode":"MASK","alphaCutoff":0.200000003,"doubleSided":true}],"meshes":[{"primitives":[{"attributes":{"COLOR_0":0,"POSITION":1,"NORMAL":2,"TEXCOORD_0":3},"indices":4,"material":0},{"attributes":{"POSITION":5,"NORMAL":6,"TEXCOORD_0":7},"indices":8,"material":1}]}],"nodes":[{"mesh":0,"translation":[-1.7970953,-0.242772013,-2.07961035],"scale":[0.000576108228,0.000576108228,0.000576108228]}],"scenes":[{"name":"Scene","nodes":[0]}],"scene":0}