{"asset":{"version":"2.0","generator":"gltfpack 1.0"},"extensionsUsed":["KHR_mesh_quantization","EXT_meshopt_compression","KHR_texture_transform","KHR_texture_basisu"],"extensionsRequired":["KHR_mesh_quantization","EXT_meshopt_compression","KHR_texture_basisu"],"buffers":[{"uri":"CommonTree_3.bin","byteLength":54260},{"byteLength":100932,"extensions":{"EXT_meshopt_compression":{"fallback":true}}}],"bufferViews":[{"buffer":1,"byteOffset":0,"byteLength":4460,"byteStride":4,"target":34962,"extensions":{"EXT_meshopt_compression":{"buffer":0,"byteOffset":0,"byteLength":716,"byteStride":4,"mode":"ATTRIBUTES","count":1115}}},{"buffer":1,"byteOffset":4460,"byteLength":37720,"byteStride":8,"target":34962,"extensions":{"EXT_meshopt_compression":{"buffer":0,"byteOffset":716,"byteLength":22574,"byteStride":8,"mode":"ATTRIBUTES","count":4715}}},{"buffer":1,"byteOffset":42180,"byteLength":18860,"byteStride":4,"target":34962,"extensions":{"EXT_meshopt_compression":{"buffer":0,"byteOffset":23292,"byteLength":14474,"byteStride":4,"mode":"ATTRIBUTES","count":4715}}},{"buffer":1,"byteOffset":61040,"byteLength":18860,"byteStride":4,"target":34962,"extensions":{"EXT_meshopt_compression":{"buffer":0,"byteOffset":37768,"byteLength":12816,"byteStride":4,"mode":"ATTRIBUTES","count":4715}}},{"buffer":1,"byteOffset":79900,"byteLength":21030,"target":34963,"extensions":{"EXT_meshopt_compression":{"buffer":0,"byteOffset":50584,"byteLength":3675,"byteStride":2,"mode":"TRIANGLES","count":10515}}}],"accessors":[{"bufferView":0,"byteOffset":0,"componentType":5121,"count":1115,"type":"VEC4","normalized":true},{"bufferView":1,"byteOffset":0,"componentType":5123,"count":1115,"type":"VEC3","min":[1978,0,2162],"max":[5266,14289,5499]},{"bufferView":2,"byteOffset":0,"componentType":5120,"count":1115,"type":"VEC3","normalized":true},{"bufferView":3,"byteOffset":0,"componentType":5123,"count":1115,"type":"VEC2","normalized":true},{"bufferView":4,"byteOffset":0,"componentType":5123,"count":5115,"type":"SCALAR"},{"bufferView":1,"byteOffset":8920,"componentType":5123,"count":3600,"type":"VEC3","min":[0,4900,0],"max":[7062,16383,7372]},{"bufferView":2,"byteOffset":4460,"componentType":5120,"count":3600,"type":"VEC3","normalized":true},{"bufferView":3,"byteOffset":4460,"componentType":5123,"count":3600,"type":"VEC2","normalized":true},{"bufferView":4,"byteOffset":10230,"componentType":5123,"count":5400,"type":"SCALAR"}],"samplers":[{"magFilter":9729,"minFilter":9987}],"images":[{"name":"Bark_NormalTree_Normal","uri":"Bark_NormalTree_Normal.ktx2"},{"name":"Bark_NormalTree","uri":"Bark_NormalTree.ktx2"},{"name":"Leaves_NormalTree_C","uri":"Leaves_NormalTree_C.ktx2"}],"textures":[{"sampler":0,"extensions":{"KHR_texture_basisu":{"source":0}}},{"sampler":0,"extensions":{"KHR_texture_basisu":{"source":1}}},{"sampler":0,"extensions":{"KHR_texture_basisu":{"source":2}}}],"materials":[{"name":"Bark_NormalTree","pbrMetallicRoughness":{"baseColorTexture":{"index":1,"extensions":{"KHR_texture_transform":{"offset":[0.000239999994,-11.1860399],"scale":[15.9959803,195.017426]}}},"metallicFactor":0},"normalTexture":{"index":0,"extensions":{"KHR_texture_transform":{"offset":[0.000239999994,-11.1860399],"scale":[15.9959803,195.017426]}}},"alphaMode":"MASK","alphaCutoff":0.200000003,"doubleSided":true},{"name":"Leaves_NormalTree","pbrMetallicRoughness":{"baseColorTexture":{"index":2,"extensions":{"KHR_texture_transform":{"offset":[0.000490000006,0.000490009785],"scale":[15.9879789,15.9879789]}}},"metallicFactor":0},"alphaMode":"MASK","alphaCutoff":0.200000003,"doubleSided":true}],"meshes":[{"primitives":[{"attributes":{"COLOR_0":0,"POSITION":1,"NORMAL":2,"TEXCOORD_0":3},"indices":4,"material":0},{"attributes":{"POSITION":5,"NORMAL":6,"TEXCOORD_0":7},"indices":8,"material":1}]}],"nodes":[{"mesh":0,"translation":[-1.98646522,-0.242772013,-2.06096554],"scale":[0.000575303042,0.000575303042,0.000575303042]}],"scenes":[{"name":"Scene","nodes":[0]}],"scene":0}