{"asset":{"version":"2.0","generator":"gltfpack 1.0"},"extensionsUsed":["KHR_mesh_quantization","EXT_meshopt_compression","KHR_texture_transform","KHR_texture_basisu"],"extensionsRequired":["KHR_mesh_quantization","EXT_meshopt_compression","KHR_texture_basisu"],"buffers":[{"uri":"CommonTree_1.bin","byteLength":77724},{"byteLength":156092,"extensions":{"EXT_meshopt_compression":{"fallback":true}}}],"bufferViews":[{"buffer":1,"byteOffset":0,"byteLength":11412,"byteStride":4,"target":34962,"extensions":{"EXT_meshopt_compression":{"buffer":0,"byteOffset":0,"byteLength":834,"byteStride":4,"mode":"ATTRIBUTES","count":2853}}},{"buffer":1,"byteOffset":11412,"byteLength":53544,"byteStride":8,"target":34962,"extensions":{"EXT_meshopt_compression":{"buffer":0,"byteOffset":836,"byteLength":31660,"byteStride":8,"mode":"ATTRIBUTES","count":6693}}},{"buffer":1,"byteOffset":64956,"byteLength":26772,"byteStride":4,"target":34962,"extensions":{"EXT_meshopt_compression":{"buffer":0,"byteOffset":32496,"byteLength":20505,"byteStride":4,"mode":"ATTRIBUTES","count":6693}}},{"buffer":1,"byteOffset":91728,"byteLength":26772,"byteStride":4,"target":34962,"extensions":{"EXT_meshopt_compression":{"buffer":0,"byteOffset":53004,"byteLength":18011,"byteStride":4,"mode":"ATTRIBUTES","count":6693}}},{"buffer":1,"byteOffset":118500,"byteLength":37590,"target":34963,"extensions":{"EXT_meshopt_compression":{"buffer":0,"byteOffset":71016,"byteLength":6708,"byteStride":2,"mode":"TRIANGLES","count":18795}}}],"accessors":[{"bufferView":0,"byteOffset":0,"componentType":5121,"count":2853,"type":"VEC4","normalized":true},{"bufferView":1,"byteOffset":0,"componentType":5123,"count":2853,"type":"VEC3","min":[1884,0,2477],"max":[7809,15169,8072]},{"bufferView":2,"byteOffset":0,"componentType":5120,"count":2853,"type":"VEC3","normalized":true},{"bufferView":3,"byteOffset":0,"componentType":5123,"count":2853,"type":"VEC2","normalized":true},{"bufferView":4,"byteOffset":0,"componentType":5123,"count":13035,"type":"SCALAR"},{"bufferView":1,"byteOffset":22824,"componentType":5123,"count":3840,"type":"VEC3","min":[0,5839,0],"max":[9723,16383,10323]},{"bufferView":2,"byteOffset":11412,"componentType":5120,"count":3840,"type":"VEC3","normalized":true},{"bufferView":3,"byteOffset":11412,"componentType":5123,"count":3840,"type":"VEC2","normalized":true},{"bufferView":4,"byteOffset":26070,"componentType":5123,"count":5760,"type":"SCALAR"}],"samplers":[{"magFilter":9729,"minFilter":9987}],"images":[{"name":"Bark_NormalTree_Normal","uri":"Bark_NormalTree_Normal.ktx2"},{"name":"Bark_NormalTree","uri":"Bark_NormalTree.ktx2"},{"name":"Leaves_NormalTree_C","uri":"Leaves_NormalTree_C.ktx2"}],"textures":[{"sampler":0,"extensions":{"KHR_texture_basisu":{"source":0}}},{"sampler":0,"extensions":{"KHR_texture_basisu":{"source":1}}},{"sampler":0,"extensions":{"KHR_texture_basisu":{"source":2}}}],"materials":[{"name":"Bark_NormalTree","pbrMetallicRoughness":{"baseColorTexture":{"index":1,"extensions":{"KHR_texture_transform":{"offset":[0.000239999994,-10.3218403],"scale":[15.9959803,181.187073]}}},"metallicFactor":0},"normalTexture":{"index":0,"extensions":{"KHR_texture_transform":{"offset":[0.000239999994,-10.3218403],"scale":[15.9959803,181.187073]}}},"alphaMode":"MASK","alphaCutoff":0.200000003,"doubleSided":true},{"name":"Leaves_NormalTree","pbrMetallicRoughness":{"baseColorTexture":{"index":2,"extensions":{"KHR_texture_transform":{"offset":[0.000490000006,0.000490009785],"scale":[15.9879789,15.9879789]}}},"metallicFactor":0},"alphaMode":"MASK","alphaCutoff":0.200000003,"doubleSided":true}],"meshes":[{"primitives":[{"attributes":{"COLOR_0":0,"POSITION":1,"NORMAL":2,"TEXCOORD_0":3},"indices":4,"material":0},{"attributes":{"POSITION":5,"NORMAL":6,"TEXCOORD_0":7},"indices":8,"material":1}]}],"nodes":[{"mesh":0,"translation":[-2.19445872,-0.242772013,-2.22451901],"scale":[0.000443434372,0.000443434372,0.000443434372]}],"scenes":[{"name":"Scene","nodes":[0]}],"scene":0}