{"asset":{"version":"2.0","generator":"gltfpack 1.0"},"extensionsUsed":["KHR_mesh_quantization","EXT_meshopt_compression","KHR_texture_transform","KHR_texture_basisu"],"extensionsRequired":["KHR_mesh_quantization","EXT_meshopt_compression","KHR_texture_basisu"],"buffers":[{"uri":"CommonTree_2.bin","byteLength":63888},{"byteLength":132924,"extensions":{"EXT_meshopt_compression":{"fallback":true}}}],"bufferViews":[{"buffer":1,"byteOffset":0,"byteLength":11244,"byteStride":4,"target":34962,"extensions":{"EXT_meshopt_compression":{"buffer":0,"byteOffset":0,"byteLength":857,"byteStride":4,"mode":"ATTRIBUTES","count":2811}}},{"buffer":1,"byteOffset":11244,"byteLength":43896,"byteStride":8,"target":34962,"extensions":{"EXT_meshopt_compression":{"buffer":0,"byteOffset":860,"byteLength":25292,"byteStride":8,"mode":"ATTRIBUTES","count":5487}}},{"buffer":1,"byteOffset":55140,"byteLength":21948,"byteStride":4,"target":34962,"extensions":{"EXT_meshopt_compression":{"buffer":0,"byteOffset":26152,"byteLength":16827,"byteStride":4,"mode":"ATTRIBUTES","count":5487}}},{"buffer":1,"byteOffset":77088,"byteLength":21948,"byteStride":4,"target":34962,"extensions":{"EXT_meshopt_compression":{"buffer":0,"byteOffset":42980,"byteLength":14802,"byteStride":4,"mode":"ATTRIBUTES","count":5487}}},{"buffer":1,"byteOffset":99036,"byteLength":33888,"target":34963,"extensions":{"EXT_meshopt_compression":{"buffer":0,"byteOffset":57784,"byteLength":6102,"byteStride":2,"mode":"TRIANGLES","count":16944}}}],"accessors":[{"bufferView":0,"byteOffset":0,"componentType":5121,"count":2811,"type":"VEC4","normalized":true},{"bufferView":1,"byteOffset":0,"componentType":5123,"count":2811,"type":"VEC3","min":[1698,0,1938],"max":[7648,14941,7331]},{"bufferView":2,"byteOffset":0,"componentType":5120,"count":2811,"type":"VEC3","normalized":true},{"bufferView":3,"byteOffset":0,"componentType":5123,"count":2811,"type":"VEC2","normalized":true},{"bufferView":4,"byteOffset":0,"componentType":5123,"count":12930,"type":"SCALAR"},{"bufferView":1,"byteOffset":22488,"componentType":5123,"count":2676,"type":"VEC3","min":[0,6707,0],"max":[9569,16383,9165]},{"bufferView":2,"byteOffset":11244,"componentType":5120,"count":2676,"type":"VEC3","normalized":true},{"bufferView":3,"byteOffset":11244,"componentType":5123,"count":2676,"type":"VEC2","normalized":true},{"bufferView":4,"byteOffset":25860,"componentType":5123,"count":4014,"type":"SCALAR"}],"samplers":[{"magFilter":9729,"minFilter":9987}],"images":[{"name":"Bark_NormalTree_Normal","uri":"Bark_NormalTree_Normal.ktx2"},{"name":"Bark_NormalTree","uri":"Bark_NormalTree.ktx2"},{"name":"Leaves_NormalTree_C","uri":"Leaves_NormalTree_C.ktx2"}],"textures":[{"sampler":0,"extensions":{"KHR_texture_basisu":{"source":0}}},{"sampler":0,"extensions":{"KHR_texture_basisu":{"source":1}}},{"sampler":0,"extensions":{"KHR_texture_basisu":{"source":2}}}],"materials":[{"name":"Bark_NormalTree","pbrMetallicRoughness":{"baseColorTexture":{"index":1,"extensions":{"KHR_texture_transform":{"offset":[0.000239999994,-9.45234013],"scale":[15.9959803,167.271881]}}},"metallicFactor":0},"normalTexture":{"index":0,"extensions":{"KHR_texture_transform":{"offset":[0.000239999994,-9.45234013],"scale":[15.9959803,167.271881]}}},"alphaMode":"MASK","alphaCutoff":0.200000003,"doubleSided":true},{"name":"Leaves_NormalTree","pbrMetallicRoughness":{"baseColorTexture":{"index":2,"extensions":{"KHR_texture_transform":{"offset":[0.000490000006,0.000490009785],"scale":[15.9879789,15.9879789]}}},"metallicFactor":0},"alphaMode":"MASK","alphaCutoff":0.200000003,"doubleSided":true}],"meshes":[{"primitives":[{"attributes":{"COLOR_0":0,"POSITION":1,"NORMAL":2,"TEXCOORD_0":3},"indices":4,"material":0},{"attributes":{"POSITION":5,"NORMAL":6,"TEXCOORD_0":7},"indices":8,"material":1}]}],"nodes":[{"mesh":0,"translation":[-2.22301364,-0.242772013,-1.85146976],"scale":[0.000466519909,0.000466519909,0.000466519909]}],"scenes":[{"name":"Scene","nodes":[0]}],"scene":0}