{"asset":{"version":"2.0","generator":"gltfpack 1.0"},"extensionsUsed":["KHR_mesh_quantization","EXT_meshopt_compression","KHR_texture_transform","KHR_texture_basisu"],"extensionsRequired":["KHR_mesh_quantization","EXT_meshopt_compression","KHR_texture_basisu"],"buffers":[{"uri":"DeadTree_1.bin","byteLength":48496},{"byteLength":120116,"extensions":{"EXT_meshopt_compression":{"fallback":true}}}],"bufferViews":[{"buffer":1,"byteOffset":0,"byteLength":16620,"byteStride":4,"target":34962,"extensions":{"EXT_meshopt_compression":{"buffer":0,"byteOffset":0,"byteLength":875,"byteStride":4,"mode":"ATTRIBUTES","count":4155}}},{"buffer":1,"byteOffset":16620,"byteLength":33240,"byteStride":8,"target":34962,"extensions":{"EXT_meshopt_compression":{"buffer":0,"byteOffset":876,"byteLength":17129,"byteStride":8,"mode":"ATTRIBUTES","count":4155}}},{"buffer":1,"byteOffset":49860,"byteLength":16620,"byteStride":4,"target":34962,"extensions":{"EXT_meshopt_compression":{"buffer":0,"byteOffset":18008,"byteLength":12756,"byteStride":4,"mode":"ATTRIBUTES","count":4155}}},{"buffer":1,"byteOffset":66480,"byteLength":16620,"byteStride":4,"target":34962,"extensions":{"EXT_meshopt_compression":{"buffer":0,"byteOffset":30764,"byteLength":10973,"byteStride":4,"mode":"ATTRIBUTES","count":4155}}},{"buffer":1,"byteOffset":83100,"byteLength":37014,"target":34963,"extensions":{"EXT_meshopt_compression":{"buffer":0,"byteOffset":41740,"byteLength":6753,"byteStride":2,"mode":"TRIANGLES","count":18507}}}],"accessors":[{"bufferView":0,"byteOffset":0,"componentType":5121,"count":4155,"type":"VEC4","normalized":true},{"bufferView":1,"byteOffset":0,"componentType":5123,"count":4155,"type":"VEC3","min":[0,0,0],"max":[10609,16383,9918]},{"bufferView":2,"byteOffset":0,"componentType":5120,"count":4155,"type":"VEC3","normalized":true},{"bufferView":3,"byteOffset":0,"componentType":5123,"count":4155,"type":"VEC2","normalized":true},{"bufferView":4,"byteOffset":0,"componentType":5123,"count":18507,"type":"SCALAR"}],"samplers":[{"magFilter":9729,"minFilter":9987}],"images":[{"name":"Bark_DeadTree_Normal","uri":"Bark_DeadTree_Normal.ktx2"},{"name":"Bark_DeadTree","uri":"Bark_DeadTree.ktx2"}],"textures":[{"sampler":0,"extensions":{"KHR_texture_basisu":{"source":0}}},{"sampler":0,"extensions":{"KHR_texture_basisu":{"source":1}}}],"materials":[{"name":"Bark_DeadTree","pbrMetallicRoughness":{"baseColorTexture":{"index":1,"extensions":{"KHR_texture_transform":{"offset":[0.000239999994,-10.8234396],"scale":[15.9959803,189.214493]}}},"metallicFactor":0},"normalTexture":{"index":0,"extensions":{"KHR_texture_transform":{"offset":[0.000239999994,-10.8234396],"scale":[15.9959803,189.214493]}}},"doubleSided":true}],"meshes":[{"primitives":[{"attributes":{"COLOR_0":0,"POSITION":1,"NORMAL":2,"TEXCOORD_0":3},"indices":4,"material":0}]}],"nodes":[{"mesh":0,"translation":[-2.59232378,-0.3355546,-2.90349984],"scale":[0.000579593354,0.000579593354,0.000579593354]}],"scenes":[{"name":"Scene","nodes":[0]}],"scene":0}