{"asset":{"version":"2.0","generator":"gltfpack 1.0"},"extensionsUsed":["KHR_mesh_quantization","EXT_meshopt_compression","KHR_texture_transform","KHR_texture_basisu"],"extensionsRequired":["KHR_mesh_quantization","EXT_meshopt_compression","KHR_texture_basisu"],"buffers":[{"uri":"DeadTree_5.bin","byteLength":46412},{"byteLength":114768,"extensions":{"EXT_meshopt_compression":{"fallback":true}}}],"bufferViews":[{"buffer":1,"byteOffset":0,"byteLength":16176,"byteStride":4,"target":34962,"extensions":{"EXT_meshopt_compression":{"buffer":0,"byteOffset":0,"byteLength":742,"byteStride":4,"mode":"ATTRIBUTES","count":4044}}},{"buffer":1,"byteOffset":16176,"byteLength":32352,"byteStride":8,"target":34962,"extensions":{"EXT_meshopt_compression":{"buffer":0,"byteOffset":744,"byteLength":16528,"byteStride":8,"mode":"ATTRIBUTES","count":4044}}},{"buffer":1,"byteOffset":48528,"byteLength":16176,"byteStride":4,"target":34962,"extensions":{"EXT_meshopt_compression":{"buffer":0,"byteOffset":17272,"byteLength":12377,"byteStride":4,"mode":"ATTRIBUTES","count":4044}}},{"buffer":1,"byteOffset":64704,"byteLength":16176,"byteStride":4,"target":34962,"extensions":{"EXT_meshopt_compression":{"buffer":0,"byteOffset":29652,"byteLength":10526,"byteStride":4,"mode":"ATTRIBUTES","count":4044}}},{"buffer":1,"byteOffset":80880,"byteLength":33888,"target":34963,"extensions":{"EXT_meshopt_compression":{"buffer":0,"byteOffset":40180,"byteLength":6232,"byteStride":2,"mode":"TRIANGLES","count":16944}}}],"accessors":[{"bufferView":0,"byteOffset":0,"componentType":5121,"count":4044,"type":"VEC4","normalized":true},{"bufferView":1,"byteOffset":0,"componentType":5123,"count":4044,"type":"VEC3","min":[0,0,0],"max":[8329,16383,8385]},{"bufferView":2,"byteOffset":0,"componentType":5120,"count":4044,"type":"VEC3","normalized":true},{"bufferView":3,"byteOffset":0,"componentType":5123,"count":4044,"type":"VEC2","normalized":true},{"bufferView":4,"byteOffset":0,"componentType":5123,"count":16944,"type":"SCALAR"}],"samplers":[{"magFilter":9729,"minFilter":9987}],"images":[{"name":"Bark_DeadTree_Normal","uri":"Bark_DeadTree_Normal.ktx2"},{"name":"Bark_DeadTree","uri":"Bark_DeadTree.ktx2"}],"textures":[{"sampler":0,"extensions":{"KHR_texture_basisu":{"source":0}}},{"sampler":0,"extensions":{"KHR_texture_basisu":{"source":1}}}],"materials":[{"name":"Bark_DeadTree","pbrMetallicRoughness":{"baseColorTexture":{"index":1,"extensions":{"KHR_texture_transform":{"offset":[0.000239999994,-17.1241798],"scale":[15.9959803,290.049408]}}},"metallicFactor":0},"normalTexture":{"index":0,"extensions":{"KHR_texture_transform":{"offset":[0.000239999994,-17.1241798],"scale":[15.9959803,290.049408]}}},"doubleSided":true}],"meshes":[{"primitives":[{"attributes":{"COLOR_0":0,"POSITION":1,"NORMAL":2,"TEXCOORD_0":3},"indices":4,"material":0}]}],"nodes":[{"mesh":0,"translation":[-3.97053289,-0.3355546,-4.79723072],"scale":[0.0010033194,0.0010033194,0.0010033194]}],"scenes":[{"name":"Scene","nodes":[0]}],"scene":0}