{"asset":{"version":"2.0","generator":"gltfpack 1.0"},"extensionsUsed":["KHR_mesh_quantization","EXT_meshopt_compression","KHR_texture_transform","KHR_texture_basisu"],"extensionsRequired":["KHR_mesh_quantization","EXT_meshopt_compression","KHR_texture_basisu"],"buffers":[{"uri":"DeadTree_3.bin","byteLength":47272},{"byteLength":117752,"extensions":{"EXT_meshopt_compression":{"fallback":true}}}],"bufferViews":[{"buffer":1,"byteOffset":0,"byteLength":16588,"byteStride":4,"target":34962,"extensions":{"EXT_meshopt_compression":{"buffer":0,"byteOffset":0,"byteLength":752,"byteStride":4,"mode":"ATTRIBUTES","count":4147}}},{"buffer":1,"byteOffset":16588,"byteLength":33176,"byteStride":8,"target":34962,"extensions":{"EXT_meshopt_compression":{"buffer":0,"byteOffset":752,"byteLength":16749,"byteStride":8,"mode":"ATTRIBUTES","count":4147}}},{"buffer":1,"byteOffset":49764,"byteLength":16588,"byteStride":4,"target":34962,"extensions":{"EXT_meshopt_compression":{"buffer":0,"byteOffset":17504,"byteLength":12685,"byteStride":4,"mode":"ATTRIBUTES","count":4147}}},{"buffer":1,"byteOffset":66352,"byteLength":16588,"byteStride":4,"target":34962,"extensions":{"EXT_meshopt_compression":{"buffer":0,"byteOffset":30192,"byteLength":10698,"byteStride":4,"mode":"ATTRIBUTES","count":4147}}},{"buffer":1,"byteOffset":82940,"byteLength":34812,"target":34963,"extensions":{"EXT_meshopt_compression":{"buffer":0,"byteOffset":40892,"byteLength":6378,"byteStride":2,"mode":"TRIANGLES","count":17406}}}],"accessors":[{"bufferView":0,"byteOffset":0,"componentType":5121,"count":4147,"type":"VEC4","normalized":true},{"bufferView":1,"byteOffset":0,"componentType":5123,"count":4147,"type":"VEC3","min":[0,0,0],"max":[7880,16383,7932]},{"bufferView":2,"byteOffset":0,"componentType":5120,"count":4147,"type":"VEC3","normalized":true},{"bufferView":3,"byteOffset":0,"componentType":5123,"count":4147,"type":"VEC2","normalized":true},{"bufferView":4,"byteOffset":0,"componentType":5123,"count":17406,"type":"SCALAR"}],"samplers":[{"magFilter":9729,"minFilter":9987}],"images":[{"name":"Bark_DeadTree_Normal","uri":"Bark_DeadTree_Normal.ktx2"},{"name":"Bark_DeadTree","uri":"Bark_DeadTree.ktx2"}],"textures":[{"sampler":0,"extensions":{"KHR_texture_basisu":{"source":0}}},{"sampler":0,"extensions":{"KHR_texture_basisu":{"source":1}}}],"materials":[{"name":"Bark_DeadTree","pbrMetallicRoughness":{"baseColorTexture":{"index":1,"extensions":{"KHR_texture_transform":{"offset":[0.000239999994,-17.3132591],"scale":[15.9959803,293.075378]}}},"metallicFactor":0},"normalTexture":{"index":0,"extensions":{"KHR_texture_transform":{"offset":[0.000239999994,-17.3132591],"scale":[15.9959803,293.075378]}}},"doubleSided":true}],"meshes":[{"primitives":[{"attributes":{"COLOR_0":0,"POSITION":1,"NORMAL":2,"TEXCOORD_0":3},"indices":4,"material":0}]}],"nodes":[{"mesh":0,"translation":[-3.8475697,-0.3355546,-3.38670063],"scale":[0.000810619909,0.000810619909,0.000810619909]}],"scenes":[{"name":"Scene","nodes":[0]}],"scene":0}