{"asset":{"version":"2.0","generator":"gltfpack 1.0"},"extensionsUsed":["KHR_mesh_quantization","EXT_meshopt_compression","KHR_texture_transform","KHR_texture_basisu"],"extensionsRequired":["KHR_mesh_quantization","EXT_meshopt_compression","KHR_texture_basisu"],"buffers":[{"uri":"DeadTree_4.bin","byteLength":47044},{"byteLength":115692,"extensions":{"EXT_meshopt_compression":{"fallback":true}}}],"bufferViews":[{"buffer":1,"byteOffset":0,"byteLength":16296,"byteStride":4,"target":34962,"extensions":{"EXT_meshopt_compression":{"buffer":0,"byteOffset":0,"byteLength":809,"byteStride":4,"mode":"ATTRIBUTES","count":4074}}},{"buffer":1,"byteOffset":16296,"byteLength":32592,"byteStride":8,"target":34962,"extensions":{"EXT_meshopt_compression":{"buffer":0,"byteOffset":812,"byteLength":16874,"byteStride":8,"mode":"ATTRIBUTES","count":4074}}},{"buffer":1,"byteOffset":48888,"byteLength":16296,"byteStride":4,"target":34962,"extensions":{"EXT_meshopt_compression":{"buffer":0,"byteOffset":17688,"byteLength":12470,"byteStride":4,"mode":"ATTRIBUTES","count":4074}}},{"buffer":1,"byteOffset":65184,"byteLength":16296,"byteStride":4,"target":34962,"extensions":{"EXT_meshopt_compression":{"buffer":0,"byteOffset":30160,"byteLength":10561,"byteStride":4,"mode":"ATTRIBUTES","count":4074}}},{"buffer":1,"byteOffset":81480,"byteLength":34212,"target":34963,"extensions":{"EXT_meshopt_compression":{"buffer":0,"byteOffset":40724,"byteLength":6320,"byteStride":2,"mode":"TRIANGLES","count":17106}}}],"accessors":[{"bufferView":0,"byteOffset":0,"componentType":5121,"count":4074,"type":"VEC4","normalized":true},{"bufferView":1,"byteOffset":0,"componentType":5123,"count":4074,"type":"VEC3","min":[0,0,0],"max":[10213,16383,9919]},{"bufferView":2,"byteOffset":0,"componentType":5120,"count":4074,"type":"VEC3","normalized":true},{"bufferView":3,"byteOffset":0,"componentType":5123,"count":4074,"type":"VEC2","normalized":true},{"bufferView":4,"byteOffset":0,"componentType":5123,"count":17106,"type":"SCALAR"}],"samplers":[{"magFilter":9729,"minFilter":9987}],"images":[{"name":"Bark_DeadTree_Normal","uri":"Bark_DeadTree_Normal.ktx2"},{"name":"Bark_DeadTree","uri":"Bark_DeadTree.ktx2"}],"textures":[{"sampler":0,"extensions":{"KHR_texture_basisu":{"source":0}}},{"sampler":0,"extensions":{"KHR_texture_basisu":{"source":1}}}],"materials":[{"name":"Bark_DeadTree","pbrMetallicRoughness":{"baseColorTexture":{"index":1,"extensions":{"KHR_texture_transform":{"offset":[0.000239999994,-14.0296602],"scale":[15.9959803,240.525757]}}},"metallicFactor":0},"normalTexture":{"index":0,"extensions":{"KHR_texture_transform":{"offset":[0.000239999994,-14.0296602],"scale":[15.9959803,240.525757]}}},"doubleSided":true}],"meshes":[{"primitives":[{"attributes":{"COLOR_0":0,"POSITION":1,"NORMAL":2,"TEXCOORD_0":3},"indices":4,"material":0}]}],"nodes":[{"mesh":0,"translation":[-3.36276841,-0.3355546,-3.59895039],"scale":[0.000779526134,0.000779526134,0.000779526134]}],"scenes":[{"name":"Scene","nodes":[0]}],"scene":0}