{"asset":{"version":"2.0","generator":"gltfpack 1.0"},"extensionsUsed":["KHR_mesh_quantization","EXT_meshopt_compression","KHR_texture_transform","KHR_texture_basisu"],"extensionsRequired":["KHR_mesh_quantization","EXT_meshopt_compression","KHR_texture_basisu"],"buffers":[{"uri":"DeadTree_2.bin","byteLength":51652},{"byteLength":128444,"extensions":{"EXT_meshopt_compression":{"fallback":true}}}],"bufferViews":[{"buffer":1,"byteOffset":0,"byteLength":17820,"byteStride":4,"target":34962,"extensions":{"EXT_meshopt_compression":{"buffer":0,"byteOffset":0,"byteLength":974,"byteStride":4,"mode":"ATTRIBUTES","count":4455}}},{"buffer":1,"byteOffset":17820,"byteLength":35640,"byteStride":8,"target":34962,"extensions":{"EXT_meshopt_compression":{"buffer":0,"byteOffset":976,"byteLength":18062,"byteStride":8,"mode":"ATTRIBUTES","count":4455}}},{"buffer":1,"byteOffset":53460,"byteLength":17820,"byteStride":4,"target":34962,"extensions":{"EXT_meshopt_compression":{"buffer":0,"byteOffset":19040,"byteLength":13680,"byteStride":4,"mode":"ATTRIBUTES","count":4455}}},{"buffer":1,"byteOffset":71280,"byteLength":17820,"byteStride":4,"target":34962,"extensions":{"EXT_meshopt_compression":{"buffer":0,"byteOffset":32720,"byteLength":11731,"byteStride":4,"mode":"ATTRIBUTES","count":4455}}},{"buffer":1,"byteOffset":89100,"byteLength":39342,"target":34963,"extensions":{"EXT_meshopt_compression":{"buffer":0,"byteOffset":44452,"byteLength":7198,"byteStride":2,"mode":"TRIANGLES","count":19671}}}],"accessors":[{"bufferView":0,"byteOffset":0,"componentType":5121,"count":4455,"type":"VEC4","normalized":true},{"bufferView":1,"byteOffset":0,"componentType":5123,"count":4455,"type":"VEC3","min":[0,0,0],"max":[9597,16383,9096]},{"bufferView":2,"byteOffset":0,"componentType":5120,"count":4455,"type":"VEC3","normalized":true},{"bufferView":3,"byteOffset":0,"componentType":5123,"count":4455,"type":"VEC2","normalized":true},{"bufferView":4,"byteOffset":0,"componentType":5123,"count":19671,"type":"SCALAR"}],"samplers":[{"magFilter":9729,"minFilter":9987}],"images":[{"name":"Bark_DeadTree_Normal","uri":"Bark_DeadTree_Normal.ktx2"},{"name":"Bark_DeadTree","uri":"Bark_DeadTree.ktx2"}],"textures":[{"sampler":0,"extensions":{"KHR_texture_basisu":{"source":0}}},{"sampler":0,"extensions":{"KHR_texture_basisu":{"source":1}}}],"materials":[{"name":"Bark_DeadTree","pbrMetallicRoughness":{"baseColorTexture":{"index":1,"extensions":{"KHR_texture_transform":{"offset":[0.000239999994,-12.8733597],"scale":[15.9959803,222.020721]}}},"metallicFactor":0},"normalTexture":{"index":0,"extensions":{"KHR_texture_transform":{"offset":[0.000239999994,-12.8733597],"scale":[15.9959803,222.020721]}}},"doubleSided":true}],"meshes":[{"primitives":[{"attributes":{"COLOR_0":0,"POSITION":1,"NORMAL":2,"TEXCOORD_0":3},"indices":4,"material":0}]}],"nodes":[{"mesh":0,"translation":[-2.33234382,-0.3355546,-2.52287602],"scale":[0.000701228797,0.000701228797,0.000701228797]}],"scenes":[{"name":"Scene","nodes":[0]}],"scene":0}