{"asset":{"version":"2.0","generator":"gltfpack 1.0"},"extensionsUsed":["KHR_mesh_quantization","EXT_meshopt_compression","KHR_texture_transform","KHR_texture_basisu"],"extensionsRequired":["KHR_mesh_quantization","EXT_meshopt_compression","KHR_texture_basisu"],"buffers":[{"uri":"Fern_1.bin","byteLength":3804},{"byteLength":6588,"extensions":{"EXT_meshopt_compression":{"fallback":true}}}],"bufferViews":[{"buffer":1,"byteOffset":0,"byteLength":972,"byteStride":4,"target":34962,"extensions":{"EXT_meshopt_compression":{"buffer":0,"byteOffset":0,"byteLength":574,"byteStride":4,"mode":"ATTRIBUTES","count":243}}},{"buffer":1,"byteOffset":972,"byteLength":1944,"byteStride":8,"target":34962,"extensions":{"EXT_meshopt_compression":{"buffer":0,"byteOffset":576,"byteLength":1248,"byteStride":8,"mode":"ATTRIBUTES","count":243}}},{"buffer":1,"byteOffset":2916,"byteLength":972,"byteStride":4,"target":34962,"extensions":{"EXT_meshopt_compression":{"buffer":0,"byteOffset":1824,"byteLength":787,"byteStride":4,"mode":"ATTRIBUTES","count":243}}},{"buffer":1,"byteOffset":3888,"byteLength":972,"byteStride":4,"target":34962,"extensions":{"EXT_meshopt_compression":{"buffer":0,"byteOffset":2612,"byteLength":876,"byteStride":4,"mode":"ATTRIBUTES","count":243}}},{"buffer":1,"byteOffset":4860,"byteLength":1728,"target":34963,"extensions":{"EXT_meshopt_compression":{"buffer":0,"byteOffset":3488,"byteLength":314,"byteStride":2,"mode":"TRIANGLES","count":864}}}],"accessors":[{"bufferView":0,"byteOffset":0,"componentType":5121,"count":243,"type":"VEC4","normalized":true},{"bufferView":1,"byteOffset":0,"componentType":5123,"count":243,"type":"VEC3","min":[0,0,0],"max":[16383,4869,15371]},{"bufferView":2,"byteOffset":0,"componentType":5120,"count":243,"type":"VEC3","normalized":true},{"bufferView":3,"byteOffset":0,"componentType":5123,"count":243,"type":"VEC2","normalized":true},{"bufferView":4,"byteOffset":0,"componentType":5123,"count":864,"type":"SCALAR"}],"samplers":[{"magFilter":9729,"minFilter":9987}],"images":[{"name":"Leaves","uri":"Leaves.ktx2"}],"textures":[{"sampler":0,"extensions":{"KHR_texture_basisu":{"source":0}}}],"materials":[{"name":"Leaves","pbrMetallicRoughness":{"baseColorTexture":{"index":0,"extensions":{"KHR_texture_transform":{"offset":[0.0144650489,0.436907411],"scale":[4.38625526,8.916646]}}},"metallicFactor":0},"alphaMode":"MASK","alphaCutoff":0.200000003,"doubleSided":true}],"meshes":[{"primitives":[{"attributes":{"COLOR_0":0,"POSITION":1,"NORMAL":2,"TEXCOORD_0":3},"indices":4,"material":0}]}],"nodes":[{"mesh":0,"translation":[-1.38124228,-0.0773344338,-1.27853608],"scale":[0.000172552885,0.000172552885,0.000172552885]}],"scenes":[{"name":"Scene","nodes":[0]}],"scene":0}