{"asset":{"version":"2.0","generator":"gltfpack 1.0"},"extensionsUsed":["KHR_mesh_quantization","EXT_meshopt_compression","KHR_texture_transform","KHR_texture_basisu"],"extensionsRequired":["KHR_mesh_quantization","EXT_meshopt_compression","KHR_texture_basisu"],"buffers":[{"uri":"Flower_4_Single.bin","byteLength":6836},{"byteLength":13832,"extensions":{"EXT_meshopt_compression":{"fallback":true}}}],"bufferViews":[{"buffer":1,"byteOffset":0,"byteLength":1996,"byteStride":4,"target":34962,"extensions":{"EXT_meshopt_compression":{"buffer":0,"byteOffset":0,"byteLength":608,"byteStride":4,"mode":"ATTRIBUTES","count":499}}},{"buffer":1,"byteOffset":1996,"byteLength":3992,"byteStride":8,"target":34962,"extensions":{"EXT_meshopt_compression":{"buffer":0,"byteOffset":608,"byteLength":2390,"byteStride":8,"mode":"ATTRIBUTES","count":499}}},{"buffer":1,"byteOffset":5988,"byteLength":1996,"byteStride":4,"target":34962,"extensions":{"EXT_meshopt_compression":{"buffer":0,"byteOffset":3000,"byteLength":1511,"byteStride":4,"mode":"ATTRIBUTES","count":499}}},{"buffer":1,"byteOffset":7984,"byteLength":1996,"byteStride":4,"target":34962,"extensions":{"EXT_meshopt_compression":{"buffer":0,"byteOffset":4512,"byteLength":1576,"byteStride":4,"mode":"ATTRIBUTES","count":499}}},{"buffer":1,"byteOffset":9980,"byteLength":3852,"target":34963,"extensions":{"EXT_meshopt_compression":{"buffer":0,"byteOffset":6088,"byteLength":745,"byteStride":2,"mode":"TRIANGLES","count":1926}}}],"accessors":[{"bufferView":0,"byteOffset":0,"componentType":5121,"count":99,"type":"VEC4","normalized":true},{"bufferView":1,"byteOffset":0,"componentType":5123,"count":99,"type":"VEC3","min":[0,0,262],"max":[7262,15744,4154]},{"bufferView":2,"byteOffset":0,"componentType":5120,"count":99,"type":"VEC3","normalized":true},{"bufferView":3,"byteOffset":0,"componentType":5123,"count":99,"type":"VEC2","normalized":true},{"bufferView":4,"byteOffset":0,"componentType":5123,"count":486,"type":"SCALAR"},{"bufferView":0,"byteOffset":396,"componentType":5121,"count":400,"type":"VEC4","normalized":true},{"bufferView":1,"byteOffset":792,"componentType":5123,"count":400,"type":"VEC3","min":[736,7835,0],"max":[5997,16383,5234]},{"bufferView":2,"byteOffset":396,"componentType":5120,"count":400,"type":"VEC3","normalized":true},{"bufferView":3,"byteOffset":396,"componentType":5123,"count":400,"type":"VEC2","normalized":true},{"bufferView":4,"byteOffset":972,"componentType":5123,"count":1440,"type":"SCALAR"}],"samplers":[{"magFilter":9729,"minFilter":9987}],"images":[{"name":"Leaves","uri":"Leaves.ktx2"},{"name":"Flowers","uri":"Flowers.ktx2"}],"textures":[{"sampler":0,"extensions":{"KHR_texture_basisu":{"source":0}}},{"sampler":0,"extensions":{"KHR_texture_basisu":{"source":1}}}],"materials":[{"name":"Leaves","pbrMetallicRoughness":{"baseColorTexture":{"index":0,"extensions":{"KHR_texture_transform":{"offset":[0.752967536,0.31047523],"scale":[3.58248615,4.27439594]}}},"metallicFactor":0},"alphaMode":"MASK","alphaCutoff":0.200000003,"doubleSided":true},{"name":"Flowers","pbrMetallicRoughness":{"baseColorTexture":{"index":1,"extensions":{"KHR_texture_transform":{"offset":[0.602513373,0.592573464],"scale":[6.85710812,6.4859519]}}},"metallicFactor":0},"alphaMode":"MASK","alphaCutoff":0.200000003,"doubleSided":true}],"meshes":[{"primitives":[{"attributes":{"COLOR_0":0,"POSITION":1,"NORMAL":2,"TEXCOORD_0":3},"indices":4,"material":0},{"attributes":{"COLOR_0":5,"POSITION":6,"NORMAL":7,"TEXCOORD_0":8},"indices":9,"material":1}]}],"nodes":[{"mesh":0,"translation":[-0.505006433,-0.0304304827,-0.40180257],"scale":[0.000147662766,0.000147662766,0.000147662766]}],"scenes":[{"name":"Scene","nodes":[0]}],"scene":0}