{"asset":{"version":"2.0","generator":"gltfpack 1.0"},"extensionsUsed":["KHR_mesh_quantization","EXT_meshopt_compression","KHR_texture_transform","KHR_texture_basisu"],"extensionsRequired":["KHR_mesh_quantization","EXT_meshopt_compression","KHR_texture_basisu"],"buffers":[{"uri":"Flower_4_Group.bin","byteLength":16752},{"byteLength":32180,"extensions":{"EXT_meshopt_compression":{"fallback":true}}}],"bufferViews":[{"buffer":1,"byteOffset":0,"byteLength":1208,"byteStride":4,"target":34962,"extensions":{"EXT_meshopt_compression":{"buffer":0,"byteOffset":0,"byteLength":680,"byteStride":4,"mode":"ATTRIBUTES","count":302}}},{"buffer":1,"byteOffset":1208,"byteLength":10416,"byteStride":8,"target":34962,"extensions":{"EXT_meshopt_compression":{"buffer":0,"byteOffset":680,"byteLength":6195,"byteStride":8,"mode":"ATTRIBUTES","count":1302}}},{"buffer":1,"byteOffset":11624,"byteLength":5208,"byteStride":4,"target":34962,"extensions":{"EXT_meshopt_compression":{"buffer":0,"byteOffset":6876,"byteLength":3928,"byteStride":4,"mode":"ATTRIBUTES","count":1302}}},{"buffer":1,"byteOffset":16832,"byteLength":5208,"byteStride":4,"target":34962,"extensions":{"EXT_meshopt_compression":{"buffer":0,"byteOffset":10804,"byteLength":4011,"byteStride":4,"mode":"ATTRIBUTES","count":1302}}},{"buffer":1,"byteOffset":22040,"byteLength":10140,"target":34963,"extensions":{"EXT_meshopt_compression":{"buffer":0,"byteOffset":14816,"byteLength":1933,"byteStride":2,"mode":"TRIANGLES","count":5070}}}],"accessors":[{"bufferView":0,"byteOffset":0,"componentType":5121,"count":302,"type":"VEC4","normalized":true},{"bufferView":1,"byteOffset":0,"componentType":5123,"count":302,"type":"VEC3","min":[930,0,119],"max":[10257,15491,7669]},{"bufferView":2,"byteOffset":0,"componentType":5120,"count":302,"type":"VEC3","normalized":true},{"bufferView":3,"byteOffset":0,"componentType":5123,"count":302,"type":"VEC2","normalized":true},{"bufferView":4,"byteOffset":0,"componentType":5123,"count":1470,"type":"SCALAR"},{"bufferView":1,"byteOffset":2416,"componentType":5123,"count":1000,"type":"VEC3","min":[0,7767,0],"max":[11730,16383,9009]},{"bufferView":2,"byteOffset":1208,"componentType":5120,"count":1000,"type":"VEC3","normalized":true},{"bufferView":3,"byteOffset":1208,"componentType":5123,"count":1000,"type":"VEC2","normalized":true},{"bufferView":4,"byteOffset":2940,"componentType":5123,"count":3600,"type":"SCALAR"}],"samplers":[{"magFilter":9729,"minFilter":9987}],"images":[{"name":"Leaves","uri":"Leaves.ktx2"},{"name":"Flowers","uri":"Flowers.ktx2"}],"textures":[{"sampler":0,"extensions":{"KHR_texture_basisu":{"source":0}}},{"sampler":0,"extensions":{"KHR_texture_basisu":{"source":1}}}],"materials":[{"name":"Leaves","pbrMetallicRoughness":{"baseColorTexture":{"index":0,"extensions":{"KHR_texture_transform":{"offset":[0.752967536,0.31047523],"scale":[3.58248615,4.27439594]}}},"metallicFactor":0},"alphaMode":"MASK","alphaCutoff":0.200000003,"doubleSided":true},{"name":"Flowers","pbrMetallicRoughness":{"baseColorTexture":{"index":1,"extensions":{"KHR_texture_transform":{"offset":[0.602513373,0.592573464],"scale":[6.85710812,6.4859519]}}},"metallicFactor":0},"alphaMode":"MASK","alphaCutoff":0.200000003,"doubleSided":true}],"meshes":[{"primitives":[{"attributes":{"COLOR_0":0,"POSITION":1,"NORMAL":2,"TEXCOORD_0":3},"indices":4,"material":0},{"attributes":{"POSITION":5,"NORMAL":6,"TEXCOORD_0":7},"indices":8,"material":1}]}],"nodes":[{"mesh":0,"translation":[-0.931385756,-0.0569976121,-0.63615042],"scale":[0.000151789558,0.000151789558,0.000151789558]}],"scenes":[{"name":"Scene","nodes":[0]}],"scene":0}