{"asset":{"version":"2.0","generator":"gltfpack 1.0"},"extensionsUsed":["KHR_mesh_quantization","EXT_meshopt_compression","KHR_texture_transform","KHR_texture_basisu"],"extensionsRequired":["KHR_mesh_quantization","EXT_meshopt_compression","KHR_texture_basisu"],"buffers":[{"uri":"Flower_3_Single.bin","byteLength":3416},{"byteLength":6188,"extensions":{"EXT_meshopt_compression":{"fallback":true}}}],"bufferViews":[{"buffer":1,"byteOffset":0,"byteLength":844,"byteStride":4,"target":34962,"extensions":{"EXT_meshopt_compression":{"buffer":0,"byteOffset":0,"byteLength":478,"byteStride":4,"mode":"ATTRIBUTES","count":211}}},{"buffer":1,"byteOffset":844,"byteLength":1816,"byteStride":8,"target":34962,"extensions":{"EXT_meshopt_compression":{"buffer":0,"byteOffset":480,"byteLength":1146,"byteStride":8,"mode":"ATTRIBUTES","count":227}}},{"buffer":1,"byteOffset":2660,"byteLength":908,"byteStride":4,"target":34962,"extensions":{"EXT_meshopt_compression":{"buffer":0,"byteOffset":1628,"byteLength":713,"byteStride":4,"mode":"ATTRIBUTES","count":227}}},{"buffer":1,"byteOffset":3568,"byteLength":908,"byteStride":4,"target":34962,"extensions":{"EXT_meshopt_compression":{"buffer":0,"byteOffset":2344,"byteLength":739,"byteStride":4,"mode":"ATTRIBUTES","count":227}}},{"buffer":1,"byteOffset":4476,"byteLength":1710,"target":34963,"extensions":{"EXT_meshopt_compression":{"buffer":0,"byteOffset":3084,"byteLength":329,"byteStride":2,"mode":"TRIANGLES","count":855}}}],"accessors":[{"bufferView":0,"byteOffset":0,"componentType":5121,"count":211,"type":"VEC4","normalized":true},{"bufferView":1,"byteOffset":0,"componentType":5123,"count":211,"type":"VEC3","min":[0,0,0],"max":[7182,14179,6942]},{"bufferView":2,"byteOffset":0,"componentType":5120,"count":211,"type":"VEC3","normalized":true},{"bufferView":3,"byteOffset":0,"componentType":5123,"count":211,"type":"VEC2","normalized":true},{"bufferView":4,"byteOffset":0,"componentType":5123,"count":810,"type":"SCALAR"},{"bufferView":1,"byteOffset":1688,"componentType":5123,"count":16,"type":"VEC3","min":[1650,14050,1186],"max":[7141,16383,6951]},{"bufferView":2,"byteOffset":844,"componentType":5120,"count":16,"type":"VEC3","normalized":true},{"bufferView":3,"byteOffset":844,"componentType":5123,"count":16,"type":"VEC2","normalized":true},{"bufferView":4,"byteOffset":1620,"componentType":5123,"count":45,"type":"SCALAR"}],"samplers":[{"magFilter":9729,"minFilter":9987}],"images":[{"name":"Leaves","uri":"Leaves.ktx2"},{"name":"Flowers","uri":"Flowers.ktx2"}],"textures":[{"sampler":0,"extensions":{"KHR_texture_basisu":{"source":0}}},{"sampler":0,"extensions":{"KHR_texture_basisu":{"source":1}}}],"materials":[{"name":"Leaves","pbrMetallicRoughness":{"baseColorTexture":{"index":0,"extensions":{"KHR_texture_transform":{"offset":[0.0447483361,0.0409990549],"scale":[4.19754839,6.50339794]}}},"metallicFactor":0},"alphaMode":"MASK","alphaCutoff":0.200000003,"doubleSided":true},{"name":"Flowers","pbrMetallicRoughness":{"baseColorTexture":{"index":1,"extensions":{"KHR_texture_transform":{"offset":[0.322282106,0.330681264],"scale":[6.17658091,6.00114298]}}},"metallicFactor":0},"alphaMode":"MASK","alphaCutoff":0.200000003,"doubleSided":true}],"meshes":[{"primitives":[{"attributes":{"COLOR_0":0,"POSITION":1,"NORMAL":2,"TEXCOORD_0":3},"indices":4,"material":0},{"attributes":{"POSITION":5,"NORMAL":6,"TEXCOORD_0":7},"indices":8,"material":1}]}],"nodes":[{"mesh":0,"translation":[-0.48073864,-0.0183269549,-0.520720363],"scale":[0.000126240222,0.000126240222,0.000126240222]}],"scenes":[{"name":"Scene","nodes":[0]}],"scene":0}