{"asset":{"version":"2.0","generator":"gltfpack 1.0"},"extensionsUsed":["KHR_mesh_quantization","EXT_meshopt_compression","KHR_texture_transform","KHR_texture_basisu"],"extensionsRequired":["KHR_mesh_quantization","EXT_meshopt_compression","KHR_texture_basisu"],"buffers":[{"uri":"Flower_3_Group.bin","byteLength":8448},{"byteLength":15960,"extensions":{"EXT_meshopt_compression":{"fallback":true}}}],"bufferViews":[{"buffer":1,"byteOffset":0,"byteLength":2132,"byteStride":4,"target":34962,"extensions":{"EXT_meshopt_compression":{"buffer":0,"byteOffset":0,"byteLength":1101,"byteStride":4,"mode":"ATTRIBUTES","count":533}}},{"buffer":1,"byteOffset":2132,"byteLength":4648,"byteStride":8,"target":34962,"extensions":{"EXT_meshopt_compression":{"buffer":0,"byteOffset":1104,"byteLength":2888,"byteStride":8,"mode":"ATTRIBUTES","count":581}}},{"buffer":1,"byteOffset":6780,"byteLength":2324,"byteStride":4,"target":34962,"extensions":{"EXT_meshopt_compression":{"buffer":0,"byteOffset":3992,"byteLength":1814,"byteStride":4,"mode":"ATTRIBUTES","count":581}}},{"buffer":1,"byteOffset":9104,"byteLength":2324,"byteStride":4,"target":34962,"extensions":{"EXT_meshopt_compression":{"buffer":0,"byteOffset":5808,"byteLength":1791,"byteStride":4,"mode":"ATTRIBUTES","count":581}}},{"buffer":1,"byteOffset":11428,"byteLength":4530,"target":34963,"extensions":{"EXT_meshopt_compression":{"buffer":0,"byteOffset":7600,"byteLength":848,"byteStride":2,"mode":"TRIANGLES","count":2265}}}],"accessors":[{"bufferView":0,"byteOffset":0,"componentType":5121,"count":533,"type":"VEC4","normalized":true},{"bufferView":1,"byteOffset":0,"componentType":5123,"count":533,"type":"VEC3","min":[362,0,2065],"max":[11177,14422,12010]},{"bufferView":2,"byteOffset":0,"componentType":5120,"count":533,"type":"VEC3","normalized":true},{"bufferView":3,"byteOffset":0,"componentType":5123,"count":533,"type":"VEC2","normalized":true},{"bufferView":4,"byteOffset":0,"componentType":5123,"count":2130,"type":"SCALAR"},{"bufferView":1,"byteOffset":4264,"componentType":5123,"count":48,"type":"VEC3","min":[0,11850,0],"max":[11867,16383,12686]},{"bufferView":2,"byteOffset":2132,"componentType":5120,"count":48,"type":"VEC3","normalized":true},{"bufferView":3,"byteOffset":2132,"componentType":5123,"count":48,"type":"VEC2","normalized":true},{"bufferView":4,"byteOffset":4260,"componentType":5123,"count":135,"type":"SCALAR"}],"samplers":[{"magFilter":9729,"minFilter":9987}],"images":[{"name":"Leaves","uri":"Leaves.ktx2"},{"name":"Flowers","uri":"Flowers.ktx2"}],"textures":[{"sampler":0,"extensions":{"KHR_texture_basisu":{"source":0}}},{"sampler":0,"extensions":{"KHR_texture_basisu":{"source":1}}}],"materials":[{"name":"Leaves","pbrMetallicRoughness":{"baseColorTexture":{"index":0,"extensions":{"KHR_texture_transform":{"offset":[0.0447483361,0.0409990549],"scale":[4.18267202,6.50339794]}}},"metallicFactor":0},"alphaMode":"MASK","alphaCutoff":0.200000003,"doubleSided":true},{"name":"Flowers","pbrMetallicRoughness":{"baseColorTexture":{"index":1,"extensions":{"KHR_texture_transform":{"offset":[0.320933431,0.325701594],"scale":[6.28508091,6.10907507]}}},"metallicFactor":0},"alphaMode":"MASK","alphaCutoff":0.200000003,"doubleSided":true}],"meshes":[{"primitives":[{"attributes":{"COLOR_0":0,"POSITION":1,"NORMAL":2,"TEXCOORD_0":3},"indices":4,"material":0},{"attributes":{"POSITION":5,"NORMAL":6,"TEXCOORD_0":7},"indices":8,"material":1}]}],"nodes":[{"mesh":0,"translation":[-0.613601327,-0.0345835909,-0.801761746],"scale":[0.000125424835,0.000125424835,0.000125424835]}],"scenes":[{"name":"Scene","nodes":[0]}],"scene":0}