{"asset":{"version":"2.0","generator":"gltfpack 1.0"},"extensionsUsed":["KHR_mesh_quantization","EXT_meshopt_compression","KHR_texture_transform","KHR_texture_basisu"],"extensionsRequired":["KHR_mesh_quantization","EXT_meshopt_compression","KHR_texture_basisu"],"buffers":[{"uri":"Grass_Wispy_Short.bin","byteLength":6464},{"byteLength":12824,"extensions":{"EXT_meshopt_compression":{"fallback":true}}}],"bufferViews":[{"buffer":1,"byteOffset":0,"byteLength":1972,"byteStride":4,"target":34962,"extensions":{"EXT_meshopt_compression":{"buffer":0,"byteOffset":0,"byteLength":1415,"byteStride":4,"mode":"ATTRIBUTES","count":493}}},{"buffer":1,"byteOffset":1972,"byteLength":3944,"byteStride":8,"target":34962,"extensions":{"EXT_meshopt_compression":{"buffer":0,"byteOffset":1416,"byteLength":2446,"byteStride":8,"mode":"ATTRIBUTES","count":493}}},{"buffer":1,"byteOffset":5916,"byteLength":1972,"byteStride":4,"target":34962,"extensions":{"EXT_meshopt_compression":{"buffer":0,"byteOffset":3864,"byteLength":636,"byteStride":4,"mode":"ATTRIBUTES","count":493}}},{"buffer":1,"byteOffset":7888,"byteLength":1972,"byteStride":4,"target":34962,"extensions":{"EXT_meshopt_compression":{"buffer":0,"byteOffset":4500,"byteLength":1437,"byteStride":4,"mode":"ATTRIBUTES","count":493}}},{"buffer":1,"byteOffset":9860,"byteLength":2964,"target":34963,"extensions":{"EXT_meshopt_compression":{"buffer":0,"byteOffset":5940,"byteLength":524,"byteStride":2,"mode":"TRIANGLES","count":1482}}}],"accessors":[{"bufferView":0,"byteOffset":0,"componentType":5121,"count":493,"type":"VEC4","normalized":true},{"bufferView":1,"byteOffset":0,"componentType":5123,"count":493,"type":"VEC3","min":[0,0,0],"max":[16383,13281,14990]},{"bufferView":2,"byteOffset":0,"componentType":5120,"count":493,"type":"VEC3","normalized":true},{"bufferView":3,"byteOffset":0,"componentType":5123,"count":493,"type":"VEC2","normalized":true},{"bufferView":4,"byteOffset":0,"componentType":5123,"count":1482,"type":"SCALAR"}],"samplers":[{"magFilter":9729,"minFilter":9987}],"images":[{"name":"Grass","uri":"Grass.ktx2"}],"textures":[{"sampler":0,"extensions":{"KHR_texture_basisu":{"source":0}}}],"materials":[{"name":"Grass","pbrMetallicRoughness":{"baseColorTexture":{"index":0,"extensions":{"KHR_texture_transform":{"offset":[0.0129266419,0.0227003098],"scale":[0.390190721,15.3113565]}}},"metallicFactor":0},"doubleSided":true}],"meshes":[{"primitives":[{"attributes":{"COLOR_0":0,"POSITION":1,"NORMAL":2,"TEXCOORD_0":3},"indices":4,"material":0}]}],"nodes":[{"mesh":0,"translation":[-0.728043556,-0.0857500881,-0.582810998],"scale":[8.07047545e-05,8.07047545e-05,8.07047545e-05]}],"scenes":[{"name":"Scene","nodes":[0]}],"scene":0}