{"asset":{"version":"2.0","generator":"gltfpack 1.0"},"extensionsUsed":["KHR_mesh_quantization","EXT_meshopt_compression","KHR_texture_transform","KHR_texture_basisu"],"extensionsRequired":["KHR_mesh_quantization","EXT_meshopt_compression","KHR_texture_basisu"],"buffers":[{"uri":"Grass_Wispy_Tall.bin","byteLength":6624},{"byteLength":14672,"extensions":{"EXT_meshopt_compression":{"fallback":true}}}],"bufferViews":[{"buffer":1,"byteOffset":0,"byteLength":2188,"byteStride":4,"target":34962,"extensions":{"EXT_meshopt_compression":{"buffer":0,"byteOffset":0,"byteLength":1590,"byteStride":4,"mode":"ATTRIBUTES","count":547}}},{"buffer":1,"byteOffset":2188,"byteLength":4376,"byteStride":8,"target":34962,"extensions":{"EXT_meshopt_compression":{"buffer":0,"byteOffset":1592,"byteLength":2714,"byteStride":8,"mode":"ATTRIBUTES","count":547}}},{"buffer":1,"byteOffset":6564,"byteLength":2188,"byteStride":4,"target":34962,"extensions":{"EXT_meshopt_compression":{"buffer":0,"byteOffset":4308,"byteLength":91,"byteStride":4,"mode":"ATTRIBUTES","count":547}}},{"buffer":1,"byteOffset":8752,"byteLength":2188,"byteStride":4,"target":34962,"extensions":{"EXT_meshopt_compression":{"buffer":0,"byteOffset":4400,"byteLength":1577,"byteStride":4,"mode":"ATTRIBUTES","count":547}}},{"buffer":1,"byteOffset":10940,"byteLength":3732,"target":34963,"extensions":{"EXT_meshopt_compression":{"buffer":0,"byteOffset":5980,"byteLength":641,"byteStride":2,"mode":"TRIANGLES","count":1866}}}],"accessors":[{"bufferView":0,"byteOffset":0,"componentType":5121,"count":547,"type":"VEC4","normalized":true},{"bufferView":1,"byteOffset":0,"componentType":5123,"count":547,"type":"VEC3","min":[0,0,0],"max":[15092,16383,15618]},{"bufferView":2,"byteOffset":0,"componentType":5120,"count":547,"type":"VEC3","normalized":true},{"bufferView":3,"byteOffset":0,"componentType":5123,"count":547,"type":"VEC2","normalized":true},{"bufferView":4,"byteOffset":0,"componentType":5123,"count":1866,"type":"SCALAR"}],"samplers":[{"magFilter":9729,"minFilter":9987}],"images":[{"name":"Grass","uri":"Grass.ktx2"}],"textures":[{"sampler":0,"extensions":{"KHR_texture_basisu":{"source":0}}}],"materials":[{"name":"Grass","pbrMetallicRoughness":{"baseColorTexture":{"index":0,"extensions":{"KHR_texture_transform":{"offset":[0.0209071636,0.0393583775],"scale":[0.269699782,15.1478539]}}},"metallicFactor":0},"doubleSided":true}],"meshes":[{"primitives":[{"attributes":{"COLOR_0":0,"POSITION":1,"NORMAL":2,"TEXCOORD_0":3},"indices":4,"material":0}]}],"nodes":[{"mesh":0,"translation":[-0.739244699,-0.0360518172,-0.818590641],"scale":[0.000102044949,0.000102044949,0.000102044949]}],"scenes":[{"name":"Scene","nodes":[0]}],"scene":0}