{"asset":{"version":"2.0","generator":"gltfpack 1.0"},"extensionsUsed":["KHR_mesh_quantization","EXT_meshopt_compression","KHR_texture_transform","KHR_texture_basisu"],"extensionsRequired":["KHR_mesh_quantization","EXT_meshopt_compression","KHR_texture_basisu"],"buffers":[{"uri":"Grass_Common_Short.bin","byteLength":2008},{"byteLength":3992,"extensions":{"EXT_meshopt_compression":{"fallback":true}}}],"bufferViews":[{"buffer":1,"byteOffset":0,"byteLength":612,"byteStride":4,"target":34962,"extensions":{"EXT_meshopt_compression":{"buffer":0,"byteOffset":0,"byteLength":435,"byteStride":4,"mode":"ATTRIBUTES","count":153}}},{"buffer":1,"byteOffset":612,"byteLength":1224,"byteStride":8,"target":34962,"extensions":{"EXT_meshopt_compression":{"buffer":0,"byteOffset":436,"byteLength":824,"byteStride":8,"mode":"ATTRIBUTES","count":153}}},{"buffer":1,"byteOffset":1836,"byteLength":612,"byteStride":4,"target":34962,"extensions":{"EXT_meshopt_compression":{"buffer":0,"byteOffset":1260,"byteLength":77,"byteStride":4,"mode":"ATTRIBUTES","count":153}}},{"buffer":1,"byteOffset":2448,"byteLength":612,"byteStride":4,"target":34962,"extensions":{"EXT_meshopt_compression":{"buffer":0,"byteOffset":1340,"byteLength":496,"byteStride":4,"mode":"ATTRIBUTES","count":153}}},{"buffer":1,"byteOffset":3060,"byteLength":930,"target":34963,"extensions":{"EXT_meshopt_compression":{"buffer":0,"byteOffset":1836,"byteLength":172,"byteStride":2,"mode":"TRIANGLES","count":465}}}],"accessors":[{"bufferView":0,"byteOffset":0,"componentType":5121,"count":153,"type":"VEC4","normalized":true},{"bufferView":1,"byteOffset":0,"componentType":5123,"count":153,"type":"VEC3","min":[0,0,0],"max":[7845,16383,9054]},{"bufferView":2,"byteOffset":0,"componentType":5120,"count":153,"type":"VEC3","normalized":true},{"bufferView":3,"byteOffset":0,"componentType":5123,"count":153,"type":"VEC2","normalized":true},{"bufferView":4,"byteOffset":0,"componentType":5123,"count":465,"type":"SCALAR"}],"samplers":[{"magFilter":9729,"minFilter":9987}],"images":[{"name":"Grass","uri":"Grass.ktx2"}],"textures":[{"sampler":0,"extensions":{"KHR_texture_basisu":{"source":0}}}],"materials":[{"name":"Grass","pbrMetallicRoughness":{"baseColorTexture":{"index":0,"extensions":{"KHR_texture_transform":{"offset":[0.179834008,0.0232101679],"scale":[0.419771433,15.4796267]}}},"metallicFactor":0},"doubleSided":true}],"meshes":[{"primitives":[{"attributes":{"COLOR_0":0,"POSITION":1,"NORMAL":2,"TEXCOORD_0":3},"indices":4,"material":0}]}],"nodes":[{"mesh":0,"translation":[-0.355642408,-0.0223852154,-0.479378283],"scale":[8.14321829e-05,8.14321829e-05,8.14321829e-05]}],"scenes":[{"name":"Scene","nodes":[0]}],"scene":0}