{"asset":{"version":"2.0","generator":"gltfpack 1.0"},"extensionsUsed":["KHR_mesh_quantization","EXT_meshopt_compression","KHR_texture_transform","KHR_texture_basisu"],"extensionsRequired":["KHR_mesh_quantization","EXT_meshopt_compression","KHR_texture_basisu"],"buffers":[{"uri":"Mushroom_Laetiporus.bin","byteLength":22476},{"byteLength":48192,"extensions":{"EXT_meshopt_compression":{"fallback":true}}}],"bufferViews":[{"buffer":1,"byteOffset":0,"byteLength":14448,"byteStride":8,"target":34962,"extensions":{"EXT_meshopt_compression":{"buffer":0,"byteOffset":0,"byteLength":8518,"byteStride":8,"mode":"ATTRIBUTES","count":1806}}},{"buffer":1,"byteOffset":14448,"byteLength":7224,"byteStride":4,"target":34962,"extensions":{"EXT_meshopt_compression":{"buffer":0,"byteOffset":8520,"byteLength":5335,"byteStride":4,"mode":"ATTRIBUTES","count":1806}}},{"buffer":1,"byteOffset":21672,"byteLength":7224,"byteStride":4,"target":34962,"extensions":{"EXT_meshopt_compression":{"buffer":0,"byteOffset":13856,"byteLength":4814,"byteStride":4,"mode":"ATTRIBUTES","count":1806}}},{"buffer":1,"byteOffset":28896,"byteLength":19296,"target":34963,"extensions":{"EXT_meshopt_compression":{"buffer":0,"byteOffset":18672,"byteLength":3802,"byteStride":2,"mode":"TRIANGLES","count":9648}}}],"accessors":[{"bufferView":0,"byteOffset":0,"componentType":5123,"count":1806,"type":"VEC3","min":[0,0,0],"max":[16383,9198,13231]},{"bufferView":1,"byteOffset":0,"componentType":5120,"count":1806,"type":"VEC3","normalized":true},{"bufferView":2,"byteOffset":0,"componentType":5123,"count":1806,"type":"VEC2","normalized":true},{"bufferView":3,"byteOffset":0,"componentType":5123,"count":9648,"type":"SCALAR"}],"samplers":[{"magFilter":9729,"minFilter":9987}],"images":[{"name":"Mushrooms","uri":"Mushrooms.ktx2"}],"textures":[{"sampler":0,"extensions":{"KHR_texture_basisu":{"source":0}}}],"materials":[{"name":"Mushrooms","pbrMetallicRoughness":{"baseColorTexture":{"index":0,"extensions":{"KHR_texture_transform":{"offset":[0.001953125,0.0823603272],"scale":[15.4259405,11.6581259]}}},"metallicFactor":0},"doubleSided":true}],"meshes":[{"primitives":[{"attributes":{"POSITION":0,"NORMAL":1,"TEXCOORD_0":2},"indices":3,"material":0}]}],"nodes":[{"mesh":0,"translation":[-0.649819076,-0.160225362,-0.328301162],"scale":[8.33810991e-05,8.33810991e-05,8.33810991e-05]}],"scenes":[{"name":"Scene","nodes":[0]}],"scene":0}