{"asset":{"version":"2.0","generator":"gltfpack 1.0"},"extensionsUsed":["KHR_mesh_quantization","EXT_meshopt_compression","KHR_texture_transform","KHR_texture_basisu"],"extensionsRequired":["KHR_mesh_quantization","EXT_meshopt_compression","KHR_texture_basisu"],"buffers":[{"uri":"Mushroom_Common.bin","byteLength":7212},{"byteLength":14160,"extensions":{"EXT_meshopt_compression":{"fallback":true}}}],"bufferViews":[{"buffer":1,"byteOffset":0,"byteLength":4440,"byteStride":8,"target":34962,"extensions":{"EXT_meshopt_compression":{"buffer":0,"byteOffset":0,"byteLength":2830,"byteStride":8,"mode":"ATTRIBUTES","count":555}}},{"buffer":1,"byteOffset":4440,"byteLength":2220,"byteStride":4,"target":34962,"extensions":{"EXT_meshopt_compression":{"buffer":0,"byteOffset":2832,"byteLength":1726,"byteStride":4,"mode":"ATTRIBUTES","count":555}}},{"buffer":1,"byteOffset":6660,"byteLength":2220,"byteStride":4,"target":34962,"extensions":{"EXT_meshopt_compression":{"buffer":0,"byteOffset":4560,"byteLength":1662,"byteStride":4,"mode":"ATTRIBUTES","count":555}}},{"buffer":1,"byteOffset":8880,"byteLength":5280,"target":34963,"extensions":{"EXT_meshopt_compression":{"buffer":0,"byteOffset":6224,"byteLength":987,"byteStride":2,"mode":"TRIANGLES","count":2640}}}],"accessors":[{"bufferView":0,"byteOffset":0,"componentType":5123,"count":555,"type":"VEC3","min":[0,0,0],"max":[11853,9746,16383]},{"bufferView":1,"byteOffset":0,"componentType":5120,"count":555,"type":"VEC3","normalized":true},{"bufferView":2,"byteOffset":0,"componentType":5123,"count":555,"type":"VEC2","normalized":true},{"bufferView":3,"byteOffset":0,"componentType":5123,"count":2640,"type":"SCALAR"}],"samplers":[{"magFilter":9729,"minFilter":9987}],"images":[{"name":"Mushrooms","uri":"Mushrooms.ktx2"}],"textures":[{"sampler":0,"extensions":{"KHR_texture_basisu":{"source":0}}}],"materials":[{"name":"Mushrooms","pbrMetallicRoughness":{"baseColorTexture":{"index":0,"extensions":{"KHR_texture_transform":{"offset":[0.234652057,0.0594338775],"scale":[12.2171144,5.51348543]}}},"metallicFactor":0},"doubleSided":true}],"meshes":[{"primitives":[{"attributes":{"POSITION":0,"NORMAL":1,"TEXCOORD_0":2},"indices":3,"material":0}]}],"nodes":[{"mesh":0,"translation":[-0.333375871,-0.0174709689,-0.445210695],"scale":[4.75561683e-05,4.75561683e-05,4.75561683e-05]}],"scenes":[{"name":"Scene","nodes":[0]}],"scene":0}