{"asset":{"version":"2.0","generator":"gltfpack 1.0"},"extensionsUsed":["KHR_mesh_quantization","EXT_meshopt_compression","KHR_texture_transform","KHR_texture_basisu"],"extensionsRequired":["KHR_mesh_quantization","EXT_meshopt_compression","KHR_texture_basisu"],"buffers":[{"uri":"Pebble_Round_5.bin","byteLength":2620},{"byteLength":4712,"extensions":{"EXT_meshopt_compression":{"fallback":true}}}],"bufferViews":[{"buffer":1,"byteOffset":0,"byteLength":1984,"byteStride":8,"target":34962,"extensions":{"EXT_meshopt_compression":{"buffer":0,"byteOffset":0,"byteLength":1353,"byteStride":8,"mode":"ATTRIBUTES","count":248}}},{"buffer":1,"byteOffset":1984,"byteLength":992,"byteStride":4,"target":34962,"extensions":{"EXT_meshopt_compression":{"buffer":0,"byteOffset":1356,"byteLength":386,"byteStride":4,"mode":"ATTRIBUTES","count":248}}},{"buffer":1,"byteOffset":2976,"byteLength":992,"byteStride":4,"target":34962,"extensions":{"EXT_meshopt_compression":{"buffer":0,"byteOffset":1744,"byteLength":732,"byteStride":4,"mode":"ATTRIBUTES","count":248}}},{"buffer":1,"byteOffset":3968,"byteLength":744,"target":34963,"extensions":{"EXT_meshopt_compression":{"buffer":0,"byteOffset":2476,"byteLength":141,"byteStride":2,"mode":"TRIANGLES","count":372}}}],"accessors":[{"bufferView":0,"byteOffset":0,"componentType":5123,"count":248,"type":"VEC3","min":[0,0,0],"max":[16383,3946,13552]},{"bufferView":1,"byteOffset":0,"componentType":5120,"count":248,"type":"VEC3","normalized":true},{"bufferView":2,"byteOffset":0,"componentType":5123,"count":248,"type":"VEC2","normalized":true},{"bufferView":3,"byteOffset":0,"componentType":5123,"count":372,"type":"SCALAR"}],"samplers":[{"magFilter":9729,"minFilter":9987}],"images":[{"name":"PathRocks_Diffuse","uri":"PathRocks_Diffuse.ktx2"}],"textures":[{"sampler":0,"extensions":{"KHR_texture_basisu":{"source":0}}}],"materials":[{"name":"PathRocks","pbrMetallicRoughness":{"baseColorTexture":{"index":0,"extensions":{"KHR_texture_transform":{"offset":[0.001953125,0.141546905],"scale":[8.79140854,9.52033997]}}},"metallicFactor":0},"doubleSided":true}],"meshes":[{"primitives":[{"attributes":{"POSITION":0,"NORMAL":1,"TEXCOORD_0":2},"indices":3,"material":0}]}],"nodes":[{"mesh":0,"translation":[-0.216573671,-0.00414585555,-0.200998977],"scale":[2.55504619e-05,2.55504619e-05,2.55504619e-05]}],"scenes":[{"name":"Scene","nodes":[0]}],"scene":0}