{"asset":{"version":"2.0","generator":"gltfpack 1.0"},"extensionsUsed":["KHR_mesh_quantization","EXT_meshopt_compression","KHR_texture_transform","KHR_texture_basisu"],"extensionsRequired":["KHR_mesh_quantization","EXT_meshopt_compression","KHR_texture_basisu"],"buffers":[{"uri":"Pebble_Square_3.bin","byteLength":1268},{"byteLength":2008,"extensions":{"EXT_meshopt_compression":{"fallback":true}}}],"bufferViews":[{"buffer":1,"byteOffset":0,"byteLength":848,"byteStride":8,"target":34962,"extensions":{"EXT_meshopt_compression":{"buffer":0,"byteOffset":0,"byteLength":634,"byteStride":8,"mode":"ATTRIBUTES","count":106}}},{"buffer":1,"byteOffset":848,"byteLength":424,"byteStride":4,"target":34962,"extensions":{"EXT_meshopt_compression":{"buffer":0,"byteOffset":636,"byteLength":181,"byteStride":4,"mode":"ATTRIBUTES","count":106}}},{"buffer":1,"byteOffset":1272,"byteLength":424,"byteStride":4,"target":34962,"extensions":{"EXT_meshopt_compression":{"buffer":0,"byteOffset":820,"byteLength":373,"byteStride":4,"mode":"ATTRIBUTES","count":106}}},{"buffer":1,"byteOffset":1696,"byteLength":312,"target":34963,"extensions":{"EXT_meshopt_compression":{"buffer":0,"byteOffset":1196,"byteLength":69,"byteStride":2,"mode":"TRIANGLES","count":156}}}],"accessors":[{"bufferView":0,"byteOffset":0,"componentType":5123,"count":106,"type":"VEC3","min":[0,0,0],"max":[16383,6974,13988]},{"bufferView":1,"byteOffset":0,"componentType":5120,"count":106,"type":"VEC3","normalized":true},{"bufferView":2,"byteOffset":0,"componentType":5123,"count":106,"type":"VEC2","normalized":true},{"bufferView":3,"byteOffset":0,"componentType":5123,"count":156,"type":"SCALAR"}],"samplers":[{"magFilter":9729,"minFilter":9987}],"images":[{"name":"PathRocks_Diffuse","uri":"PathRocks_Diffuse.ktx2"}],"textures":[{"sampler":0,"extensions":{"KHR_texture_basisu":{"source":0}}}],"materials":[{"name":"PathRocks","pbrMetallicRoughness":{"baseColorTexture":{"index":0,"extensions":{"KHR_texture_transform":{"offset":[0.284641683,0.0110599995],"scale":[4.84413099,12.0859442]}}},"metallicFactor":0},"doubleSided":true}],"meshes":[{"primitives":[{"attributes":{"POSITION":0,"NORMAL":1,"TEXCOORD_0":2},"indices":3,"material":0}]}],"nodes":[{"mesh":0,"translation":[-0.186651647,-0.00811817031,-0.166491613],"scale":[2.27880246e-05,2.27880246e-05,2.27880246e-05]}],"scenes":[{"name":"Scene","nodes":[0]}],"scene":0}