{"asset":{"version":"2.0","generator":"gltfpack 1.0"},"extensionsUsed":["KHR_mesh_quantization","EXT_meshopt_compression","KHR_texture_transform","KHR_texture_basisu"],"extensionsRequired":["KHR_mesh_quantization","EXT_meshopt_compression","KHR_texture_basisu"],"buffers":[{"uri":"Pebble_Square_5.bin","byteLength":1736},{"byteLength":2896,"extensions":{"EXT_meshopt_compression":{"fallback":true}}}],"bufferViews":[{"buffer":1,"byteOffset":0,"byteLength":1232,"byteStride":8,"target":34962,"extensions":{"EXT_meshopt_compression":{"buffer":0,"byteOffset":0,"byteLength":881,"byteStride":8,"mode":"ATTRIBUTES","count":154}}},{"buffer":1,"byteOffset":1232,"byteLength":616,"byteStride":4,"target":34962,"extensions":{"EXT_meshopt_compression":{"buffer":0,"byteOffset":884,"byteLength":256,"byteStride":4,"mode":"ATTRIBUTES","count":154}}},{"buffer":1,"byteOffset":1848,"byteLength":616,"byteStride":4,"target":34962,"extensions":{"EXT_meshopt_compression":{"buffer":0,"byteOffset":1140,"byteLength":502,"byteStride":4,"mode":"ATTRIBUTES","count":154}}},{"buffer":1,"byteOffset":2464,"byteLength":432,"target":34963,"extensions":{"EXT_meshopt_compression":{"buffer":0,"byteOffset":1644,"byteLength":89,"byteStride":2,"mode":"TRIANGLES","count":216}}}],"accessors":[{"bufferView":0,"byteOffset":0,"componentType":5123,"count":154,"type":"VEC3","min":[0,0,0],"max":[12804,5534,16383]},{"bufferView":1,"byteOffset":0,"componentType":5120,"count":154,"type":"VEC3","normalized":true},{"bufferView":2,"byteOffset":0,"componentType":5123,"count":154,"type":"VEC2","normalized":true},{"bufferView":3,"byteOffset":0,"componentType":5123,"count":216,"type":"SCALAR"}],"samplers":[{"magFilter":9729,"minFilter":9987}],"images":[{"name":"PathRocks_Diffuse","uri":"PathRocks_Diffuse.ktx2"}],"textures":[{"sampler":0,"extensions":{"KHR_texture_basisu":{"source":0}}}],"materials":[{"name":"PathRocks","pbrMetallicRoughness":{"baseColorTexture":{"index":0,"extensions":{"KHR_texture_transform":{"offset":[0.001953125,0.62714839],"scale":[14.9137783,5.93573427]}}},"metallicFactor":0},"doubleSided":true}],"meshes":[{"primitives":[{"attributes":{"POSITION":0,"NORMAL":1,"TEXCOORD_0":2},"indices":3,"material":0}]}],"nodes":[{"mesh":0,"translation":[-0.168563306,-0.00795699656,-0.227532446],"scale":[2.74943286e-05,2.74943286e-05,2.74943286e-05]}],"scenes":[{"name":"Scene","nodes":[0]}],"scene":0}