{"asset":{"version":"2.0","generator":"gltfpack 1.0"},"extensionsUsed":["KHR_mesh_quantization","EXT_meshopt_compression","KHR_texture_transform","KHR_texture_basisu"],"extensionsRequired":["KHR_mesh_quantization","EXT_meshopt_compression","KHR_texture_basisu"],"buffers":[{"uri":"Pebble_Round_1.bin","byteLength":2972},{"byteLength":5424,"extensions":{"EXT_meshopt_compression":{"fallback":true}}}],"bufferViews":[{"buffer":1,"byteOffset":0,"byteLength":2304,"byteStride":8,"target":34962,"extensions":{"EXT_meshopt_compression":{"buffer":0,"byteOffset":0,"byteLength":1501,"byteStride":8,"mode":"ATTRIBUTES","count":288}}},{"buffer":1,"byteOffset":2304,"byteLength":1152,"byteStride":4,"target":34962,"extensions":{"EXT_meshopt_compression":{"buffer":0,"byteOffset":1504,"byteLength":473,"byteStride":4,"mode":"ATTRIBUTES","count":288}}},{"buffer":1,"byteOffset":3456,"byteLength":1152,"byteStride":4,"target":34962,"extensions":{"EXT_meshopt_compression":{"buffer":0,"byteOffset":1980,"byteLength":836,"byteStride":4,"mode":"ATTRIBUTES","count":288}}},{"buffer":1,"byteOffset":4608,"byteLength":816,"target":34963,"extensions":{"EXT_meshopt_compression":{"buffer":0,"byteOffset":2816,"byteLength":153,"byteStride":2,"mode":"TRIANGLES","count":408}}}],"accessors":[{"bufferView":0,"byteOffset":0,"componentType":5123,"count":288,"type":"VEC3","min":[0,0,0],"max":[16383,3128,12025]},{"bufferView":1,"byteOffset":0,"componentType":5120,"count":288,"type":"VEC3","normalized":true},{"bufferView":2,"byteOffset":0,"componentType":5123,"count":288,"type":"VEC2","normalized":true},{"bufferView":3,"byteOffset":0,"componentType":5123,"count":408,"type":"SCALAR"}],"samplers":[{"magFilter":9729,"minFilter":9987}],"images":[{"name":"PathRocks_Diffuse","uri":"PathRocks_Diffuse.ktx2"}],"textures":[{"sampler":0,"extensions":{"KHR_texture_basisu":{"source":0}}}],"materials":[{"name":"PathRocks","pbrMetallicRoughness":{"baseColorTexture":{"index":0,"extensions":{"KHR_texture_transform":{"offset":[0.001953125,0.113553464],"scale":[13.8148098,6.94512177]}}},"metallicFactor":0},"doubleSided":true}],"meshes":[{"primitives":[{"attributes":{"POSITION":0,"NORMAL":1,"TEXCOORD_0":2},"indices":3,"material":0}]}],"nodes":[{"mesh":0,"translation":[-0.219809055,-0.00779797137,-0.159612685],"scale":[3.05218055e-05,3.05218055e-05,3.05218055e-05]}],"scenes":[{"name":"Scene","nodes":[0]}],"scene":0}