{"asset":{"version":"2.0","generator":"gltfpack 1.0"},"extensionsUsed":["KHR_mesh_quantization","EXT_meshopt_compression","KHR_texture_transform","KHR_texture_basisu"],"extensionsRequired":["KHR_mesh_quantization","EXT_meshopt_compression","KHR_texture_basisu"],"buffers":[{"uri":"Pebble_Round_2.bin","byteLength":2256},{"byteLength":4076,"extensions":{"EXT_meshopt_compression":{"fallback":true}}}],"bufferViews":[{"buffer":1,"byteOffset":0,"byteLength":1696,"byteStride":8,"target":34962,"extensions":{"EXT_meshopt_compression":{"buffer":0,"byteOffset":0,"byteLength":1162,"byteStride":8,"mode":"ATTRIBUTES","count":212}}},{"buffer":1,"byteOffset":1696,"byteLength":848,"byteStride":4,"target":34962,"extensions":{"EXT_meshopt_compression":{"buffer":0,"byteOffset":1164,"byteLength":339,"byteStride":4,"mode":"ATTRIBUTES","count":212}}},{"buffer":1,"byteOffset":2544,"byteLength":848,"byteStride":4,"target":34962,"extensions":{"EXT_meshopt_compression":{"buffer":0,"byteOffset":1504,"byteLength":620,"byteStride":4,"mode":"ATTRIBUTES","count":212}}},{"buffer":1,"byteOffset":3392,"byteLength":684,"target":34963,"extensions":{"EXT_meshopt_compression":{"buffer":0,"byteOffset":2124,"byteLength":132,"byteStride":2,"mode":"TRIANGLES","count":342}}}],"accessors":[{"bufferView":0,"byteOffset":0,"componentType":5123,"count":212,"type":"VEC3","min":[0,0,0],"max":[16383,3435,14983]},{"bufferView":1,"byteOffset":0,"componentType":5120,"count":212,"type":"VEC3","normalized":true},{"bufferView":2,"byteOffset":0,"componentType":5123,"count":212,"type":"VEC2","normalized":true},{"bufferView":3,"byteOffset":0,"componentType":5123,"count":342,"type":"SCALAR"}],"samplers":[{"magFilter":9729,"minFilter":9987}],"images":[{"name":"PathRocks_Diffuse","uri":"PathRocks_Diffuse.ktx2"}],"textures":[{"sampler":0,"extensions":{"KHR_texture_basisu":{"source":0}}}],"materials":[{"name":"PathRocks","pbrMetallicRoughness":{"baseColorTexture":{"index":0,"extensions":{"KHR_texture_transform":{"offset":[0.275373191,0.30532223],"scale":[9.21403313,11.086132]}}},"metallicFactor":0},"doubleSided":true}],"meshes":[{"primitives":[{"attributes":{"POSITION":0,"NORMAL":1,"TEXCOORD_0":2},"indices":3,"material":0}]}],"nodes":[{"mesh":0,"translation":[-0.215203479,-0.00298019988,-0.222273126],"scale":[2.7435568e-05,2.7435568e-05,2.7435568e-05]}],"scenes":[{"name":"Scene","nodes":[0]}],"scene":0}