{"asset":{"version":"2.0","generator":"gltfpack 1.0"},"extensionsUsed":["KHR_mesh_quantization","EXT_meshopt_compression","KHR_texture_transform","KHR_texture_basisu"],"extensionsRequired":["KHR_mesh_quantization","EXT_meshopt_compression","KHR_texture_basisu"],"buffers":[{"uri":"Pebble_Round_3.bin","byteLength":2520},{"byteLength":4544,"extensions":{"EXT_meshopt_compression":{"fallback":true}}}],"bufferViews":[{"buffer":1,"byteOffset":0,"byteLength":1888,"byteStride":8,"target":34962,"extensions":{"EXT_meshopt_compression":{"buffer":0,"byteOffset":0,"byteLength":1269,"byteStride":8,"mode":"ATTRIBUTES","count":236}}},{"buffer":1,"byteOffset":1888,"byteLength":944,"byteStride":4,"target":34962,"extensions":{"EXT_meshopt_compression":{"buffer":0,"byteOffset":1272,"byteLength":372,"byteStride":4,"mode":"ATTRIBUTES","count":236}}},{"buffer":1,"byteOffset":2832,"byteLength":944,"byteStride":4,"target":34962,"extensions":{"EXT_meshopt_compression":{"buffer":0,"byteOffset":1644,"byteLength":725,"byteStride":4,"mode":"ATTRIBUTES","count":236}}},{"buffer":1,"byteOffset":3776,"byteLength":768,"target":34963,"extensions":{"EXT_meshopt_compression":{"buffer":0,"byteOffset":2372,"byteLength":145,"byteStride":2,"mode":"TRIANGLES","count":384}}}],"accessors":[{"bufferView":0,"byteOffset":0,"componentType":5123,"count":236,"type":"VEC3","min":[0,0,0],"max":[15196,3333,16383]},{"bufferView":1,"byteOffset":0,"componentType":5120,"count":236,"type":"VEC3","normalized":true},{"bufferView":2,"byteOffset":0,"componentType":5123,"count":236,"type":"VEC2","normalized":true},{"bufferView":3,"byteOffset":0,"componentType":5123,"count":384,"type":"SCALAR"}],"samplers":[{"magFilter":9729,"minFilter":9987}],"images":[{"name":"PathRocks_Diffuse","uri":"PathRocks_Diffuse.ktx2"}],"textures":[{"sampler":0,"extensions":{"KHR_texture_basisu":{"source":0}}}],"materials":[{"name":"PathRocks","pbrMetallicRoughness":{"baseColorTexture":{"index":0,"extensions":{"KHR_texture_transform":{"offset":[0.001953125,0.144198418],"scale":[4.99173403,6.56024981]}}},"metallicFactor":0},"doubleSided":true}],"meshes":[{"primitives":[{"attributes":{"POSITION":0,"NORMAL":1,"TEXCOORD_0":2},"indices":3,"material":0}]}],"nodes":[{"mesh":0,"translation":[-0.227098301,-0.00175301638,-0.221486032],"scale":[2.95922782e-05,2.95922782e-05,2.95922782e-05]}],"scenes":[{"name":"Scene","nodes":[0]}],"scene":0}