{"asset":{"version":"2.0","generator":"gltfpack 1.0"},"extensionsUsed":["KHR_mesh_quantization","EXT_meshopt_compression","KHR_texture_transform","KHR_texture_basisu"],"extensionsRequired":["KHR_mesh_quantization","EXT_meshopt_compression","KHR_texture_basisu"],"buffers":[{"uri":"Pebble_Round_4.bin","byteLength":2784},{"byteLength":4996,"extensions":{"EXT_meshopt_compression":{"fallback":true}}}],"bufferViews":[{"buffer":1,"byteOffset":0,"byteLength":2120,"byteStride":8,"target":34962,"extensions":{"EXT_meshopt_compression":{"buffer":0,"byteOffset":0,"byteLength":1428,"byteStride":8,"mode":"ATTRIBUTES","count":265}}},{"buffer":1,"byteOffset":2120,"byteLength":1060,"byteStride":4,"target":34962,"extensions":{"EXT_meshopt_compression":{"buffer":0,"byteOffset":1428,"byteLength":425,"byteStride":4,"mode":"ATTRIBUTES","count":265}}},{"buffer":1,"byteOffset":3180,"byteLength":1060,"byteStride":4,"target":34962,"extensions":{"EXT_meshopt_compression":{"buffer":0,"byteOffset":1856,"byteLength":784,"byteStride":4,"mode":"ATTRIBUTES","count":265}}},{"buffer":1,"byteOffset":4240,"byteLength":756,"target":34963,"extensions":{"EXT_meshopt_compression":{"buffer":0,"byteOffset":2640,"byteLength":144,"byteStride":2,"mode":"TRIANGLES","count":378}}}],"accessors":[{"bufferView":0,"byteOffset":0,"componentType":5123,"count":265,"type":"VEC3","min":[0,0,0],"max":[14713,3600,16383]},{"bufferView":1,"byteOffset":0,"componentType":5120,"count":265,"type":"VEC3","normalized":true},{"bufferView":2,"byteOffset":0,"componentType":5123,"count":265,"type":"VEC2","normalized":true},{"bufferView":3,"byteOffset":0,"componentType":5123,"count":378,"type":"SCALAR"}],"samplers":[{"magFilter":9729,"minFilter":9987}],"images":[{"name":"PathRocks_Diffuse","uri":"PathRocks_Diffuse.ktx2"}],"textures":[{"sampler":0,"extensions":{"KHR_texture_basisu":{"source":0}}}],"materials":[{"name":"PathRocks","pbrMetallicRoughness":{"baseColorTexture":{"index":0,"extensions":{"KHR_texture_transform":{"offset":[0.595135689,0.127736211],"scale":[4.7294054,10.2733727]}}},"metallicFactor":0},"doubleSided":true}],"meshes":[{"primitives":[{"attributes":{"POSITION":0,"NORMAL":1,"TEXCOORD_0":2},"indices":3,"material":0}]}],"nodes":[{"mesh":0,"translation":[-0.21054709,-0.0056319288,-0.230736777],"scale":[2.76138508e-05,2.76138508e-05,2.76138508e-05]}],"scenes":[{"name":"Scene","nodes":[0]}],"scene":0}