{"asset":{"version":"2.0","generator":"gltfpack 1.0"},"extensionsUsed":["KHR_mesh_quantization","EXT_meshopt_compression","KHR_texture_transform","KHR_texture_basisu"],"extensionsRequired":["KHR_mesh_quantization","EXT_meshopt_compression","KHR_texture_basisu"],"buffers":[{"uri":"Pebble_Square_6.bin","byteLength":1596},{"byteLength":2568,"extensions":{"EXT_meshopt_compression":{"fallback":true}}}],"bufferViews":[{"buffer":1,"byteOffset":0,"byteLength":1088,"byteStride":8,"target":34962,"extensions":{"EXT_meshopt_compression":{"buffer":0,"byteOffset":0,"byteLength":801,"byteStride":8,"mode":"ATTRIBUTES","count":136}}},{"buffer":1,"byteOffset":1088,"byteLength":544,"byteStride":4,"target":34962,"extensions":{"EXT_meshopt_compression":{"buffer":0,"byteOffset":804,"byteLength":246,"byteStride":4,"mode":"ATTRIBUTES","count":136}}},{"buffer":1,"byteOffset":1632,"byteLength":544,"byteStride":4,"target":34962,"extensions":{"EXT_meshopt_compression":{"buffer":0,"byteOffset":1052,"byteLength":457,"byteStride":4,"mode":"ATTRIBUTES","count":136}}},{"buffer":1,"byteOffset":2176,"byteLength":390,"target":34963,"extensions":{"EXT_meshopt_compression":{"buffer":0,"byteOffset":1512,"byteLength":83,"byteStride":2,"mode":"TRIANGLES","count":195}}}],"accessors":[{"bufferView":0,"byteOffset":0,"componentType":5123,"count":136,"type":"VEC3","min":[0,0,0],"max":[16383,4885,9323]},{"bufferView":1,"byteOffset":0,"componentType":5120,"count":136,"type":"VEC3","normalized":true},{"bufferView":2,"byteOffset":0,"componentType":5123,"count":136,"type":"VEC2","normalized":true},{"bufferView":3,"byteOffset":0,"componentType":5123,"count":195,"type":"SCALAR"}],"samplers":[{"magFilter":9729,"minFilter":9987}],"images":[{"name":"PathRocks_Diffuse","uri":"PathRocks_Diffuse.ktx2"}],"textures":[{"sampler":0,"extensions":{"KHR_texture_basisu":{"source":0}}}],"materials":[{"name":"PathRocks","pbrMetallicRoughness":{"baseColorTexture":{"index":0,"extensions":{"KHR_texture_transform":{"offset":[0.507085145,0.435314],"scale":[7.57852888,9.00578785]}}},"metallicFactor":0},"doubleSided":true}],"meshes":[{"primitives":[{"attributes":{"POSITION":0,"NORMAL":1,"TEXCOORD_0":2},"indices":3,"material":0}]}],"nodes":[{"mesh":0,"translation":[-0.215022311,-0.0101462407,-0.120621078],"scale":[2.82017099e-05,2.82017099e-05,2.82017099e-05]}],"scenes":[{"name":"Scene","nodes":[0]}],"scene":0}