{"asset":{"version":"2.0","generator":"gltfpack 1.0"},"extensionsUsed":["KHR_mesh_quantization","EXT_meshopt_compression","KHR_texture_transform","KHR_texture_basisu"],"extensionsRequired":["KHR_mesh_quantization","EXT_meshopt_compression","KHR_texture_basisu"],"buffers":[{"uri":"Pebble_Square_1.bin","byteLength":2240},{"byteLength":3904,"extensions":{"EXT_meshopt_compression":{"fallback":true}}}],"bufferViews":[{"buffer":1,"byteOffset":0,"byteLength":1640,"byteStride":8,"target":34962,"extensions":{"EXT_meshopt_compression":{"buffer":0,"byteOffset":0,"byteLength":1148,"byteStride":8,"mode":"ATTRIBUTES","count":205}}},{"buffer":1,"byteOffset":1640,"byteLength":820,"byteStride":4,"target":34962,"extensions":{"EXT_meshopt_compression":{"buffer":0,"byteOffset":1148,"byteLength":322,"byteStride":4,"mode":"ATTRIBUTES","count":205}}},{"buffer":1,"byteOffset":2460,"byteLength":820,"byteStride":4,"target":34962,"extensions":{"EXT_meshopt_compression":{"buffer":0,"byteOffset":1472,"byteLength":644,"byteStride":4,"mode":"ATTRIBUTES","count":205}}},{"buffer":1,"byteOffset":3280,"byteLength":624,"target":34963,"extensions":{"EXT_meshopt_compression":{"buffer":0,"byteOffset":2116,"byteLength":123,"byteStride":2,"mode":"TRIANGLES","count":312}}}],"accessors":[{"bufferView":0,"byteOffset":0,"componentType":5123,"count":205,"type":"VEC3","min":[0,0,0],"max":[16196,4842,16383]},{"bufferView":1,"byteOffset":0,"componentType":5120,"count":205,"type":"VEC3","normalized":true},{"bufferView":2,"byteOffset":0,"componentType":5123,"count":205,"type":"VEC2","normalized":true},{"bufferView":3,"byteOffset":0,"componentType":5123,"count":312,"type":"SCALAR"}],"samplers":[{"magFilter":9729,"minFilter":9987}],"images":[{"name":"PathRocks_Diffuse","uri":"PathRocks_Diffuse.ktx2"}],"textures":[{"sampler":0,"extensions":{"KHR_texture_basisu":{"source":0}}}],"materials":[{"name":"PathRocks","pbrMetallicRoughness":{"baseColorTexture":{"index":0,"extensions":{"KHR_texture_transform":{"offset":[0.242933527,0.133603811],"scale":[7.88861609,13.8342562]}}},"metallicFactor":0},"doubleSided":true}],"meshes":[{"primitives":[{"attributes":{"POSITION":0,"NORMAL":1,"TEXCOORD_0":2},"indices":3,"material":0}]}],"nodes":[{"mesh":0,"translation":[-0.233349577,-0.00220225309,-0.201875553],"scale":[2.68353178e-05,2.68353178e-05,2.68353178e-05]}],"scenes":[{"name":"Scene","nodes":[0]}],"scene":0}