{"asset":{"version":"2.0","generator":"gltfpack 1.0"},"extensionsUsed":["KHR_mesh_quantization","EXT_meshopt_compression","KHR_texture_transform","KHR_texture_basisu"],"extensionsRequired":["KHR_mesh_quantization","EXT_meshopt_compression","KHR_texture_basisu"],"buffers":[{"uri":"Petal_4.bin","byteLength":500},{"byteLength":580,"extensions":{"EXT_meshopt_compression":{"fallback":true}}}],"bufferViews":[{"buffer":1,"byteOffset":0,"byteLength":200,"byteStride":8,"target":34962,"extensions":{"EXT_meshopt_compression":{"buffer":0,"byteOffset":0,"byteLength":208,"byteStride":8,"mode":"ATTRIBUTES","count":25}}},{"buffer":1,"byteOffset":200,"byteLength":100,"byteStride":4,"target":34962,"extensions":{"EXT_meshopt_compression":{"buffer":0,"byteOffset":208,"byteLength":110,"byteStride":4,"mode":"ATTRIBUTES","count":25}}},{"buffer":1,"byteOffset":300,"byteLength":100,"byteStride":4,"target":34962,"extensions":{"EXT_meshopt_compression":{"buffer":0,"byteOffset":320,"byteLength":128,"byteStride":4,"mode":"ATTRIBUTES","count":25}}},{"buffer":1,"byteOffset":400,"byteLength":180,"target":34963,"extensions":{"EXT_meshopt_compression":{"buffer":0,"byteOffset":448,"byteLength":50,"byteStride":2,"mode":"TRIANGLES","count":90}}}],"accessors":[{"bufferView":0,"byteOffset":0,"componentType":5123,"count":25,"type":"VEC3","min":[0,0,0],"max":[16383,12548,12169]},{"bufferView":1,"byteOffset":0,"componentType":5120,"count":25,"type":"VEC3","normalized":true},{"bufferView":2,"byteOffset":0,"componentType":5123,"count":25,"type":"VEC2","normalized":true},{"bufferView":3,"byteOffset":0,"componentType":5123,"count":90,"type":"SCALAR"}],"samplers":[{"magFilter":9729,"minFilter":9987}],"images":[{"name":"Flowers","uri":"Flowers.ktx2"}],"textures":[{"sampler":0,"extensions":{"KHR_texture_basisu":{"source":0}}}],"materials":[{"name":"Flowers","pbrMetallicRoughness":{"baseColorTexture":{"index":0,"extensions":{"KHR_texture_transform":{"offset":[0.602513373,0.592573464],"scale":[6.85710812,6.4859519]}}},"metallicFactor":0},"alphaMode":"MASK","alphaCutoff":0.200000003,"doubleSided":true}],"meshes":[{"primitives":[{"attributes":{"POSITION":0,"NORMAL":1,"TEXCOORD_0":2},"indices":3,"material":0}]}],"nodes":[{"mesh":0,"translation":[-0.143394813,-1.37430519e-07,-0.122296154],"scale":[2.00874856e-05,2.00874856e-05,2.00874856e-05]}],"scenes":[{"name":"Scene","nodes":[0]}],"scene":0}