{"asset":{"version":"2.0","generator":"gltfpack 1.0"},"extensionsUsed":["KHR_mesh_quantization","EXT_meshopt_compression","KHR_texture_transform","KHR_texture_basisu"],"extensionsRequired":["KHR_mesh_quantization","EXT_meshopt_compression","KHR_texture_basisu"],"buffers":[{"uri":"Petal_3.bin","byteLength":344},{"byteLength":348,"extensions":{"EXT_meshopt_compression":{"fallback":true}}}],"bufferViews":[{"buffer":1,"byteOffset":0,"byteLength":128,"byteStride":8,"target":34962,"extensions":{"EXT_meshopt_compression":{"buffer":0,"byteOffset":0,"byteLength":131,"byteStride":8,"mode":"ATTRIBUTES","count":16}}},{"buffer":1,"byteOffset":128,"byteLength":64,"byteStride":4,"target":34962,"extensions":{"EXT_meshopt_compression":{"buffer":0,"byteOffset":132,"byteLength":83,"byteStride":4,"mode":"ATTRIBUTES","count":16}}},{"buffer":1,"byteOffset":192,"byteLength":64,"byteStride":4,"target":34962,"extensions":{"EXT_meshopt_compression":{"buffer":0,"byteOffset":216,"byteLength":93,"byteStride":4,"mode":"ATTRIBUTES","count":16}}},{"buffer":1,"byteOffset":256,"byteLength":90,"target":34963,"extensions":{"EXT_meshopt_compression":{"buffer":0,"byteOffset":312,"byteLength":32,"byteStride":2,"mode":"TRIANGLES","count":45}}}],"accessors":[{"bufferView":0,"byteOffset":0,"componentType":5123,"count":16,"type":"VEC3","min":[0,0,0],"max":[16383,5011,16036]},{"bufferView":1,"byteOffset":0,"componentType":5120,"count":16,"type":"VEC3","normalized":true},{"bufferView":2,"byteOffset":0,"componentType":5123,"count":16,"type":"VEC2","normalized":true},{"bufferView":3,"byteOffset":0,"componentType":5123,"count":45,"type":"SCALAR"}],"samplers":[{"magFilter":9729,"minFilter":9987}],"images":[{"name":"Flowers","uri":"Flowers.ktx2"}],"textures":[{"sampler":0,"extensions":{"KHR_texture_basisu":{"source":0}}}],"materials":[{"name":"Flowers","pbrMetallicRoughness":{"baseColorTexture":{"index":0,"extensions":{"KHR_texture_transform":{"offset":[0.00606742501,0.568533301],"scale":[6.99140501,6.73058271]}}},"metallicFactor":0},"alphaMode":"MASK","alphaCutoff":0.200000003,"doubleSided":true}],"meshes":[{"primitives":[{"attributes":{"POSITION":0,"NORMAL":1,"TEXCOORD_0":2},"indices":3,"material":0}]}],"nodes":[{"mesh":0,"translation":[-0.314994574,2.07683485e-07,-0.273450673],"scale":[3.78125951e-05,3.78125951e-05,3.78125951e-05]}],"scenes":[{"name":"Scene","nodes":[0]}],"scene":0}