{"asset":{"version":"2.0","generator":"gltfpack 1.0"},"extensionsUsed":["KHR_mesh_quantization","EXT_meshopt_compression","KHR_texture_transform","KHR_texture_basisu"],"extensionsRequired":["KHR_mesh_quantization","EXT_meshopt_compression","KHR_texture_basisu"],"buffers":[{"uri":"Petal_1.bin","byteLength":340},{"byteLength":304,"extensions":{"EXT_meshopt_compression":{"fallback":true}}}],"bufferViews":[{"buffer":1,"byteOffset":0,"byteLength":112,"byteStride":8,"target":34962,"extensions":{"EXT_meshopt_compression":{"buffer":0,"byteOffset":0,"byteLength":131,"byteStride":8,"mode":"ATTRIBUTES","count":14}}},{"buffer":1,"byteOffset":112,"byteLength":56,"byteStride":4,"target":34962,"extensions":{"EXT_meshopt_compression":{"buffer":0,"byteOffset":132,"byteLength":84,"byteStride":4,"mode":"ATTRIBUTES","count":14}}},{"buffer":1,"byteOffset":168,"byteLength":56,"byteStride":4,"target":34962,"extensions":{"EXT_meshopt_compression":{"buffer":0,"byteOffset":216,"byteLength":92,"byteStride":4,"mode":"ATTRIBUTES","count":14}}},{"buffer":1,"byteOffset":224,"byteLength":78,"target":34963,"extensions":{"EXT_meshopt_compression":{"buffer":0,"byteOffset":308,"byteLength":30,"byteStride":2,"mode":"TRIANGLES","count":39}}}],"accessors":[{"bufferView":0,"byteOffset":0,"componentType":5123,"count":14,"type":"VEC3","min":[0,0,0],"max":[16383,8674,16195]},{"bufferView":1,"byteOffset":0,"componentType":5120,"count":14,"type":"VEC3","normalized":true},{"bufferView":2,"byteOffset":0,"componentType":5123,"count":14,"type":"VEC2","normalized":true},{"bufferView":3,"byteOffset":0,"componentType":5123,"count":39,"type":"SCALAR"}],"samplers":[{"magFilter":9729,"minFilter":9987}],"images":[{"name":"Flowers","uri":"Flowers.ktx2"}],"textures":[{"sampler":0,"extensions":{"KHR_texture_basisu":{"source":0}}}],"materials":[{"name":"Flowers","pbrMetallicRoughness":{"baseColorTexture":{"index":0,"extensions":{"KHR_texture_transform":{"offset":[0.543095291,0.0301591158],"scale":[6.90378094,6.97400475]}}},"metallicFactor":0},"alphaMode":"MASK","alphaCutoff":0.200000003,"doubleSided":true}],"meshes":[{"primitives":[{"attributes":{"POSITION":0,"NORMAL":1,"TEXCOORD_0":2},"indices":3,"material":0}]}],"nodes":[{"mesh":0,"translation":[-0.256916344,1.18491823e-06,-0.2289958],"scale":[2.80924778e-05,2.80924778e-05,2.80924778e-05]}],"scenes":[{"name":"Scene","nodes":[0]}],"scene":0}