{"asset":{"version":"2.0","generator":"gltfpack 1.0"},"extensionsUsed":["KHR_mesh_quantization","EXT_meshopt_compression","KHR_texture_transform","KHR_texture_basisu"],"extensionsRequired":["KHR_mesh_quantization","EXT_meshopt_compression","KHR_texture_basisu"],"buffers":[{"uri":"Pine_5.bin","byteLength":20332},{"byteLength":37816,"extensions":{"EXT_meshopt_compression":{"fallback":true}}}],"bufferViews":[{"buffer":1,"byteOffset":0,"byteLength":1236,"byteStride":4,"target":34962,"extensions":{"EXT_meshopt_compression":{"buffer":0,"byteOffset":0,"byteLength":554,"byteStride":4,"mode":"ATTRIBUTES","count":309}}},{"buffer":1,"byteOffset":1236,"byteLength":13352,"byteStride":8,"target":34962,"extensions":{"EXT_meshopt_compression":{"buffer":0,"byteOffset":556,"byteLength":7969,"byteStride":8,"mode":"ATTRIBUTES","count":1669}}},{"buffer":1,"byteOffset":14588,"byteLength":6676,"byteStride":4,"target":34962,"extensions":{"EXT_meshopt_compression":{"buffer":0,"byteOffset":8528,"byteLength":5156,"byteStride":4,"mode":"ATTRIBUTES","count":1669}}},{"buffer":1,"byteOffset":21264,"byteLength":6676,"byteStride":4,"target":34962,"extensions":{"EXT_meshopt_compression":{"buffer":0,"byteOffset":13684,"byteLength":4858,"byteStride":4,"mode":"ATTRIBUTES","count":1669}}},{"buffer":1,"byteOffset":27940,"byteLength":9876,"target":34963,"extensions":{"EXT_meshopt_compression":{"buffer":0,"byteOffset":18544,"byteLength":1787,"byteStride":2,"mode":"TRIANGLES","count":4938}}}],"accessors":[{"bufferView":0,"byteOffset":0,"componentType":5121,"count":309,"type":"VEC4","normalized":true},{"bufferView":1,"byteOffset":0,"componentType":5123,"count":309,"type":"VEC3","min":[4721,0,4279],"max":[6826,16089,7986]},{"bufferView":2,"byteOffset":0,"componentType":5120,"count":309,"type":"VEC3","normalized":true},{"bufferView":3,"byteOffset":0,"componentType":5123,"count":309,"type":"VEC2","normalized":true},{"bufferView":4,"byteOffset":0,"componentType":5123,"count":1464,"type":"SCALAR"},{"bufferView":1,"byteOffset":2472,"componentType":5123,"count":1360,"type":"VEC3","min":[0,3171,0],"max":[12057,16383,11685]},{"bufferView":2,"byteOffset":1236,"componentType":5120,"count":1360,"type":"VEC3","normalized":true},{"bufferView":3,"byteOffset":1236,"componentType":5123,"count":1360,"type":"VEC2","normalized":true},{"bufferView":4,"byteOffset":2928,"componentType":5123,"count":3474,"type":"SCALAR"}],"samplers":[{"magFilter":9729,"minFilter":9987}],"images":[{"name":"Bark_NormalTree_Normal","uri":"Bark_NormalTree_Normal.ktx2"},{"name":"Bark_NormalTree","uri":"Bark_NormalTree.ktx2"},{"name":"Leaf_Pine_C","uri":"Leaf_Pine_C.ktx2"}],"textures":[{"sampler":0,"extensions":{"KHR_texture_basisu":{"source":0}}},{"sampler":0,"extensions":{"KHR_texture_basisu":{"source":1}}},{"sampler":0,"extensions":{"KHR_texture_basisu":{"source":2}}}],"materials":[{"name":"Bark_NormalTree","pbrMetallicRoughness":{"baseColorTexture":{"index":1,"extensions":{"KHR_texture_transform":{"offset":[0.000239999994,-9.73320007],"scale":[15.9959803,171.766663]}}},"metallicFactor":0},"normalTexture":{"index":0,"extensions":{"KHR_texture_transform":{"offset":[0.000239999994,-9.73320007],"scale":[15.9959803,171.766663]}}},"alphaMode":"MASK","alphaCutoff":0.200000003,"doubleSided":true},{"name":"Leaves_Pine","pbrMetallicRoughness":{"baseColorTexture":{"index":2,"extensions":{"KHR_texture_transform":{"offset":[0.169220001,0.000739991665],"scale":[10.4369497,15.9879789]}}},"metallicFactor":0},"alphaMode":"MASK","alphaCutoff":0.200000003,"doubleSided":true}],"meshes":[{"primitives":[{"attributes":{"COLOR_0":0,"POSITION":1,"NORMAL":2,"TEXCOORD_0":3},"indices":4,"material":0},{"attributes":{"POSITION":5,"NORMAL":6,"TEXCOORD_0":7},"indices":8,"material":1}]}],"nodes":[{"mesh":0,"translation":[-2.98770642,-0.235088617,-3.77840424],"scale":[0.000532491424,0.000532491424,0.000532491424]}],"scenes":[{"name":"Scene","nodes":[0]}],"scene":0}