{"asset":{"version":"2.0","generator":"gltfpack 1.0"},"extensionsUsed":["KHR_mesh_quantization","EXT_meshopt_compression","KHR_texture_transform","KHR_texture_basisu"],"extensionsRequired":["KHR_mesh_quantization","EXT_meshopt_compression","KHR_texture_basisu"],"buffers":[{"uri":"Pine_3.bin","byteLength":41576},{"byteLength":99824,"extensions":{"EXT_meshopt_compression":{"fallback":true}}}],"bufferViews":[{"buffer":1,"byteOffset":0,"byteLength":11896,"byteStride":4,"target":34962,"extensions":{"EXT_meshopt_compression":{"buffer":0,"byteOffset":0,"byteLength":734,"byteStride":4,"mode":"ATTRIBUTES","count":2974}}},{"buffer":1,"byteOffset":11896,"byteLength":29072,"byteStride":8,"target":34962,"extensions":{"EXT_meshopt_compression":{"buffer":0,"byteOffset":736,"byteLength":14622,"byteStride":8,"mode":"ATTRIBUTES","count":3634}}},{"buffer":1,"byteOffset":40968,"byteLength":14536,"byteStride":4,"target":34962,"extensions":{"EXT_meshopt_compression":{"buffer":0,"byteOffset":15360,"byteLength":11095,"byteStride":4,"mode":"ATTRIBUTES","count":3634}}},{"buffer":1,"byteOffset":55504,"byteLength":14536,"byteStride":4,"target":34962,"extensions":{"EXT_meshopt_compression":{"buffer":0,"byteOffset":26456,"byteLength":9663,"byteStride":4,"mode":"ATTRIBUTES","count":3634}}},{"buffer":1,"byteOffset":70040,"byteLength":29784,"target":34963,"extensions":{"EXT_meshopt_compression":{"buffer":0,"byteOffset":36120,"byteLength":5454,"byteStride":2,"mode":"TRIANGLES","count":14892}}}],"accessors":[{"bufferView":0,"byteOffset":0,"componentType":5121,"count":2974,"type":"VEC4","normalized":true},{"bufferView":1,"byteOffset":0,"componentType":5123,"count":2974,"type":"VEC3","min":[2583,0,2328],"max":[7078,16031,7556]},{"bufferView":2,"byteOffset":0,"componentType":5120,"count":2974,"type":"VEC3","normalized":true},{"bufferView":3,"byteOffset":0,"componentType":5123,"count":2974,"type":"VEC2","normalized":true},{"bufferView":4,"byteOffset":0,"componentType":5123,"count":13506,"type":"SCALAR"},{"bufferView":1,"byteOffset":23792,"componentType":5123,"count":660,"type":"VEC3","min":[0,7586,0],"max":[8004,16383,8856]},{"bufferView":2,"byteOffset":11896,"componentType":5120,"count":660,"type":"VEC3","normalized":true},{"bufferView":3,"byteOffset":11896,"componentType":5123,"count":660,"type":"VEC2","normalized":true},{"bufferView":4,"byteOffset":27012,"componentType":5123,"count":1386,"type":"SCALAR"}],"samplers":[{"magFilter":9729,"minFilter":9987}],"images":[{"name":"Bark_NormalTree_Normal","uri":"Bark_NormalTree_Normal.ktx2"},{"name":"Bark_NormalTree","uri":"Bark_NormalTree.ktx2"},{"name":"Leaf_Pine_C","uri":"Leaf_Pine_C.ktx2"}],"textures":[{"sampler":0,"extensions":{"KHR_texture_basisu":{"source":0}}},{"sampler":0,"extensions":{"KHR_texture_basisu":{"source":1}}},{"sampler":0,"extensions":{"KHR_texture_basisu":{"source":2}}}],"materials":[{"name":"Bark_NormalTree","pbrMetallicRoughness":{"baseColorTexture":{"index":1,"extensions":{"KHR_texture_transform":{"offset":[0.000239999994,-8.2842598],"scale":[15.9959803,148.578308]}}},"metallicFactor":0},"normalTexture":{"index":0,"extensions":{"KHR_texture_transform":{"offset":[0.000239999994,-8.2842598],"scale":[15.9959803,148.578308]}}},"alphaMode":"MASK","alphaCutoff":0.200000003,"doubleSided":true},{"name":"Leaves_Pine","pbrMetallicRoughness":{"baseColorTexture":{"index":2,"extensions":{"KHR_texture_transform":{"offset":[0.169220001,0.000739991665],"scale":[10.4369497,15.9879789]}}},"metallicFactor":0},"alphaMode":"MASK","alphaCutoff":0.200000003,"doubleSided":true}],"meshes":[{"primitives":[{"attributes":{"COLOR_0":0,"POSITION":1,"NORMAL":2,"TEXCOORD_0":3},"indices":4,"material":0},{"attributes":{"POSITION":5,"NORMAL":6,"TEXCOORD_0":7},"indices":8,"material":1}]}],"nodes":[{"mesh":0,"translation":[-2.11373687,-0.235088602,-2.29233861],"scale":[0.000451211556,0.000451211556,0.000451211556]}],"scenes":[{"name":"Scene","nodes":[0]}],"scene":0}