{"asset":{"version":"2.0","generator":"gltfpack 1.0"},"extensionsUsed":["KHR_mesh_quantization","EXT_meshopt_compression","KHR_texture_transform","KHR_texture_basisu"],"extensionsRequired":["KHR_mesh_quantization","EXT_meshopt_compression","KHR_texture_basisu"],"buffers":[{"uri":"Pine_1.bin","byteLength":35464},{"byteLength":81404,"extensions":{"EXT_meshopt_compression":{"fallback":true}}}],"bufferViews":[{"buffer":1,"byteOffset":0,"byteLength":8696,"byteStride":4,"target":34962,"extensions":{"EXT_meshopt_compression":{"buffer":0,"byteOffset":0,"byteLength":700,"byteStride":4,"mode":"ATTRIBUTES","count":2174}}},{"buffer":1,"byteOffset":8696,"byteLength":24512,"byteStride":8,"target":34962,"extensions":{"EXT_meshopt_compression":{"buffer":0,"byteOffset":700,"byteLength":12780,"byteStride":8,"mode":"ATTRIBUTES","count":3064}}},{"buffer":1,"byteOffset":33208,"byteLength":12256,"byteStride":4,"target":34962,"extensions":{"EXT_meshopt_compression":{"buffer":0,"byteOffset":13480,"byteLength":9333,"byteStride":4,"mode":"ATTRIBUTES","count":3064}}},{"buffer":1,"byteOffset":45464,"byteLength":12256,"byteStride":4,"target":34962,"extensions":{"EXT_meshopt_compression":{"buffer":0,"byteOffset":22816,"byteLength":8340,"byteStride":4,"mode":"ATTRIBUTES","count":3064}}},{"buffer":1,"byteOffset":57720,"byteLength":23682,"target":34963,"extensions":{"EXT_meshopt_compression":{"buffer":0,"byteOffset":31156,"byteLength":4306,"byteStride":2,"mode":"TRIANGLES","count":11841}}}],"accessors":[{"bufferView":0,"byteOffset":0,"componentType":5121,"count":2174,"type":"VEC4","normalized":true},{"bufferView":1,"byteOffset":0,"componentType":5123,"count":2174,"type":"VEC3","min":[3026,0,1341],"max":[8481,15803,8525]},{"bufferView":2,"byteOffset":0,"componentType":5120,"count":2174,"type":"VEC3","normalized":true},{"bufferView":3,"byteOffset":0,"componentType":5123,"count":2174,"type":"VEC2","normalized":true},{"bufferView":4,"byteOffset":0,"componentType":5123,"count":9531,"type":"SCALAR"},{"bufferView":1,"byteOffset":17392,"componentType":5123,"count":890,"type":"VEC3","min":[0,5360,0],"max":[11071,16383,10162]},{"bufferView":2,"byteOffset":8696,"componentType":5120,"count":890,"type":"VEC3","normalized":true},{"bufferView":3,"byteOffset":8696,"componentType":5123,"count":890,"type":"VEC2","normalized":true},{"bufferView":4,"byteOffset":19062,"componentType":5123,"count":2310,"type":"SCALAR"}],"samplers":[{"magFilter":9729,"minFilter":9987}],"images":[{"name":"Bark_NormalTree_Normal","uri":"Bark_NormalTree_Normal.ktx2"},{"name":"Bark_NormalTree","uri":"Bark_NormalTree.ktx2"},{"name":"Leaf_Pine_C","uri":"Leaf_Pine_C.ktx2"}],"textures":[{"sampler":0,"extensions":{"KHR_texture_basisu":{"source":0}}},{"sampler":0,"extensions":{"KHR_texture_basisu":{"source":1}}},{"sampler":0,"extensions":{"KHR_texture_basisu":{"source":2}}}],"materials":[{"name":"Bark_NormalTree","pbrMetallicRoughness":{"baseColorTexture":{"index":1,"extensions":{"KHR_texture_transform":{"offset":[0.000239999994,-8.28431034],"scale":[15.9959803,148.579117]}}},"metallicFactor":0},"normalTexture":{"index":0,"extensions":{"KHR_texture_transform":{"offset":[0.000239999994,-8.28431034],"scale":[15.9959803,148.579117]}}},"alphaMode":"MASK","alphaCutoff":0.200000003,"doubleSided":true},{"name":"Leaves_Pine","pbrMetallicRoughness":{"baseColorTexture":{"index":2,"extensions":{"KHR_texture_transform":{"offset":[0.169220001,0.000739991665],"scale":[10.4369497,15.9879789]}}},"metallicFactor":0},"alphaMode":"MASK","alphaCutoff":0.200000003,"doubleSided":true}],"meshes":[{"primitives":[{"attributes":{"COLOR_0":0,"POSITION":1,"NORMAL":2,"TEXCOORD_0":3},"indices":4,"material":0},{"attributes":{"POSITION":5,"NORMAL":6,"TEXCOORD_0":7},"indices":8,"material":1}]}],"nodes":[{"mesh":0,"translation":[-2.44881916,-0.235088602,-2.47693276],"scale":[0.000446616497,0.000446616497,0.000446616497]}],"scenes":[{"name":"Scene","nodes":[0]}],"scene":0}