{"asset":{"version":"2.0","generator":"gltfpack 1.0"},"extensionsUsed":["KHR_mesh_quantization","EXT_meshopt_compression","KHR_texture_transform","KHR_texture_basisu"],"extensionsRequired":["KHR_mesh_quantization","EXT_meshopt_compression","KHR_texture_basisu"],"buffers":[{"uri":"Pine_2.bin","byteLength":34268},{"byteLength":76524,"extensions":{"EXT_meshopt_compression":{"fallback":true}}}],"bufferViews":[{"buffer":1,"byteOffset":0,"byteLength":7612,"byteStride":4,"target":34962,"extensions":{"EXT_meshopt_compression":{"buffer":0,"byteOffset":0,"byteLength":702,"byteStride":4,"mode":"ATTRIBUTES","count":1903}}},{"buffer":1,"byteOffset":7612,"byteLength":23512,"byteStride":8,"target":34962,"extensions":{"EXT_meshopt_compression":{"buffer":0,"byteOffset":704,"byteLength":12511,"byteStride":8,"mode":"ATTRIBUTES","count":2939}}},{"buffer":1,"byteOffset":31124,"byteLength":11756,"byteStride":4,"target":34962,"extensions":{"EXT_meshopt_compression":{"buffer":0,"byteOffset":13216,"byteLength":8955,"byteStride":4,"mode":"ATTRIBUTES","count":2939}}},{"buffer":1,"byteOffset":42880,"byteLength":11756,"byteStride":4,"target":34962,"extensions":{"EXT_meshopt_compression":{"buffer":0,"byteOffset":22172,"byteLength":8098,"byteStride":4,"mode":"ATTRIBUTES","count":2939}}},{"buffer":1,"byteOffset":54636,"byteLength":21888,"target":34963,"extensions":{"EXT_meshopt_compression":{"buffer":0,"byteOffset":30272,"byteLength":3996,"byteStride":2,"mode":"TRIANGLES","count":10944}}}],"accessors":[{"bufferView":0,"byteOffset":0,"componentType":5121,"count":1903,"type":"VEC4","normalized":true},{"bufferView":1,"byteOffset":0,"componentType":5123,"count":1903,"type":"VEC3","min":[4469,0,1749],"max":[9375,15763,9127]},{"bufferView":2,"byteOffset":0,"componentType":5120,"count":1903,"type":"VEC3","normalized":true},{"bufferView":3,"byteOffset":0,"componentType":5123,"count":1903,"type":"VEC2","normalized":true},{"bufferView":4,"byteOffset":0,"componentType":5123,"count":8634,"type":"SCALAR"},{"bufferView":1,"byteOffset":15224,"componentType":5123,"count":1036,"type":"VEC3","min":[0,3004,0],"max":[12722,16383,11597]},{"bufferView":2,"byteOffset":7612,"componentType":5120,"count":1036,"type":"VEC3","normalized":true},{"bufferView":3,"byteOffset":7612,"componentType":5123,"count":1036,"type":"VEC2","normalized":true},{"bufferView":4,"byteOffset":17268,"componentType":5123,"count":2310,"type":"SCALAR"}],"samplers":[{"magFilter":9729,"minFilter":9987}],"images":[{"name":"Bark_NormalTree_Normal","uri":"Bark_NormalTree_Normal.ktx2"},{"name":"Bark_NormalTree","uri":"Bark_NormalTree.ktx2"},{"name":"Leaf_Pine_C","uri":"Leaf_Pine_C.ktx2"}],"textures":[{"sampler":0,"extensions":{"KHR_texture_basisu":{"source":0}}},{"sampler":0,"extensions":{"KHR_texture_basisu":{"source":1}}},{"sampler":0,"extensions":{"KHR_texture_basisu":{"source":2}}}],"materials":[{"name":"Bark_NormalTree","pbrMetallicRoughness":{"baseColorTexture":{"index":1,"extensions":{"KHR_texture_transform":{"offset":[0.000239999994,-8.28431034],"scale":[15.9959803,148.579117]}}},"metallicFactor":0},"normalTexture":{"index":0,"extensions":{"KHR_texture_transform":{"offset":[0.000239999994,-8.28431034],"scale":[15.9959803,148.579117]}}},"alphaMode":"MASK","alphaCutoff":0.200000003,"doubleSided":true},{"name":"Leaves_Pine","pbrMetallicRoughness":{"baseColorTexture":{"index":2,"extensions":{"KHR_texture_transform":{"offset":[0.169220001,0.000739991665],"scale":[10.4369497,15.9879789]}}},"metallicFactor":0},"alphaMode":"MASK","alphaCutoff":0.200000003,"doubleSided":true}],"meshes":[{"primitives":[{"attributes":{"COLOR_0":0,"POSITION":1,"NORMAL":2,"TEXCOORD_0":3},"indices":4,"material":0},{"attributes":{"POSITION":5,"NORMAL":6,"TEXCOORD_0":7},"indices":8,"material":1}]}],"nodes":[{"mesh":0,"translation":[-2.89195824,-0.235088602,-2.69369888],"scale":[0.000450237334,0.000450237334,0.000450237334]}],"scenes":[{"name":"Scene","nodes":[0]}],"scene":0}