{"asset":{"version":"2.0","generator":"gltfpack 1.0"},"extensionsUsed":["KHR_mesh_quantization","EXT_meshopt_compression","KHR_texture_transform","KHR_texture_basisu"],"extensionsRequired":["KHR_mesh_quantization","EXT_meshopt_compression","KHR_texture_basisu"],"buffers":[{"uri":"Pine_4.bin","byteLength":35268},{"byteLength":74776,"extensions":{"EXT_meshopt_compression":{"fallback":true}}}],"bufferViews":[{"buffer":1,"byteOffset":0,"byteLength":6188,"byteStride":4,"target":34962,"extensions":{"EXT_meshopt_compression":{"buffer":0,"byteOffset":0,"byteLength":640,"byteStride":4,"mode":"ATTRIBUTES","count":1547}}},{"buffer":1,"byteOffset":6188,"byteLength":24184,"byteStride":8,"target":34962,"extensions":{"EXT_meshopt_compression":{"buffer":0,"byteOffset":640,"byteLength":13215,"byteStride":8,"mode":"ATTRIBUTES","count":3023}}},{"buffer":1,"byteOffset":30372,"byteLength":12092,"byteStride":4,"target":34962,"extensions":{"EXT_meshopt_compression":{"buffer":0,"byteOffset":13856,"byteLength":9242,"byteStride":4,"mode":"ATTRIBUTES","count":3023}}},{"buffer":1,"byteOffset":42464,"byteLength":12092,"byteStride":4,"target":34962,"extensions":{"EXT_meshopt_compression":{"buffer":0,"byteOffset":23100,"byteLength":8525,"byteStride":4,"mode":"ATTRIBUTES","count":3023}}},{"buffer":1,"byteOffset":54556,"byteLength":20220,"target":34963,"extensions":{"EXT_meshopt_compression":{"buffer":0,"byteOffset":31628,"byteLength":3639,"byteStride":2,"mode":"TRIANGLES","count":10110}}}],"accessors":[{"bufferView":0,"byteOffset":0,"componentType":5121,"count":1547,"type":"VEC4","normalized":true},{"bufferView":1,"byteOffset":0,"componentType":5123,"count":1547,"type":"VEC3","min":[1439,0,1519],"max":[7762,15901,6055]},{"bufferView":2,"byteOffset":0,"componentType":5120,"count":1547,"type":"VEC3","normalized":true},{"bufferView":3,"byteOffset":0,"componentType":5123,"count":1547,"type":"VEC2","normalized":true},{"bufferView":4,"byteOffset":0,"componentType":5123,"count":6480,"type":"SCALAR"},{"bufferView":1,"byteOffset":12376,"componentType":5123,"count":1476,"type":"VEC3","min":[0,4280,0],"max":[9286,16383,8596]},{"bufferView":2,"byteOffset":6188,"componentType":5120,"count":1476,"type":"VEC3","normalized":true},{"bufferView":3,"byteOffset":6188,"componentType":5123,"count":1476,"type":"VEC2","normalized":true},{"bufferView":4,"byteOffset":12960,"componentType":5123,"count":3630,"type":"SCALAR"}],"samplers":[{"magFilter":9729,"minFilter":9987}],"images":[{"name":"Bark_NormalTree_Normal","uri":"Bark_NormalTree_Normal.ktx2"},{"name":"Bark_NormalTree","uri":"Bark_NormalTree.ktx2"},{"name":"Leaf_Pine_C","uri":"Leaf_Pine_C.ktx2"}],"textures":[{"sampler":0,"extensions":{"KHR_texture_basisu":{"source":0}}},{"sampler":0,"extensions":{"KHR_texture_basisu":{"source":1}}},{"sampler":0,"extensions":{"KHR_texture_basisu":{"source":2}}}],"materials":[{"name":"Bark_NormalTree","pbrMetallicRoughness":{"baseColorTexture":{"index":1,"extensions":{"KHR_texture_transform":{"offset":[0.000239999994,-10.12045],"scale":[15.9959803,177.964081]}}},"metallicFactor":0},"normalTexture":{"index":0,"extensions":{"KHR_texture_transform":{"offset":[0.000239999994,-10.12045],"scale":[15.9959803,177.964081]}}},"alphaMode":"MASK","alphaCutoff":0.200000003,"doubleSided":true},{"name":"Leaves_Pine","pbrMetallicRoughness":{"baseColorTexture":{"index":2,"extensions":{"KHR_texture_transform":{"offset":[0.169220001,0.000739991665],"scale":[10.4369497,15.9879789]}}},"metallicFactor":0},"alphaMode":"MASK","alphaCutoff":0.200000003,"doubleSided":true}],"meshes":[{"primitives":[{"attributes":{"COLOR_0":0,"POSITION":1,"NORMAL":2,"TEXCOORD_0":3},"indices":4,"material":0},{"attributes":{"POSITION":5,"NORMAL":6,"TEXCOORD_0":7},"indices":8,"material":1}]}],"nodes":[{"mesh":0,"translation":[-2.87183714,-0.235088617,-2.94590735],"scale":[0.000624820299,0.000624820299,0.000624820299]}],"scenes":[{"name":"Scene","nodes":[0]}],"scene":0}