{"asset":{"version":"2.0","generator":"gltfpack 1.0"},"extensionsUsed":["KHR_mesh_quantization","EXT_meshopt_compression","KHR_texture_transform","KHR_texture_basisu"],"extensionsRequired":["KHR_mesh_quantization","EXT_meshopt_compression","KHR_texture_basisu"],"buffers":[{"uri":"Plant_1_Big.bin","byteLength":5676},{"byteLength":9360,"extensions":{"EXT_meshopt_compression":{"fallback":true}}}],"bufferViews":[{"buffer":1,"byteOffset":0,"byteLength":1440,"byteStride":4,"target":34962,"extensions":{"EXT_meshopt_compression":{"buffer":0,"byteOffset":0,"byteLength":957,"byteStride":4,"mode":"ATTRIBUTES","count":360}}},{"buffer":1,"byteOffset":1440,"byteLength":2880,"byteStride":8,"target":34962,"extensions":{"EXT_meshopt_compression":{"buffer":0,"byteOffset":960,"byteLength":1895,"byteStride":8,"mode":"ATTRIBUTES","count":360}}},{"buffer":1,"byteOffset":4320,"byteLength":1440,"byteStride":4,"target":34962,"extensions":{"EXT_meshopt_compression":{"buffer":0,"byteOffset":2856,"byteLength":1145,"byteStride":4,"mode":"ATTRIBUTES","count":360}}},{"buffer":1,"byteOffset":5760,"byteLength":1440,"byteStride":4,"target":34962,"extensions":{"EXT_meshopt_compression":{"buffer":0,"byteOffset":4004,"byteLength":1276,"byteStride":4,"mode":"ATTRIBUTES","count":360}}},{"buffer":1,"byteOffset":7200,"byteLength":2160,"target":34963,"extensions":{"EXT_meshopt_compression":{"buffer":0,"byteOffset":5280,"byteLength":395,"byteStride":2,"mode":"TRIANGLES","count":1080}}}],"accessors":[{"bufferView":0,"byteOffset":0,"componentType":5121,"count":360,"type":"VEC4","normalized":true},{"bufferView":1,"byteOffset":0,"componentType":5123,"count":360,"type":"VEC3","min":[0,0,0],"max":[12606,16383,13635]},{"bufferView":2,"byteOffset":0,"componentType":5120,"count":360,"type":"VEC3","normalized":true},{"bufferView":3,"byteOffset":0,"componentType":5123,"count":360,"type":"VEC2","normalized":true},{"bufferView":4,"byteOffset":0,"componentType":5123,"count":1080,"type":"SCALAR"}],"samplers":[{"magFilter":9729,"minFilter":9987}],"images":[{"name":"Leaves","uri":"Leaves.ktx2"}],"textures":[{"sampler":0,"extensions":{"KHR_texture_basisu":{"source":0}}}],"materials":[{"name":"Leaves","pbrMetallicRoughness":{"baseColorTexture":{"index":0,"extensions":{"KHR_texture_transform":{"offset":[0.220695615,0.0409990549],"scale":[2.39070392,6.50339794]}}},"metallicFactor":0},"alphaMode":"MASK","alphaCutoff":0.200000003,"doubleSided":true}],"meshes":[{"primitives":[{"attributes":{"COLOR_0":0,"POSITION":1,"NORMAL":2,"TEXCOORD_0":3},"indices":4,"material":0}]}],"nodes":[{"mesh":0,"translation":[-0.87132597,-0.0350240022,-1.03648877],"scale":[0.000143305006,0.000143305006,0.000143305006]}],"scenes":[{"name":"Scene","nodes":[0]}],"scene":0}