{"asset":{"version":"2.0","generator":"gltfpack 1.0"},"extensionsUsed":["KHR_mesh_quantization","EXT_meshopt_compression","KHR_texture_transform","KHR_texture_basisu"],"extensionsRequired":["KHR_mesh_quantization","EXT_meshopt_compression","KHR_texture_basisu"],"buffers":[{"uri":"Plant_1.bin","byteLength":2008},{"byteLength":3120,"extensions":{"EXT_meshopt_compression":{"fallback":true}}}],"bufferViews":[{"buffer":1,"byteOffset":0,"byteLength":480,"byteStride":4,"target":34962,"extensions":{"EXT_meshopt_compression":{"buffer":0,"byteOffset":0,"byteLength":281,"byteStride":4,"mode":"ATTRIBUTES","count":120}}},{"buffer":1,"byteOffset":480,"byteLength":960,"byteStride":8,"target":34962,"extensions":{"EXT_meshopt_compression":{"buffer":0,"byteOffset":284,"byteLength":708,"byteStride":8,"mode":"ATTRIBUTES","count":120}}},{"buffer":1,"byteOffset":1440,"byteLength":480,"byteStride":4,"target":34962,"extensions":{"EXT_meshopt_compression":{"buffer":0,"byteOffset":992,"byteLength":413,"byteStride":4,"mode":"ATTRIBUTES","count":120}}},{"buffer":1,"byteOffset":1920,"byteLength":480,"byteStride":4,"target":34962,"extensions":{"EXT_meshopt_compression":{"buffer":0,"byteOffset":1408,"byteLength":456,"byteStride":4,"mode":"ATTRIBUTES","count":120}}},{"buffer":1,"byteOffset":2400,"byteLength":720,"target":34963,"extensions":{"EXT_meshopt_compression":{"buffer":0,"byteOffset":1864,"byteLength":143,"byteStride":2,"mode":"TRIANGLES","count":360}}}],"accessors":[{"bufferView":0,"byteOffset":0,"componentType":5121,"count":120,"type":"VEC4","normalized":true},{"bufferView":1,"byteOffset":0,"componentType":5123,"count":120,"type":"VEC3","min":[0,0,0],"max":[15052,11981,16383]},{"bufferView":2,"byteOffset":0,"componentType":5120,"count":120,"type":"VEC3","normalized":true},{"bufferView":3,"byteOffset":0,"componentType":5123,"count":120,"type":"VEC2","normalized":true},{"bufferView":4,"byteOffset":0,"componentType":5123,"count":360,"type":"SCALAR"}],"samplers":[{"magFilter":9729,"minFilter":9987}],"images":[{"name":"Leaves","uri":"Leaves.ktx2"}],"textures":[{"sampler":0,"extensions":{"KHR_texture_basisu":{"source":0}}}],"materials":[{"name":"Leaves","pbrMetallicRoughness":{"baseColorTexture":{"index":0,"extensions":{"KHR_texture_transform":{"offset":[0.220695615,0.0409990549],"scale":[2.39070392,6.50339794]}}},"metallicFactor":0},"alphaMode":"MASK","alphaCutoff":0.200000003,"doubleSided":true}],"meshes":[{"primitives":[{"attributes":{"COLOR_0":0,"POSITION":1,"NORMAL":2,"TEXCOORD_0":3},"indices":4,"material":0}]}],"nodes":[{"mesh":0,"translation":[-0.710723758,-0.0350240022,-0.763592064],"scale":[8.46015682e-05,8.46015682e-05,8.46015682e-05]}],"scenes":[{"name":"Scene","nodes":[0]}],"scene":0}