{"asset":{"version":"2.0","generator":"gltfpack 1.0"},"extensionsUsed":["KHR_mesh_quantization","EXT_meshopt_compression","KHR_texture_transform","KHR_texture_basisu"],"extensionsRequired":["KHR_mesh_quantization","EXT_meshopt_compression","KHR_texture_basisu"],"buffers":[{"uri":"Plant_7_Big.bin","byteLength":1808},{"byteLength":2688,"extensions":{"EXT_meshopt_compression":{"fallback":true}}}],"bufferViews":[{"buffer":1,"byteOffset":0,"byteLength":1008,"byteStride":8,"target":34962,"extensions":{"EXT_meshopt_compression":{"buffer":0,"byteOffset":0,"byteLength":734,"byteStride":8,"mode":"ATTRIBUTES","count":126}}},{"buffer":1,"byteOffset":1008,"byteLength":504,"byteStride":4,"target":34962,"extensions":{"EXT_meshopt_compression":{"buffer":0,"byteOffset":736,"byteLength":422,"byteStride":4,"mode":"ATTRIBUTES","count":126}}},{"buffer":1,"byteOffset":1512,"byteLength":504,"byteStride":4,"target":34962,"extensions":{"EXT_meshopt_compression":{"buffer":0,"byteOffset":1160,"byteLength":516,"byteStride":4,"mode":"ATTRIBUTES","count":126}}},{"buffer":1,"byteOffset":2016,"byteLength":672,"target":34963,"extensions":{"EXT_meshopt_compression":{"buffer":0,"byteOffset":1676,"byteLength":129,"byteStride":2,"mode":"TRIANGLES","count":336}}}],"accessors":[{"bufferView":0,"byteOffset":0,"componentType":5123,"count":126,"type":"VEC3","min":[0,0,0],"max":[15765,3048,16383]},{"bufferView":1,"byteOffset":0,"componentType":5120,"count":126,"type":"VEC3","normalized":true},{"bufferView":2,"byteOffset":0,"componentType":5123,"count":126,"type":"VEC2","normalized":true},{"bufferView":3,"byteOffset":0,"componentType":5123,"count":336,"type":"SCALAR"}],"samplers":[{"magFilter":9729,"minFilter":9987}],"images":[{"name":"Leaves","uri":"Leaves.ktx2"}],"textures":[{"sampler":0,"extensions":{"KHR_texture_basisu":{"source":0}}}],"materials":[{"name":"Leaves","pbrMetallicRoughness":{"baseColorTexture":{"index":0,"extensions":{"KHR_texture_transform":{"offset":[0.615811527,0.704908371],"scale":[2.02544785,2.33072805]}}},"metallicFactor":0},"alphaMode":"MASK","alphaCutoff":0.200000003,"doubleSided":true}],"meshes":[{"primitives":[{"attributes":{"POSITION":0,"NORMAL":1,"TEXCOORD_0":2},"indices":3,"material":0}]}],"nodes":[{"mesh":0,"translation":[-0.701056778,0.0503115281,-0.850527942],"scale":[8.31455764e-05,8.31455764e-05,8.31455764e-05]}],"scenes":[{"name":"Scene","nodes":[0]}],"scene":0}