{"asset":{"version":"2.0","generator":"gltfpack 1.0"},"extensionsUsed":["KHR_mesh_quantization","EXT_meshopt_compression","KHR_texture_transform","KHR_texture_basisu"],"extensionsRequired":["KHR_mesh_quantization","EXT_meshopt_compression","KHR_texture_basisu"],"buffers":[{"uri":"RockPath_Round_Thin.bin","byteLength":40592},{"byteLength":85556,"extensions":{"EXT_meshopt_compression":{"fallback":true}}}],"bufferViews":[{"buffer":1,"byteOffset":0,"byteLength":36016,"byteStride":8,"target":34962,"extensions":{"EXT_meshopt_compression":{"buffer":0,"byteOffset":0,"byteLength":19647,"byteStride":8,"mode":"ATTRIBUTES","count":4502}}},{"buffer":1,"byteOffset":36016,"byteLength":18008,"byteStride":4,"target":34962,"extensions":{"EXT_meshopt_compression":{"buffer":0,"byteOffset":19648,"byteLength":6573,"byteStride":4,"mode":"ATTRIBUTES","count":4502}}},{"buffer":1,"byteOffset":54024,"byteLength":18008,"byteStride":4,"target":34962,"extensions":{"EXT_meshopt_compression":{"buffer":0,"byteOffset":26224,"byteLength":12087,"byteStride":4,"mode":"ATTRIBUTES","count":4502}}},{"buffer":1,"byteOffset":72032,"byteLength":13524,"target":34963,"extensions":{"EXT_meshopt_compression":{"buffer":0,"byteOffset":38312,"byteLength":2278,"byteStride":2,"mode":"TRIANGLES","count":6762}}}],"accessors":[{"bufferView":0,"byteOffset":0,"componentType":5123,"count":4502,"type":"VEC3","min":[0,0,0],"max":[11428,865,16383]},{"bufferView":1,"byteOffset":0,"componentType":5120,"count":4502,"type":"VEC3","normalized":true},{"bufferView":2,"byteOffset":0,"componentType":5123,"count":4502,"type":"VEC2","normalized":true},{"bufferView":3,"byteOffset":0,"componentType":5123,"count":6762,"type":"SCALAR"}],"samplers":[{"magFilter":9729,"minFilter":9987}],"images":[{"name":"PathRocks_Diffuse","uri":"PathRocks_Diffuse.ktx2"}],"textures":[{"sampler":0,"extensions":{"KHR_texture_basisu":{"source":0}}}],"materials":[{"name":"PathRocks","pbrMetallicRoughness":{"baseColorTexture":{"index":0,"extensions":{"KHR_texture_transform":{"offset":[0.001953125,0.113553464],"scale":[14.2224989,14.1551352]}}},"metallicFactor":0},"doubleSided":true}],"meshes":[{"primitives":[{"attributes":{"POSITION":0,"NORMAL":1,"TEXCOORD_0":2},"indices":3,"material":0}]}],"nodes":[{"mesh":0,"translation":[-0.697072923,-0.00886205584,-1.08610141],"scale":[0.000127522813,0.000127522813,0.000127522813]}],"scenes":[{"name":"Scene","nodes":[0]}],"scene":0}