{"asset":{"version":"2.0","generator":"gltfpack 1.0"},"extensionsUsed":["KHR_mesh_quantization","EXT_meshopt_compression","KHR_texture_transform","KHR_texture_basisu"],"extensionsRequired":["KHR_mesh_quantization","EXT_meshopt_compression","KHR_texture_basisu"],"buffers":[{"uri":"Rock_Medium_2.bin","byteLength":3028},{"byteLength":5448,"extensions":{"EXT_meshopt_compression":{"fallback":true}}}],"bufferViews":[{"buffer":1,"byteOffset":0,"byteLength":1992,"byteStride":8,"target":34962,"extensions":{"EXT_meshopt_compression":{"buffer":0,"byteOffset":0,"byteLength":1390,"byteStride":8,"mode":"ATTRIBUTES","count":249}}},{"buffer":1,"byteOffset":1992,"byteLength":996,"byteStride":4,"target":34962,"extensions":{"EXT_meshopt_compression":{"buffer":0,"byteOffset":1392,"byteLength":667,"byteStride":4,"mode":"ATTRIBUTES","count":249}}},{"buffer":1,"byteOffset":2988,"byteLength":996,"byteStride":4,"target":34962,"extensions":{"EXT_meshopt_compression":{"buffer":0,"byteOffset":2060,"byteLength":700,"byteStride":4,"mode":"ATTRIBUTES","count":249}}},{"buffer":1,"byteOffset":3984,"byteLength":1464,"target":34963,"extensions":{"EXT_meshopt_compression":{"buffer":0,"byteOffset":2760,"byteLength":266,"byteStride":2,"mode":"TRIANGLES","count":732}}}],"accessors":[{"bufferView":0,"byteOffset":0,"componentType":5123,"count":249,"type":"VEC3","min":[0,0,0],"max":[16383,10204,13322]},{"bufferView":1,"byteOffset":0,"componentType":5120,"count":249,"type":"VEC3","normalized":true},{"bufferView":2,"byteOffset":0,"componentType":5123,"count":249,"type":"VEC2","normalized":true},{"bufferView":3,"byteOffset":0,"componentType":5123,"count":732,"type":"SCALAR"}],"samplers":[{"magFilter":9729,"minFilter":9987}],"images":[{"name":"Rocks_Diffuse","uri":"Rocks_Diffuse.ktx2"}],"textures":[{"sampler":0,"extensions":{"KHR_texture_basisu":{"source":0}}}],"materials":[{"name":"Rocks","pbrMetallicRoughness":{"baseColorTexture":{"index":0,"extensions":{"KHR_texture_transform":{"offset":[0.001953125,0.0584741831],"scale":[13.4904089,15.0366039]}}},"metallicFactor":0},"doubleSided":true}],"meshes":[{"primitives":[{"attributes":{"POSITION":0,"NORMAL":1,"TEXCOORD_0":2},"indices":3,"material":0}]}],"nodes":[{"mesh":0,"translation":[-1.71364188,-0.0508415885,-1.15912533],"scale":[0.000186092933,0.000186092933,0.000186092933]}],"scenes":[{"name":"Scene","nodes":[0]}],"scene":0}