{"asset":{"version":"2.0","generator":"gltfpack 1.0"},"extensionsUsed":["KHR_mesh_quantization","EXT_meshopt_compression","KHR_texture_transform","KHR_texture_basisu"],"extensionsRequired":["KHR_mesh_quantization","EXT_meshopt_compression","KHR_texture_basisu"],"buffers":[{"uri":"RockPath_Square_Small_3.bin","byteLength":11056},{"byteLength":21856,"extensions":{"EXT_meshopt_compression":{"fallback":true}}}],"bufferViews":[{"buffer":1,"byteOffset":0,"byteLength":9224,"byteStride":8,"target":34962,"extensions":{"EXT_meshopt_compression":{"buffer":0,"byteOffset":0,"byteLength":5595,"byteStride":8,"mode":"ATTRIBUTES","count":1153}}},{"buffer":1,"byteOffset":9224,"byteLength":4612,"byteStride":4,"target":34962,"extensions":{"EXT_meshopt_compression":{"buffer":0,"byteOffset":5596,"byteLength":1653,"byteStride":4,"mode":"ATTRIBUTES","count":1153}}},{"buffer":1,"byteOffset":13836,"byteLength":4612,"byteStride":4,"target":34962,"extensions":{"EXT_meshopt_compression":{"buffer":0,"byteOffset":7252,"byteLength":3215,"byteStride":4,"mode":"ATTRIBUTES","count":1153}}},{"buffer":1,"byteOffset":18448,"byteLength":3408,"target":34963,"extensions":{"EXT_meshopt_compression":{"buffer":0,"byteOffset":10468,"byteLength":587,"byteStride":2,"mode":"TRIANGLES","count":1704}}}],"accessors":[{"bufferView":0,"byteOffset":0,"componentType":5123,"count":1153,"type":"VEC3","min":[0,0,0],"max":[12723,2643,16383]},{"bufferView":1,"byteOffset":0,"componentType":5120,"count":1153,"type":"VEC3","normalized":true},{"bufferView":2,"byteOffset":0,"componentType":5123,"count":1153,"type":"VEC2","normalized":true},{"bufferView":3,"byteOffset":0,"componentType":5123,"count":1704,"type":"SCALAR"}],"samplers":[{"magFilter":9729,"minFilter":9987}],"images":[{"name":"PathRocks_Diffuse","uri":"PathRocks_Diffuse.ktx2"}],"textures":[{"sampler":0,"extensions":{"KHR_texture_basisu":{"source":0}}}],"materials":[{"name":"PathRocks","pbrMetallicRoughness":{"baseColorTexture":{"index":0,"extensions":{"KHR_texture_transform":{"offset":[0.127077565,0.001953125],"scale":[13.552701,15.9411488]}}},"metallicFactor":0},"doubleSided":true}],"meshes":[{"primitives":[{"attributes":{"POSITION":0,"NORMAL":1,"TEXCOORD_0":2},"indices":3,"material":0}]}],"nodes":[{"mesh":0,"translation":[-0.39611575,-0.00811817031,-0.548754334],"scale":[6.56954653e-05,6.56954653e-05,6.56954653e-05]}],"scenes":[{"name":"Scene","nodes":[0]}],"scene":0}