{"asset":{"version":"2.0","generator":"gltfpack 1.0"},"extensionsUsed":["KHR_mesh_quantization","EXT_meshopt_compression","KHR_texture_transform","KHR_texture_basisu"],"extensionsRequired":["KHR_mesh_quantization","EXT_meshopt_compression","KHR_texture_basisu"],"buffers":[{"uri":"RockPath_Square_Small_2.bin","byteLength":11108},{"byteLength":21612,"extensions":{"EXT_meshopt_compression":{"fallback":true}}}],"bufferViews":[{"buffer":1,"byteOffset":0,"byteLength":9128,"byteStride":8,"target":34962,"extensions":{"EXT_meshopt_compression":{"buffer":0,"byteOffset":0,"byteLength":5626,"byteStride":8,"mode":"ATTRIBUTES","count":1141}}},{"buffer":1,"byteOffset":9128,"byteLength":4564,"byteStride":4,"target":34962,"extensions":{"EXT_meshopt_compression":{"buffer":0,"byteOffset":5628,"byteLength":1652,"byteStride":4,"mode":"ATTRIBUTES","count":1141}}},{"buffer":1,"byteOffset":13692,"byteLength":4564,"byteStride":4,"target":34962,"extensions":{"EXT_meshopt_compression":{"buffer":0,"byteOffset":7280,"byteLength":3242,"byteStride":4,"mode":"ATTRIBUTES","count":1141}}},{"buffer":1,"byteOffset":18256,"byteLength":3354,"target":34963,"extensions":{"EXT_meshopt_compression":{"buffer":0,"byteOffset":10524,"byteLength":581,"byteStride":2,"mode":"TRIANGLES","count":1677}}}],"accessors":[{"bufferView":0,"byteOffset":0,"componentType":5123,"count":1141,"type":"VEC3","min":[0,0,0],"max":[16383,2464,15943]},{"bufferView":1,"byteOffset":0,"componentType":5120,"count":1141,"type":"VEC3","normalized":true},{"bufferView":2,"byteOffset":0,"componentType":5123,"count":1141,"type":"VEC2","normalized":true},{"bufferView":3,"byteOffset":0,"componentType":5123,"count":1677,"type":"SCALAR"}],"samplers":[{"magFilter":9729,"minFilter":9987}],"images":[{"name":"PathRocks_Diffuse","uri":"PathRocks_Diffuse.ktx2"}],"textures":[{"sampler":0,"extensions":{"KHR_texture_basisu":{"source":0}}}],"materials":[{"name":"PathRocks","pbrMetallicRoughness":{"baseColorTexture":{"index":0,"extensions":{"KHR_texture_transform":{"offset":[0.242933527,0.133603811],"scale":[11.8059225,13.8342562]}}},"metallicFactor":0},"doubleSided":true}],"meshes":[{"primitives":[{"attributes":{"POSITION":0,"NORMAL":1,"TEXCOORD_0":2},"indices":3,"material":0}]}],"nodes":[{"mesh":0,"translation":[-0.497539282,-0.0132054584,-0.493947536],"scale":[6.05946334e-05,6.05946334e-05,6.05946334e-05]}],"scenes":[{"name":"Scene","nodes":[0]}],"scene":0}