{"asset":{"version":"2.0","generator":"gltfpack 1.0"},"extensionsUsed":["KHR_mesh_quantization","EXT_meshopt_compression","KHR_texture_transform","KHR_texture_basisu"],"extensionsRequired":["KHR_mesh_quantization","EXT_meshopt_compression","KHR_texture_basisu"],"buffers":[{"uri":"RockPath_Round_Small_2.bin","byteLength":20560},{"byteLength":42436,"extensions":{"EXT_meshopt_compression":{"fallback":true}}}],"bufferViews":[{"buffer":1,"byteOffset":0,"byteLength":17840,"byteStride":8,"target":34962,"extensions":{"EXT_meshopt_compression":{"buffer":0,"byteOffset":0,"byteLength":10124,"byteStride":8,"mode":"ATTRIBUTES","count":2230}}},{"buffer":1,"byteOffset":17840,"byteLength":8920,"byteStride":4,"target":34962,"extensions":{"EXT_meshopt_compression":{"buffer":0,"byteOffset":10124,"byteLength":3279,"byteStride":4,"mode":"ATTRIBUTES","count":2230}}},{"buffer":1,"byteOffset":26760,"byteLength":8920,"byteStride":4,"target":34962,"extensions":{"EXT_meshopt_compression":{"buffer":0,"byteOffset":13404,"byteLength":6007,"byteStride":4,"mode":"ATTRIBUTES","count":2230}}},{"buffer":1,"byteOffset":35680,"byteLength":6756,"target":34963,"extensions":{"EXT_meshopt_compression":{"buffer":0,"byteOffset":19412,"byteLength":1146,"byteStride":2,"mode":"TRIANGLES","count":3378}}}],"accessors":[{"bufferView":0,"byteOffset":0,"componentType":5123,"count":2230,"type":"VEC3","min":[0,0,0],"max":[13785,1266,16383]},{"bufferView":1,"byteOffset":0,"componentType":5120,"count":2230,"type":"VEC3","normalized":true},{"bufferView":2,"byteOffset":0,"componentType":5123,"count":2230,"type":"VEC2","normalized":true},{"bufferView":3,"byteOffset":0,"componentType":5123,"count":3378,"type":"SCALAR"}],"samplers":[{"magFilter":9729,"minFilter":9987}],"images":[{"name":"PathRocks_Diffuse","uri":"PathRocks_Diffuse.ktx2"}],"textures":[{"sampler":0,"extensions":{"KHR_texture_basisu":{"source":0}}}],"materials":[{"name":"PathRocks","pbrMetallicRoughness":{"baseColorTexture":{"index":0,"extensions":{"KHR_texture_transform":{"offset":[0.001953125,0.113553464],"scale":[13.8148098,14.1551352]}}},"metallicFactor":0},"doubleSided":true}],"meshes":[{"primitives":[{"attributes":{"POSITION":0,"NORMAL":1,"TEXCOORD_0":2},"indices":3,"material":0}]}],"nodes":[{"mesh":0,"translation":[-0.560276389,-0.00779797137,-0.758797646],"scale":[8.26639662e-05,8.26639662e-05,8.26639662e-05]}],"scenes":[{"name":"Scene","nodes":[0]}],"scene":0}