{"asset":{"version":"2.0","generator":"gltfpack 1.0"},"extensionsUsed":["KHR_mesh_quantization","EXT_meshopt_compression","KHR_texture_transform","KHR_texture_basisu"],"extensionsRequired":["KHR_mesh_quantization","EXT_meshopt_compression","KHR_texture_basisu"],"buffers":[{"uri":"RockPath_Square_Wide.bin","byteLength":42496},{"byteLength":87440,"extensions":{"EXT_meshopt_compression":{"fallback":true}}}],"bufferViews":[{"buffer":1,"byteOffset":0,"byteLength":36952,"byteStride":8,"target":34962,"extensions":{"EXT_meshopt_compression":{"buffer":0,"byteOffset":0,"byteLength":20953,"byteStride":8,"mode":"ATTRIBUTES","count":4619}}},{"buffer":1,"byteOffset":36952,"byteLength":18476,"byteStride":4,"target":34962,"extensions":{"EXT_meshopt_compression":{"buffer":0,"byteOffset":20956,"byteLength":6579,"byteStride":4,"mode":"ATTRIBUTES","count":4619}}},{"buffer":1,"byteOffset":55428,"byteLength":18476,"byteStride":4,"target":34962,"extensions":{"EXT_meshopt_compression":{"buffer":0,"byteOffset":27536,"byteLength":12671,"byteStride":4,"mode":"ATTRIBUTES","count":4619}}},{"buffer":1,"byteOffset":73904,"byteLength":13536,"target":34963,"extensions":{"EXT_meshopt_compression":{"buffer":0,"byteOffset":40208,"byteLength":2287,"byteStride":2,"mode":"TRIANGLES","count":6768}}}],"accessors":[{"bufferView":0,"byteOffset":0,"componentType":5123,"count":4619,"type":"VEC3","min":[0,0,0],"max":[16383,1408,15867]},{"bufferView":1,"byteOffset":0,"componentType":5120,"count":4619,"type":"VEC3","normalized":true},{"bufferView":2,"byteOffset":0,"componentType":5123,"count":4619,"type":"VEC2","normalized":true},{"bufferView":3,"byteOffset":0,"componentType":5123,"count":6768,"type":"SCALAR"}],"samplers":[{"magFilter":9729,"minFilter":9987}],"images":[{"name":"PathRocks_Diffuse","uri":"PathRocks_Diffuse.ktx2"}],"textures":[{"sampler":0,"extensions":{"KHR_texture_basisu":{"source":0}}}],"materials":[{"name":"PathRocks","pbrMetallicRoughness":{"baseColorTexture":{"index":0,"extensions":{"KHR_texture_transform":{"offset":[0.001953125,0.001953125],"scale":[15.6624918,15.9411488]}}},"metallicFactor":0},"doubleSided":true}],"meshes":[{"primitives":[{"attributes":{"POSITION":0,"NORMAL":1,"TEXCOORD_0":2},"indices":3,"material":0}]}],"nodes":[{"mesh":0,"translation":[-1.02369988,-0.0101462407,-0.999931157],"scale":[0.000125226201,0.000125226201,0.000125226201]}],"scenes":[{"name":"Scene","nodes":[0]}],"scene":0}