{"asset":{"version":"2.0","generator":"gltfpack 1.0"},"extensionsUsed":["KHR_mesh_quantization","EXT_meshopt_compression","KHR_texture_transform","KHR_texture_basisu"],"extensionsRequired":["KHR_mesh_quantization","EXT_meshopt_compression","KHR_texture_basisu"],"buffers":[{"uri":"RockPath_Square_Thin.bin","byteLength":33644},{"byteLength":69160,"extensions":{"EXT_meshopt_compression":{"fallback":true}}}],"bufferViews":[{"buffer":1,"byteOffset":0,"byteLength":29200,"byteStride":8,"target":34962,"extensions":{"EXT_meshopt_compression":{"buffer":0,"byteOffset":0,"byteLength":16603,"byteStride":8,"mode":"ATTRIBUTES","count":3650}}},{"buffer":1,"byteOffset":29200,"byteLength":14600,"byteStride":4,"target":34962,"extensions":{"EXT_meshopt_compression":{"buffer":0,"byteOffset":16604,"byteLength":5200,"byteStride":4,"mode":"ATTRIBUTES","count":3650}}},{"buffer":1,"byteOffset":43800,"byteLength":14600,"byteStride":4,"target":34962,"extensions":{"EXT_meshopt_compression":{"buffer":0,"byteOffset":21804,"byteLength":10016,"byteStride":4,"mode":"ATTRIBUTES","count":3650}}},{"buffer":1,"byteOffset":58400,"byteLength":10758,"target":34963,"extensions":{"EXT_meshopt_compression":{"buffer":0,"byteOffset":31820,"byteLength":1822,"byteStride":2,"mode":"TRIANGLES","count":5379}}}],"accessors":[{"bufferView":0,"byteOffset":0,"componentType":5123,"count":3650,"type":"VEC3","min":[0,0,0],"max":[12862,1454,16383]},{"bufferView":1,"byteOffset":0,"componentType":5120,"count":3650,"type":"VEC3","normalized":true},{"bufferView":2,"byteOffset":0,"componentType":5123,"count":3650,"type":"VEC2","normalized":true},{"bufferView":3,"byteOffset":0,"componentType":5123,"count":5379,"type":"SCALAR"}],"samplers":[{"magFilter":9729,"minFilter":9987}],"images":[{"name":"PathRocks_Diffuse","uri":"PathRocks_Diffuse.ktx2"}],"textures":[{"sampler":0,"extensions":{"KHR_texture_basisu":{"source":0}}}],"materials":[{"name":"PathRocks","pbrMetallicRoughness":{"baseColorTexture":{"index":0,"extensions":{"KHR_texture_transform":{"offset":[0.001953125,0.001953125],"scale":[15.6624918,15.9411488]}}},"metallicFactor":0},"doubleSided":true}],"meshes":[{"primitives":[{"attributes":{"POSITION":0,"NORMAL":1,"TEXCOORD_0":2},"indices":3,"material":0}]}],"nodes":[{"mesh":0,"translation":[-0.768189609,-0.0101462416,-1.00225985],"scale":[0.000121280398,0.000121280398,0.000121280398]}],"scenes":[{"name":"Scene","nodes":[0]}],"scene":0}