{"asset":{"version":"2.0","generator":"gltfpack 1.0"},"extensionsUsed":["KHR_mesh_quantization","EXT_meshopt_compression","KHR_texture_transform","KHR_texture_basisu"],"extensionsRequired":["KHR_mesh_quantization","EXT_meshopt_compression","KHR_texture_basisu"],"buffers":[{"uri":"Rock_Medium_3.bin","byteLength":6244},{"byteLength":11628,"extensions":{"EXT_meshopt_compression":{"fallback":true}}}],"bufferViews":[{"buffer":1,"byteOffset":0,"byteLength":4248,"byteStride":8,"target":34962,"extensions":{"EXT_meshopt_compression":{"buffer":0,"byteOffset":0,"byteLength":2777,"byteStride":8,"mode":"ATTRIBUTES","count":531}}},{"buffer":1,"byteOffset":4248,"byteLength":2124,"byteStride":4,"target":34962,"extensions":{"EXT_meshopt_compression":{"buffer":0,"byteOffset":2780,"byteLength":1474,"byteStride":4,"mode":"ATTRIBUTES","count":531}}},{"buffer":1,"byteOffset":6372,"byteLength":2124,"byteStride":4,"target":34962,"extensions":{"EXT_meshopt_compression":{"buffer":0,"byteOffset":4256,"byteLength":1423,"byteStride":4,"mode":"ATTRIBUTES","count":531}}},{"buffer":1,"byteOffset":8496,"byteLength":3132,"target":34963,"extensions":{"EXT_meshopt_compression":{"buffer":0,"byteOffset":5680,"byteLength":562,"byteStride":2,"mode":"TRIANGLES","count":1566}}}],"accessors":[{"bufferView":0,"byteOffset":0,"componentType":5123,"count":531,"type":"VEC3","min":[0,0,0],"max":[16119,10917,16383]},{"bufferView":1,"byteOffset":0,"componentType":5120,"count":531,"type":"VEC3","normalized":true},{"bufferView":2,"byteOffset":0,"componentType":5123,"count":531,"type":"VEC2","normalized":true},{"bufferView":3,"byteOffset":0,"componentType":5123,"count":1566,"type":"SCALAR"}],"samplers":[{"magFilter":9729,"minFilter":9987}],"images":[{"name":"Rocks_Diffuse","uri":"Rocks_Diffuse.ktx2"}],"textures":[{"sampler":0,"extensions":{"KHR_texture_basisu":{"source":0}}}],"materials":[{"name":"Rocks","pbrMetallicRoughness":{"baseColorTexture":{"index":0,"extensions":{"KHR_texture_transform":{"offset":[0.001953125,0.00509649515],"scale":[12.0600147,14.9741888]}}},"metallicFactor":0},"doubleSided":true}],"meshes":[{"primitives":[{"attributes":{"POSITION":0,"NORMAL":1,"TEXCOORD_0":2},"indices":3,"material":0}]}],"nodes":[{"mesh":0,"translation":[-1.82427931,-0.315644413,-0.890462041],"scale":[0.000212177867,0.000212177867,0.000212177867]}],"scenes":[{"name":"Scene","nodes":[0]}],"scene":0}