{"asset":{"version":"2.0","generator":"gltfpack 1.0"},"extensionsUsed":["KHR_mesh_quantization","EXT_meshopt_compression","KHR_texture_transform","KHR_texture_basisu"],"extensionsRequired":["KHR_mesh_quantization","EXT_meshopt_compression","KHR_texture_basisu"],"buffers":[{"uri":"Rock_Medium_1.bin","byteLength":4184},{"byteLength":7668,"extensions":{"EXT_meshopt_compression":{"fallback":true}}}],"bufferViews":[{"buffer":1,"byteOffset":0,"byteLength":2808,"byteStride":8,"target":34962,"extensions":{"EXT_meshopt_compression":{"buffer":0,"byteOffset":0,"byteLength":1877,"byteStride":8,"mode":"ATTRIBUTES","count":351}}},{"buffer":1,"byteOffset":2808,"byteLength":1404,"byteStride":4,"target":34962,"extensions":{"EXT_meshopt_compression":{"buffer":0,"byteOffset":1880,"byteLength":948,"byteStride":4,"mode":"ATTRIBUTES","count":351}}},{"buffer":1,"byteOffset":4212,"byteLength":1404,"byteStride":4,"target":34962,"extensions":{"EXT_meshopt_compression":{"buffer":0,"byteOffset":2828,"byteLength":977,"byteStride":4,"mode":"ATTRIBUTES","count":351}}},{"buffer":1,"byteOffset":5616,"byteLength":2052,"target":34963,"extensions":{"EXT_meshopt_compression":{"buffer":0,"byteOffset":3808,"byteLength":376,"byteStride":2,"mode":"TRIANGLES","count":1026}}}],"accessors":[{"bufferView":0,"byteOffset":0,"componentType":5123,"count":351,"type":"VEC3","min":[0,0,0],"max":[16383,11479,15184]},{"bufferView":1,"byteOffset":0,"componentType":5120,"count":351,"type":"VEC3","normalized":true},{"bufferView":2,"byteOffset":0,"componentType":5123,"count":351,"type":"VEC2","normalized":true},{"bufferView":3,"byteOffset":0,"componentType":5123,"count":1026,"type":"SCALAR"}],"samplers":[{"magFilter":9729,"minFilter":9987}],"images":[{"name":"Rocks_Diffuse","uri":"Rocks_Diffuse.ktx2"}],"textures":[{"sampler":0,"extensions":{"KHR_texture_basisu":{"source":0}}}],"materials":[{"name":"Rocks","pbrMetallicRoughness":{"baseColorTexture":{"index":0,"extensions":{"KHR_texture_transform":{"offset":[0.0733477697,0.0697590709],"scale":[13.6718359,7.41144371]}}},"metallicFactor":0},"doubleSided":true}],"meshes":[{"primitives":[{"attributes":{"POSITION":0,"NORMAL":1,"TEXCOORD_0":2},"indices":3,"material":0}]}],"nodes":[{"mesh":0,"translation":[-1.72728729,-0.271131337,-1.14988327],"scale":[0.000196859459,0.000196859459,0.000196859459]}],"scenes":[{"name":"Scene","nodes":[0]}],"scene":0}