{"asset":{"version":"2.0","generator":"gltfpack 1.0"},"extensionsUsed":["KHR_mesh_quantization","EXT_meshopt_compression","KHR_texture_transform","KHR_texture_basisu"],"extensionsRequired":["KHR_mesh_quantization","EXT_meshopt_compression","KHR_texture_basisu"],"buffers":[{"uri":"RockPath_Square_Small_1.bin","byteLength":15292},{"byteLength":30380,"extensions":{"EXT_meshopt_compression":{"fallback":true}}}],"bufferViews":[{"buffer":1,"byteOffset":0,"byteLength":12840,"byteStride":8,"target":34962,"extensions":{"EXT_meshopt_compression":{"buffer":0,"byteOffset":0,"byteLength":7724,"byteStride":8,"mode":"ATTRIBUTES","count":1605}}},{"buffer":1,"byteOffset":12840,"byteLength":6420,"byteStride":4,"target":34962,"extensions":{"EXT_meshopt_compression":{"buffer":0,"byteOffset":7724,"byteLength":2330,"byteStride":4,"mode":"ATTRIBUTES","count":1605}}},{"buffer":1,"byteOffset":19260,"byteLength":6420,"byteStride":4,"target":34962,"extensions":{"EXT_meshopt_compression":{"buffer":0,"byteOffset":10056,"byteLength":4425,"byteStride":4,"mode":"ATTRIBUTES","count":1605}}},{"buffer":1,"byteOffset":25680,"byteLength":4698,"target":34963,"extensions":{"EXT_meshopt_compression":{"buffer":0,"byteOffset":14484,"byteLength":806,"byteStride":2,"mode":"TRIANGLES","count":2349}}}],"accessors":[{"bufferView":0,"byteOffset":0,"componentType":5123,"count":1605,"type":"VEC3","min":[0,0,0],"max":[16383,2410,15659]},{"bufferView":1,"byteOffset":0,"componentType":5120,"count":1605,"type":"VEC3","normalized":true},{"bufferView":2,"byteOffset":0,"componentType":5123,"count":1605,"type":"VEC2","normalized":true},{"bufferView":3,"byteOffset":0,"componentType":5123,"count":2349,"type":"SCALAR"}],"samplers":[{"magFilter":9729,"minFilter":9987}],"images":[{"name":"PathRocks_Diffuse","uri":"PathRocks_Diffuse.ktx2"}],"textures":[{"sampler":0,"extensions":{"KHR_texture_basisu":{"source":0}}}],"materials":[{"name":"PathRocks","pbrMetallicRoughness":{"baseColorTexture":{"index":0,"extensions":{"KHR_texture_transform":{"offset":[0.001953125,0.001953125],"scale":[15.6624918,15.9411488]}}},"metallicFactor":0},"doubleSided":true}],"meshes":[{"primitives":[{"attributes":{"POSITION":0,"NORMAL":1,"TEXCOORD_0":2},"indices":3,"material":0}]}],"nodes":[{"mesh":0,"translation":[-0.518924356,-0.00862283539,-0.474319249],"scale":[6.21915606e-05,6.21915606e-05,6.21915606e-05]}],"scenes":[{"name":"Scene","nodes":[0]}],"scene":0}