{"asset":{"version":"2.0","generator":"gltfpack 1.0"},"extensionsUsed":["KHR_mesh_quantization","EXT_meshopt_compression","KHR_texture_transform","KHR_texture_basisu"],"extensionsRequired":["KHR_mesh_quantization","EXT_meshopt_compression","KHR_texture_basisu"],"buffers":[{"uri":"RockPath_Round_Wide.bin","byteLength":62892},{"byteLength":132616,"extensions":{"EXT_meshopt_compression":{"fallback":true}}}],"bufferViews":[{"buffer":1,"byteOffset":0,"byteLength":55808,"byteStride":8,"target":34962,"extensions":{"EXT_meshopt_compression":{"buffer":0,"byteOffset":0,"byteLength":30389,"byteStride":8,"mode":"ATTRIBUTES","count":6976}}},{"buffer":1,"byteOffset":55808,"byteLength":27904,"byteStride":4,"target":34962,"extensions":{"EXT_meshopt_compression":{"buffer":0,"byteOffset":30392,"byteLength":10200,"byteStride":4,"mode":"ATTRIBUTES","count":6976}}},{"buffer":1,"byteOffset":83712,"byteLength":27904,"byteStride":4,"target":34962,"extensions":{"EXT_meshopt_compression":{"buffer":0,"byteOffset":40592,"byteLength":18770,"byteStride":4,"mode":"ATTRIBUTES","count":6976}}},{"buffer":1,"byteOffset":111616,"byteLength":21000,"target":34963,"extensions":{"EXT_meshopt_compression":{"buffer":0,"byteOffset":59364,"byteLength":3527,"byteStride":2,"mode":"TRIANGLES","count":10500}}}],"accessors":[{"bufferView":0,"byteOffset":0,"componentType":5123,"count":6976,"type":"VEC3","min":[0,0,0],"max":[16241,868,16383]},{"bufferView":1,"byteOffset":0,"componentType":5120,"count":6976,"type":"VEC3","normalized":true},{"bufferView":2,"byteOffset":0,"componentType":5123,"count":6976,"type":"VEC2","normalized":true},{"bufferView":3,"byteOffset":0,"componentType":5123,"count":10500,"type":"SCALAR"}],"samplers":[{"magFilter":9729,"minFilter":9987}],"images":[{"name":"PathRocks_Diffuse","uri":"PathRocks_Diffuse.ktx2"}],"textures":[{"sampler":0,"extensions":{"KHR_texture_basisu":{"source":0}}}],"materials":[{"name":"PathRocks","pbrMetallicRoughness":{"baseColorTexture":{"index":0,"extensions":{"KHR_texture_transform":{"offset":[0.001953125,0.113553464],"scale":[14.2224989,14.1551352]}}},"metallicFactor":0},"doubleSided":true}],"meshes":[{"primitives":[{"attributes":{"POSITION":0,"NORMAL":1,"TEXCOORD_0":2},"indices":3,"material":0}]}],"nodes":[{"mesh":0,"translation":[-1.04797554,-0.00888261199,-1.12593174],"scale":[0.000129954002,0.000129954002,0.000129954002]}],"scenes":[{"name":"Scene","nodes":[0]}],"scene":0}