{"asset":{"version":"2.0","generator":"gltfpack 1.0"},"extensionsUsed":["KHR_mesh_quantization","EXT_meshopt_compression","KHR_texture_transform","KHR_texture_basisu"],"extensionsRequired":["KHR_mesh_quantization","EXT_meshopt_compression","KHR_texture_basisu"],"buffers":[{"uri":"RockPath_Round_Small_1.bin","byteLength":19060},{"byteLength":37956,"extensions":{"EXT_meshopt_compression":{"fallback":true}}}],"bufferViews":[{"buffer":1,"byteOffset":0,"byteLength":15984,"byteStride":8,"target":34962,"extensions":{"EXT_meshopt_compression":{"buffer":0,"byteOffset":0,"byteLength":9388,"byteStride":8,"mode":"ATTRIBUTES","count":1998}}},{"buffer":1,"byteOffset":15984,"byteLength":7992,"byteStride":4,"target":34962,"extensions":{"EXT_meshopt_compression":{"buffer":0,"byteOffset":9388,"byteLength":3038,"byteStride":4,"mode":"ATTRIBUTES","count":1998}}},{"buffer":1,"byteOffset":23976,"byteLength":7992,"byteStride":4,"target":34962,"extensions":{"EXT_meshopt_compression":{"buffer":0,"byteOffset":12428,"byteLength":5611,"byteStride":4,"mode":"ATTRIBUTES","count":1998}}},{"buffer":1,"byteOffset":31968,"byteLength":5988,"target":34963,"extensions":{"EXT_meshopt_compression":{"buffer":0,"byteOffset":18040,"byteLength":1018,"byteStride":2,"mode":"TRIANGLES","count":2994}}}],"accessors":[{"bufferView":0,"byteOffset":0,"componentType":5123,"count":1998,"type":"VEC3","min":[0,0,0],"max":[11724,1252,16383]},{"bufferView":1,"byteOffset":0,"componentType":5120,"count":1998,"type":"VEC3","normalized":true},{"bufferView":2,"byteOffset":0,"componentType":5123,"count":1998,"type":"VEC2","normalized":true},{"bufferView":3,"byteOffset":0,"componentType":5123,"count":2994,"type":"SCALAR"}],"samplers":[{"magFilter":9729,"minFilter":9987}],"images":[{"name":"PathRocks_Diffuse","uri":"PathRocks_Diffuse.ktx2"}],"textures":[{"sampler":0,"extensions":{"KHR_texture_basisu":{"source":0}}}],"materials":[{"name":"PathRocks","pbrMetallicRoughness":{"baseColorTexture":{"index":0,"extensions":{"KHR_texture_transform":{"offset":[0.001953125,0.113553464],"scale":[14.2224989,14.1551352]}}},"metallicFactor":0},"doubleSided":true}],"meshes":[{"primitives":[{"attributes":{"POSITION":0,"NORMAL":1,"TEXCOORD_0":2},"indices":3,"material":0}]}],"nodes":[{"mesh":0,"translation":[-0.538055182,-0.00888260826,-0.703344464],"scale":[9.01152889e-05,9.01152889e-05,9.01152889e-05]}],"scenes":[{"name":"Scene","nodes":[0]}],"scene":0}