{"asset":{"version":"2.0","generator":"gltfpack 1.0"},"extensionsUsed":["KHR_mesh_quantization","EXT_meshopt_compression","KHR_texture_transform","KHR_texture_basisu"],"extensionsRequired":["KHR_mesh_quantization","EXT_meshopt_compression","KHR_texture_basisu"],"buffers":[{"uri":"RockPath_Round_Small_3.bin","byteLength":18480},{"byteLength":38012,"extensions":{"EXT_meshopt_compression":{"fallback":true}}}],"bufferViews":[{"buffer":1,"byteOffset":0,"byteLength":16000,"byteStride":8,"target":34962,"extensions":{"EXT_meshopt_compression":{"buffer":0,"byteOffset":0,"byteLength":9157,"byteStride":8,"mode":"ATTRIBUTES","count":2000}}},{"buffer":1,"byteOffset":16000,"byteLength":8000,"byteStride":4,"target":34962,"extensions":{"EXT_meshopt_compression":{"buffer":0,"byteOffset":9160,"byteLength":2917,"byteStride":4,"mode":"ATTRIBUTES","count":2000}}},{"buffer":1,"byteOffset":24000,"byteLength":8000,"byteStride":4,"target":34962,"extensions":{"EXT_meshopt_compression":{"buffer":0,"byteOffset":12080,"byteLength":5374,"byteStride":4,"mode":"ATTRIBUTES","count":2000}}},{"buffer":1,"byteOffset":32000,"byteLength":6012,"target":34963,"extensions":{"EXT_meshopt_compression":{"buffer":0,"byteOffset":17456,"byteLength":1022,"byteStride":2,"mode":"TRIANGLES","count":3006}}}],"accessors":[{"bufferView":0,"byteOffset":0,"componentType":5123,"count":2000,"type":"VEC3","min":[0,0,0],"max":[14974,1388,16383]},{"bufferView":1,"byteOffset":0,"componentType":5120,"count":2000,"type":"VEC3","normalized":true},{"bufferView":2,"byteOffset":0,"componentType":5123,"count":2000,"type":"VEC2","normalized":true},{"bufferView":3,"byteOffset":0,"componentType":5123,"count":3006,"type":"SCALAR"}],"samplers":[{"magFilter":9729,"minFilter":9987}],"images":[{"name":"PathRocks_Diffuse","uri":"PathRocks_Diffuse.ktx2"}],"textures":[{"sampler":0,"extensions":{"KHR_texture_basisu":{"source":0}}}],"materials":[{"name":"PathRocks","pbrMetallicRoughness":{"baseColorTexture":{"index":0,"extensions":{"KHR_texture_transform":{"offset":[0.001953125,0.113553464],"scale":[14.2224989,14.1551352]}}},"metallicFactor":0},"doubleSided":true}],"meshes":[{"primitives":[{"attributes":{"POSITION":0,"NORMAL":1,"TEXCOORD_0":2},"indices":3,"material":0}]}],"nodes":[{"mesh":0,"translation":[-0.587280929,-0.00779797509,-0.690271378],"scale":[7.87398385e-05,7.87398385e-05,7.87398385e-05]}],"scenes":[{"name":"Scene","nodes":[0]}],"scene":0}