{"asset":{"version":"2.0","generator":"gltfpack 1.0"},"extensionsUsed":["KHR_mesh_quantization","EXT_meshopt_compression","KHR_texture_transform","KHR_texture_basisu"],"extensionsRequired":["KHR_mesh_quantization","EXT_meshopt_compression","KHR_texture_basisu"],"buffers":[{"uri":"TwistedTree_4.bin","byteLength":114476},{"byteLength":236900,"extensions":{"EXT_meshopt_compression":{"fallback":true}}}],"bufferViews":[{"buffer":1,"byteOffset":0,"byteLength":18580,"byteStride":4,"target":34962,"extensions":{"EXT_meshopt_compression":{"buffer":0,"byteOffset":0,"byteLength":823,"byteStride":4,"mode":"ATTRIBUTES","count":4645}}},{"buffer":1,"byteOffset":18580,"byteLength":80360,"byteStride":8,"target":34962,"extensions":{"EXT_meshopt_compression":{"buffer":0,"byteOffset":824,"byteLength":45260,"byteStride":8,"mode":"ATTRIBUTES","count":10045}}},{"buffer":1,"byteOffset":98940,"byteLength":40180,"byteStride":4,"target":34962,"extensions":{"EXT_meshopt_compression":{"buffer":0,"byteOffset":46084,"byteLength":30736,"byteStride":4,"mode":"ATTRIBUTES","count":10045}}},{"buffer":1,"byteOffset":139120,"byteLength":40180,"byteStride":4,"target":34962,"extensions":{"EXT_meshopt_compression":{"buffer":0,"byteOffset":76820,"byteLength":27364,"byteStride":4,"mode":"ATTRIBUTES","count":10045}}},{"buffer":1,"byteOffset":179300,"byteLength":57600,"target":34963,"extensions":{"EXT_meshopt_compression":{"buffer":0,"byteOffset":104184,"byteLength":10289,"byteStride":2,"mode":"TRIANGLES","count":28800}}}],"accessors":[{"bufferView":0,"byteOffset":0,"componentType":5121,"count":4645,"type":"VEC4","normalized":true},{"bufferView":1,"byteOffset":0,"componentType":5123,"count":4645,"type":"VEC3","min":[1395,0,991],"max":[7984,15348,8673]},{"bufferView":2,"byteOffset":0,"componentType":5120,"count":4645,"type":"VEC3","normalized":true},{"bufferView":3,"byteOffset":0,"componentType":5123,"count":4645,"type":"VEC2","normalized":true},{"bufferView":4,"byteOffset":0,"componentType":5123,"count":20700,"type":"SCALAR"},{"bufferView":1,"byteOffset":37160,"componentType":5123,"count":5400,"type":"VEC3","min":[0,2040,0],"max":[9076,16383,9874]},{"bufferView":2,"byteOffset":18580,"componentType":5120,"count":5400,"type":"VEC3","normalized":true},{"bufferView":3,"byteOffset":18580,"componentType":5123,"count":5400,"type":"VEC2","normalized":true},{"bufferView":4,"byteOffset":41400,"componentType":5123,"count":8100,"type":"SCALAR"}],"samplers":[{"magFilter":9729,"minFilter":9987}],"images":[{"name":"Bark_TwistedTree_Normal","uri":"Bark_TwistedTree_Normal.ktx2"},{"name":"Bark_TwistedTree","uri":"Bark_TwistedTree.ktx2"},{"name":"Leaves_TwistedTree_C","uri":"Leaves_TwistedTree_C.ktx2"}],"textures":[{"sampler":0,"extensions":{"KHR_texture_basisu":{"source":0}}},{"sampler":0,"extensions":{"KHR_texture_basisu":{"source":1}}},{"sampler":0,"extensions":{"KHR_texture_basisu":{"source":2}}}],"materials":[{"name":"Bark_TwistedTree","pbrMetallicRoughness":{"baseColorTexture":{"index":1,"extensions":{"KHR_texture_transform":{"offset":[0.000239999994,-14.2395802],"scale":[15.9959803,243.885254]}}},"metallicFactor":0},"normalTexture":{"index":0,"extensions":{"KHR_texture_transform":{"offset":[0.000239999994,-14.2395802],"scale":[15.9959803,243.885254]}}},"doubleSided":true},{"name":"Leaves_TwistedTree","pbrMetallicRoughness":{"baseColorTexture":{"index":2,"extensions":{"KHR_texture_transform":{"offset":[0.000490000006,0.000490009785],"scale":[15.9879789,15.9879789]}}},"metallicFactor":0},"alphaMode":"MASK","alphaCutoff":0.200000003,"doubleSided":true}],"meshes":[{"primitives":[{"attributes":{"COLOR_0":0,"POSITION":1,"NORMAL":2,"TEXCOORD_0":3},"indices":4,"material":0},{"attributes":{"POSITION":5,"NORMAL":6,"TEXCOORD_0":7},"indices":8,"material":1}]}],"nodes":[{"mesh":0,"translation":[-4.3273201,-0.201474681,-7.14279461],"scale":[0.00114376098,0.00114376098,0.00114376098]}],"scenes":[{"name":"Scene","nodes":[0]}],"scene":0}