{"asset":{"version":"2.0","generator":"gltfpack 1.0"},"extensionsUsed":["KHR_mesh_quantization","EXT_meshopt_compression","KHR_texture_transform","KHR_texture_basisu"],"extensionsRequired":["KHR_mesh_quantization","EXT_meshopt_compression","KHR_texture_basisu"],"buffers":[{"uri":"TwistedTree_1.bin","byteLength":109268},{"byteLength":227968,"extensions":{"EXT_meshopt_compression":{"fallback":true}}}],"bufferViews":[{"buffer":1,"byteOffset":0,"byteLength":19064,"byteStride":4,"target":34962,"extensions":{"EXT_meshopt_compression":{"buffer":0,"byteOffset":0,"byteLength":922,"byteStride":4,"mode":"ATTRIBUTES","count":4766}}},{"buffer":1,"byteOffset":19064,"byteLength":75760,"byteStride":8,"target":34962,"extensions":{"EXT_meshopt_compression":{"buffer":0,"byteOffset":924,"byteLength":43092,"byteStride":8,"mode":"ATTRIBUTES","count":9470}}},{"buffer":1,"byteOffset":94824,"byteLength":37880,"byteStride":4,"target":34962,"extensions":{"EXT_meshopt_compression":{"buffer":0,"byteOffset":44016,"byteLength":28970,"byteStride":4,"mode":"ATTRIBUTES","count":9470}}},{"buffer":1,"byteOffset":132704,"byteLength":37880,"byteStride":4,"target":34962,"extensions":{"EXT_meshopt_compression":{"buffer":0,"byteOffset":72988,"byteLength":26015,"byteStride":4,"mode":"ATTRIBUTES","count":9470}}},{"buffer":1,"byteOffset":170584,"byteLength":57384,"target":34963,"extensions":{"EXT_meshopt_compression":{"buffer":0,"byteOffset":99004,"byteLength":10261,"byteStride":2,"mode":"TRIANGLES","count":28692}}}],"accessors":[{"bufferView":0,"byteOffset":0,"componentType":5121,"count":4766,"type":"VEC4","normalized":true},{"bufferView":1,"byteOffset":0,"componentType":5123,"count":4766,"type":"VEC3","min":[662,0,1576],"max":[11839,15166,9961]},{"bufferView":2,"byteOffset":0,"componentType":5120,"count":4766,"type":"VEC3","normalized":true},{"bufferView":3,"byteOffset":0,"componentType":5123,"count":4766,"type":"VEC2","normalized":true},{"bufferView":4,"byteOffset":0,"componentType":5123,"count":21636,"type":"SCALAR"},{"bufferView":1,"byteOffset":38128,"componentType":5123,"count":4704,"type":"VEC3","min":[0,2592,0],"max":[13239,16383,11313]},{"bufferView":2,"byteOffset":19064,"componentType":5120,"count":4704,"type":"VEC3","normalized":true},{"bufferView":3,"byteOffset":19064,"componentType":5123,"count":4704,"type":"VEC2","normalized":true},{"bufferView":4,"byteOffset":43272,"componentType":5123,"count":7056,"type":"SCALAR"}],"samplers":[{"magFilter":9729,"minFilter":9987}],"images":[{"name":"Bark_TwistedTree_Normal","uri":"Bark_TwistedTree_Normal.ktx2"},{"name":"Bark_TwistedTree","uri":"Bark_TwistedTree.ktx2"},{"name":"Leaves_TwistedTree_C","uri":"Leaves_TwistedTree_C.ktx2"}],"textures":[{"sampler":0,"extensions":{"KHR_texture_basisu":{"source":0}}},{"sampler":0,"extensions":{"KHR_texture_basisu":{"source":1}}},{"sampler":0,"extensions":{"KHR_texture_basisu":{"source":2}}}],"materials":[{"name":"Bark_TwistedTree","pbrMetallicRoughness":{"baseColorTexture":{"index":1,"extensions":{"KHR_texture_transform":{"offset":[0.000239999994,-11.4107399],"scale":[15.9959803,198.613449]}}},"metallicFactor":0},"normalTexture":{"index":0,"extensions":{"KHR_texture_transform":{"offset":[0.000239999994,-11.4107399],"scale":[15.9959803,198.613449]}}},"doubleSided":true},{"name":"Leaves_TwistedTree","pbrMetallicRoughness":{"baseColorTexture":{"index":2,"extensions":{"KHR_texture_transform":{"offset":[0.000490000006,0.000490009785],"scale":[15.9879789,15.9879789]}}},"metallicFactor":0},"alphaMode":"MASK","alphaCutoff":0.200000003,"doubleSided":true}],"meshes":[{"primitives":[{"attributes":{"COLOR_0":0,"POSITION":1,"NORMAL":2,"TEXCOORD_0":3},"indices":4,"material":0},{"attributes":{"POSITION":5,"NORMAL":6,"TEXCOORD_0":7},"indices":8,"material":1}]}],"nodes":[{"mesh":0,"translation":[-2.17424107,-0.201474696,-6.72677946],"scale":[0.00102090556,0.00102090556,0.00102090556]}],"scenes":[{"name":"Scene","nodes":[0]}],"scene":0}