{"asset":{"version":"2.0","generator":"gltfpack 1.0"},"extensionsUsed":["KHR_mesh_quantization","EXT_meshopt_compression","KHR_texture_transform","KHR_texture_basisu"],"extensionsRequired":["KHR_mesh_quantization","EXT_meshopt_compression","KHR_texture_basisu"],"buffers":[{"uri":"TwistedTree_3.bin","byteLength":117920},{"byteLength":244056,"extensions":{"EXT_meshopt_compression":{"fallback":true}}}],"bufferViews":[{"buffer":1,"byteOffset":0,"byteLength":19424,"byteStride":4,"target":34962,"extensions":{"EXT_meshopt_compression":{"buffer":0,"byteOffset":0,"byteLength":856,"byteStride":4,"mode":"ATTRIBUTES","count":4856}}},{"buffer":1,"byteOffset":19424,"byteLength":82048,"byteStride":8,"target":34962,"extensions":{"EXT_meshopt_compression":{"buffer":0,"byteOffset":856,"byteLength":46539,"byteStride":8,"mode":"ATTRIBUTES","count":10256}}},{"buffer":1,"byteOffset":101472,"byteLength":41024,"byteStride":4,"target":34962,"extensions":{"EXT_meshopt_compression":{"buffer":0,"byteOffset":47396,"byteLength":31403,"byteStride":4,"mode":"ATTRIBUTES","count":10256}}},{"buffer":1,"byteOffset":142496,"byteLength":41024,"byteStride":4,"target":34962,"extensions":{"EXT_meshopt_compression":{"buffer":0,"byteOffset":78800,"byteLength":28239,"byteStride":4,"mode":"ATTRIBUTES","count":10256}}},{"buffer":1,"byteOffset":183520,"byteLength":60534,"target":34963,"extensions":{"EXT_meshopt_compression":{"buffer":0,"byteOffset":107040,"byteLength":10880,"byteStride":2,"mode":"TRIANGLES","count":30267}}}],"accessors":[{"bufferView":0,"byteOffset":0,"componentType":5121,"count":4856,"type":"VEC4","normalized":true},{"bufferView":1,"byteOffset":0,"componentType":5123,"count":4856,"type":"VEC3","min":[1478,0,1272],"max":[10123,15248,10304]},{"bufferView":2,"byteOffset":0,"componentType":5120,"count":4856,"type":"VEC3","normalized":true},{"bufferView":3,"byteOffset":0,"componentType":5123,"count":4856,"type":"VEC2","normalized":true},{"bufferView":4,"byteOffset":0,"componentType":5123,"count":22167,"type":"SCALAR"},{"bufferView":1,"byteOffset":38848,"componentType":5123,"count":5400,"type":"VEC3","min":[0,2144,0],"max":[11577,16383,11728]},{"bufferView":2,"byteOffset":19424,"componentType":5120,"count":5400,"type":"VEC3","normalized":true},{"bufferView":3,"byteOffset":19424,"componentType":5123,"count":5400,"type":"VEC2","normalized":true},{"bufferView":4,"byteOffset":44334,"componentType":5123,"count":8100,"type":"SCALAR"}],"samplers":[{"magFilter":9729,"minFilter":9987}],"images":[{"name":"Bark_TwistedTree_Normal","uri":"Bark_TwistedTree_Normal.ktx2"},{"name":"Bark_TwistedTree","uri":"Bark_TwistedTree.ktx2"},{"name":"Leaves_TwistedTree_C","uri":"Leaves_TwistedTree_C.ktx2"}],"textures":[{"sampler":0,"extensions":{"KHR_texture_basisu":{"source":0}}},{"sampler":0,"extensions":{"KHR_texture_basisu":{"source":1}}},{"sampler":0,"extensions":{"KHR_texture_basisu":{"source":2}}}],"materials":[{"name":"Bark_TwistedTree","pbrMetallicRoughness":{"baseColorTexture":{"index":1,"extensions":{"KHR_texture_transform":{"offset":[0.000239999994,-11.5042896],"scale":[15.9959803,200.110596]}}},"metallicFactor":0},"normalTexture":{"index":0,"extensions":{"KHR_texture_transform":{"offset":[0.000239999994,-11.5042896],"scale":[15.9959803,200.110596]}}},"doubleSided":true},{"name":"Leaves_TwistedTree","pbrMetallicRoughness":{"baseColorTexture":{"index":2,"extensions":{"KHR_texture_transform":{"offset":[0.000490000006,0.000490009785],"scale":[15.9879789,15.9879789]}}},"metallicFactor":0},"alphaMode":"MASK","alphaCutoff":0.200000003,"doubleSided":true}],"meshes":[{"primitives":[{"attributes":{"COLOR_0":0,"POSITION":1,"NORMAL":2,"TEXCOORD_0":3},"indices":4,"material":0},{"attributes":{"POSITION":5,"NORMAL":6,"TEXCOORD_0":7},"indices":8,"material":1}]}],"nodes":[{"mesh":0,"translation":[-4.49001932,-0.201474681,-6.5200901],"scale":[0.000981049845,0.000981049845,0.000981049845]}],"scenes":[{"name":"Scene","nodes":[0]}],"scene":0}