{"asset":{"version":"2.0","generator":"gltfpack 1.0"},"extensionsUsed":["KHR_mesh_quantization","EXT_meshopt_compression","KHR_texture_transform","KHR_texture_basisu"],"extensionsRequired":["KHR_mesh_quantization","EXT_meshopt_compression","KHR_texture_basisu"],"buffers":[{"uri":"TwistedTree_5.bin","byteLength":124220},{"byteLength":254488,"extensions":{"EXT_meshopt_compression":{"fallback":true}}}],"bufferViews":[{"buffer":1,"byteOffset":0,"byteLength":19432,"byteStride":4,"target":34962,"extensions":{"EXT_meshopt_compression":{"buffer":0,"byteOffset":0,"byteLength":886,"byteStride":4,"mode":"ATTRIBUTES","count":4858}}},{"buffer":1,"byteOffset":19432,"byteLength":87216,"byteStride":8,"target":34962,"extensions":{"EXT_meshopt_compression":{"buffer":0,"byteOffset":888,"byteLength":49185,"byteStride":8,"mode":"ATTRIBUTES","count":10902}}},{"buffer":1,"byteOffset":106648,"byteLength":43608,"byteStride":4,"target":34962,"extensions":{"EXT_meshopt_compression":{"buffer":0,"byteOffset":50076,"byteLength":33376,"byteStride":4,"mode":"ATTRIBUTES","count":10902}}},{"buffer":1,"byteOffset":150256,"byteLength":43608,"byteStride":4,"target":34962,"extensions":{"EXT_meshopt_compression":{"buffer":0,"byteOffset":83452,"byteLength":29919,"byteStride":4,"mode":"ATTRIBUTES","count":10902}}},{"buffer":1,"byteOffset":193864,"byteLength":60624,"target":34963,"extensions":{"EXT_meshopt_compression":{"buffer":0,"byteOffset":113372,"byteLength":10846,"byteStride":2,"mode":"TRIANGLES","count":30312}}}],"accessors":[{"bufferView":0,"byteOffset":0,"componentType":5121,"count":4858,"type":"VEC4","normalized":true},{"bufferView":1,"byteOffset":0,"componentType":5123,"count":4858,"type":"VEC3","min":[1541,0,1232],"max":[8561,15225,8348]},{"bufferView":2,"byteOffset":0,"componentType":5120,"count":4858,"type":"VEC3","normalized":true},{"bufferView":3,"byteOffset":0,"componentType":5123,"count":4858,"type":"VEC2","normalized":true},{"bufferView":4,"byteOffset":0,"componentType":5123,"count":21246,"type":"SCALAR"},{"bufferView":1,"byteOffset":38864,"componentType":5123,"count":6044,"type":"VEC3","min":[0,5532,0],"max":[9932,16383,9819]},{"bufferView":2,"byteOffset":19432,"componentType":5120,"count":6044,"type":"VEC3","normalized":true},{"bufferView":3,"byteOffset":19432,"componentType":5123,"count":6044,"type":"VEC2","normalized":true},{"bufferView":4,"byteOffset":42492,"componentType":5123,"count":9066,"type":"SCALAR"}],"samplers":[{"magFilter":9729,"minFilter":9987}],"images":[{"name":"Bark_TwistedTree_Normal","uri":"Bark_TwistedTree_Normal.ktx2"},{"name":"Bark_TwistedTree","uri":"Bark_TwistedTree.ktx2"},{"name":"Leaves_TwistedTree_C","uri":"Leaves_TwistedTree_C.ktx2"}],"textures":[{"sampler":0,"extensions":{"KHR_texture_basisu":{"source":0}}},{"sampler":0,"extensions":{"KHR_texture_basisu":{"source":1}}},{"sampler":0,"extensions":{"KHR_texture_basisu":{"source":2}}}],"materials":[{"name":"Bark_TwistedTree","pbrMetallicRoughness":{"baseColorTexture":{"index":1,"extensions":{"KHR_texture_transform":{"offset":[0.000239999994,-12.1951704],"scale":[15.9959803,211.167221]}}},"metallicFactor":0},"normalTexture":{"index":0,"extensions":{"KHR_texture_transform":{"offset":[0.000239999994,-12.1951704],"scale":[15.9959803,211.167221]}}},"doubleSided":true},{"name":"Leaves_TwistedTree","pbrMetallicRoughness":{"baseColorTexture":{"index":2,"extensions":{"KHR_texture_transform":{"offset":[0.000490000006,0.000490009785],"scale":[15.9879789,15.9879789]}}},"metallicFactor":0},"alphaMode":"MASK","alphaCutoff":0.200000003,"doubleSided":true}],"meshes":[{"primitives":[{"attributes":{"COLOR_0":0,"POSITION":1,"NORMAL":2,"TEXCOORD_0":3},"indices":4,"material":0},{"attributes":{"POSITION":5,"NORMAL":6,"TEXCOORD_0":7},"indices":8,"material":1}]}],"nodes":[{"mesh":0,"translation":[-3.74643731,-0.201474681,-6.33899689],"scale":[0.000956001692,0.000956001692,0.000956001692]}],"scenes":[{"name":"Scene","nodes":[0]}],"scene":0}