{"asset":{"version":"2.0","generator":"gltfpack 1.0"},"extensionsUsed":["KHR_mesh_quantization","EXT_meshopt_compression","KHR_texture_transform","KHR_texture_basisu"],"extensionsRequired":["KHR_mesh_quantization","EXT_meshopt_compression","KHR_texture_basisu"],"buffers":[{"uri":"TwistedTree_2.bin","byteLength":101288},{"byteLength":218192,"extensions":{"EXT_meshopt_compression":{"fallback":true}}}],"bufferViews":[{"buffer":1,"byteOffset":0,"byteLength":17676,"byteStride":4,"target":34962,"extensions":{"EXT_meshopt_compression":{"buffer":0,"byteOffset":0,"byteLength":847,"byteStride":4,"mode":"ATTRIBUTES","count":4419}}},{"buffer":1,"byteOffset":17676,"byteLength":72856,"byteStride":8,"target":34962,"extensions":{"EXT_meshopt_compression":{"buffer":0,"byteOffset":848,"byteLength":41007,"byteStride":8,"mode":"ATTRIBUTES","count":9107}}},{"buffer":1,"byteOffset":90532,"byteLength":36428,"byteStride":4,"target":34962,"extensions":{"EXT_meshopt_compression":{"buffer":0,"byteOffset":41856,"byteLength":27685,"byteStride":4,"mode":"ATTRIBUTES","count":9107}}},{"buffer":1,"byteOffset":126960,"byteLength":36428,"byteStride":4,"target":34962,"extensions":{"EXT_meshopt_compression":{"buffer":0,"byteOffset":69544,"byteLength":21969,"byteStride":4,"mode":"ATTRIBUTES","count":9107}}},{"buffer":1,"byteOffset":163388,"byteLength":54804,"target":34963,"extensions":{"EXT_meshopt_compression":{"buffer":0,"byteOffset":91516,"byteLength":9772,"byteStride":2,"mode":"TRIANGLES","count":27402}}}],"accessors":[{"bufferView":0,"byteOffset":0,"componentType":5121,"count":4419,"type":"VEC4","normalized":true},{"bufferView":1,"byteOffset":0,"componentType":5123,"count":4419,"type":"VEC3","min":[1015,0,1043],"max":[8369,15358,6651]},{"bufferView":2,"byteOffset":0,"componentType":5120,"count":4419,"type":"VEC3","normalized":true},{"bufferView":3,"byteOffset":0,"componentType":5123,"count":4419,"type":"VEC2","normalized":true},{"bufferView":4,"byteOffset":0,"componentType":5123,"count":20370,"type":"SCALAR"},{"bufferView":1,"byteOffset":35352,"componentType":5123,"count":4688,"type":"VEC3","min":[0,4059,0],"max":[9132,16383,7956]},{"bufferView":2,"byteOffset":17676,"componentType":5120,"count":4688,"type":"VEC3","normalized":true},{"bufferView":3,"byteOffset":17676,"componentType":5123,"count":4688,"type":"VEC2","normalized":true},{"bufferView":4,"byteOffset":40740,"componentType":5123,"count":7032,"type":"SCALAR"}],"samplers":[{"magFilter":9729,"minFilter":9987}],"images":[{"name":"Bark_TwistedTree_Normal","uri":"Bark_TwistedTree_Normal.ktx2"},{"name":"Bark_TwistedTree","uri":"Bark_TwistedTree.ktx2"},{"name":"Leaves_TwistedTree_C","uri":"Leaves_TwistedTree_C.ktx2"}],"textures":[{"sampler":0,"extensions":{"KHR_texture_basisu":{"source":0}}},{"sampler":0,"extensions":{"KHR_texture_basisu":{"source":1}}},{"sampler":0,"extensions":{"KHR_texture_basisu":{"source":2}}}],"materials":[{"name":"Bark_TwistedTree","pbrMetallicRoughness":{"baseColorTexture":{"index":1,"extensions":{"KHR_texture_transform":{"offset":[0.000239999994,-14.4692202],"scale":[15.9959803,247.560333]}}},"metallicFactor":0},"normalTexture":{"index":0,"extensions":{"KHR_texture_transform":{"offset":[0.000239999994,-14.4692202],"scale":[15.9959803,247.560333]}}},"doubleSided":true},{"name":"Leaves_TwistedTree","pbrMetallicRoughness":{"baseColorTexture":{"index":2,"extensions":{"KHR_texture_transform":{"offset":[0.000490000006,0.000490009785],"scale":[31.97612,31.9761181]}}},"metallicFactor":0},"alphaMode":"MASK","alphaCutoff":0.200000003,"doubleSided":true}],"meshes":[{"primitives":[{"attributes":{"COLOR_0":0,"POSITION":1,"NORMAL":2,"TEXCOORD_0":3},"indices":4,"material":0},{"attributes":{"POSITION":5,"NORMAL":6,"TEXCOORD_0":7},"indices":8,"material":1}]}],"nodes":[{"mesh":0,"translation":[-6.61997032,-0.201474681,-5.54071808],"scale":[0.00115663814,0.00115663814,0.00115663814]}],"scenes":[{"name":"Scene","nodes":[0]}],"scene":0}